<svg version="1.2" xmlns="http://www.w3.org/2000/svg" viewBox="0 0 246 258" width="246" height="258"><style>.s0{fill:#d1be9d}</style><g style="opacity: .1"></g><g style="opacity: .1"></g><g style="opacity: .1"></g><g style="opacity: .1"></g><g style="opacity: .1"></g><g style="opacity: .1"></g><path fill-rule="evenodd" class="s0" d="m84.1 122.9h-78.9c-2.2 0-4-1.7-4-4v-44.6c0-2.2 1.8-4 4-4h78.9c2.2 0 4 1.8 4 4v44.6c0 2.3-1.8 4-4 4zm-74.9-8h70.9v-36.6h-70.9z" /><path fill-rule="evenodd" class="s0" d="m161.9 122.9h-77.8c-2.2 0-4-1.7-4-4v-44.6c0-2.2 1.8-4 4-4h77.8c2.2 0 4 1.8 4 4v44.6c0 2.3-1.8 4-4 4zm-73.8-8h69.8v-36.6h-69.8z" /><path fill-rule="evenodd" class="s0" d="m240.8 122.9h-78.9c-2.2 0-4-1.7-4-4v-44.6c0-2.2 1.8-4 4-4h78.9c2.2 0 4 1.8 4 4v44.6c0 2.3-1.8 4-4 4zm-74.9-8h70.9v-36.6h-70.9z" /><path fill-rule="evenodd" class="s0" d="m148.4 78.3h-43.5c-2.2 0-4-1.8-4-4v-6.8c0-10.6 19.7-11.4 25.8-11.4c6 0 25.7 0.8 25.7 11.4v6.8c0 2.2-1.8 4-4 4zm-39.5-8h35.5v-2.6c-1-1.3-7.1-3.6-17.7-3.6c-10.6 0-16.8 2.3-17.8 3.6z" /><path fill-rule="evenodd" class="s0" d="m148.4 73.6c-0.9 0-1.8-0.4-2.6-1c-0.9-0.8-1.4-1.9-1.4-3v-1.9c-1-1.3-7.1-3.6-17.7-3.6c-2.2 0-4-1.8-4-4c0-2.2 1.8-4 4-4c8.4 0 31.4-11.3 39.3-20.7c7.4-8.7 27.9-25.7 39.2-25.7c3.1 0 5.6 1.2 7.1 3.5c4.2 6.3-0.1 11.7-3 15.3c-3.2 4-4 5.5-2.8 7.5c1.5 2.8 4.1 5.4 6.4 7.7c3.7 3.8 6.9 7 6.1 11.1c-0.5 2.5-2.3 4.5-5.5 5.8c-9.4 4-58.8 12-64.4 12.9q-0.4 0.1-0.7 0.1zm-3.4-14.7c3.3 1.3 6 3.2 7 6c17.2-2.8 51.8-8.8 58.4-11.6q0.1-0.1 0.3-0.2c-0.8-1-2.3-2.6-3.5-3.7c-2.5-2.5-5.6-5.7-7.7-9.4c-4-7.1 0.5-12.7 3.6-16.5c3-3.8 3.3-4.7 2.6-5.8q-0.1 0-0.5 0c-7.1 0-25.8 14.3-33.1 22.9c-5.6 6.7-16.8 13.7-27.1 18.3z" /><path fill-rule="evenodd" class="s0" d="m104.9 73.6q-0.2 0-0.3-0.1c-6.2-0.5-60.5-5.4-72.7-16.5c-2.4-2.2-5.6-5.6-5-9.8c0.7-4.6 5.3-6.9 9.7-9.1c3.1-1.5 6.5-3.2 8.4-5.4c1.8-2.1 2.7-6 3.8-10.2c2.1-8.4 5-20 18.6-20h0.3c15.9 0.3 31.1 26 39.3 39.8c1.4 2.3 2.6 4.3 3.2 5.2c4.3 6 9.4 8.6 16.5 8.6c2.2 0 4 1.8 4 4c0 2.2-1.8 4-4 4c-10.6 0-16.8 2.3-17.8 3.6v1.9c0 1.1-0.5 2.1-1.3 2.9c-0.7 0.7-1.7 1.1-2.7 1.1zm-70-25.3c0.2 0.4 0.8 1.3 2.4 2.8c7.2 6.6 41.4 11.9 63.9 14.1c1.1-3.3 4.4-5.4 8.3-6.8q-3.1-2.5-5.8-6.2c-0.8-1.2-1.9-3.1-3.6-5.8c-5.7-9.8-21.1-35.7-32.5-35.9h-0.2c-6.7 0-8.4 4.3-10.9 14c-1.2 4.8-2.4 9.8-5.4 13.3c-2.9 3.6-7.2 5.6-10.9 7.5c-1.8 0.9-4.5 2.2-5.3 3z" /><path fill-rule="evenodd" class="s0" d="m89.6 258.5h-78.3c-2.2 0-4-1.8-4-4v-135.6c0-2.2 1.8-4 4-4h78.3c2.2 0 4 1.8 4 4v135.6c0 2.2-1.8 4-4 4zm-74.3-8h70.3v-127.6h-70.3z" /><path fill-rule="evenodd" class="s0" d="m156.4 258.5h-66.8c-2.2 0-4-1.8-4-4v-135.6c0-2.2 1.8-4 4-4h66.8c2.2 0 4 1.8 4 4v135.6c0 2.2-1.8 4-4 4zm-62.8-8h58.8v-127.6h-58.8z" /><path fill-rule="evenodd" class="s0" d="m234.7 258.5h-78.3c-2.2 0-4-1.8-4-4v-135.6c0-2.2 1.8-4 4-4h78.3c2.2 0 4 1.8 4 4v135.6c0 2.2-1.8 4-4 4zm-74.3-8h70.3v-127.6h-70.3z" /></svg>