<svg version="1.2" xmlns="http://www.w3.org/2000/svg" viewBox="0 0 259 237" width="259" height="237"><style>.s0{fill:#434a54}.s1{fill:none;stroke:#434a54;stroke-linecap:round;stroke-linejoin:round;stroke-width:8}.s2{fill:#ffa876}</style><path fill-rule="evenodd" class="s0" d="m-1181.8-604.4c-1.1 0-2.2-0.5-3-1.3l-13.2-14.8c-0.7-0.8-1.1-1.9-1-2.9c0.1-1.1 0.6-2.1 1.4-2.8l116.7-97.7l7.3-6.1c1.5-1.2 3.7-1.2 5.2 0l124 103.8c0.8 0.7 1.3 1.7 1.4 2.8c0.1 1-0.3 2.1-1 2.9l-13.2 14.8c-1.5 1.5-3.9 1.7-5.6 0.4l-22.4-18.3l-85.8-70.2l-108.3 88.5c-0.7 0.6-1.6 0.9-2.5 0.9zm-7.5-18.3l7.9 8.8l107.9-88.1c1.4-1.2 3.6-1.2 5 0l107.9 88.1l7.9-8.8l-118.3-99l-4.7 4z" /><path fill-rule="evenodd" class="s1" d="m-970.4-616.7v115.6h-201.2v-115.6l12.2-10l88.4-72.2l88.4 72.2zm-60.5-14.6c0-5.9-4.8-10.7-10.7-10.7c-5.9 0-10.7 4.8-10.7 10.7v37.6h-37.5v-37.6c0-5.9-4.8-10.7-10.7-10.7c-5.9 0-10.7 4.8-10.7 10.7v96.6c0 5.9 4.8 10.7 10.7 10.7c5.9 0 10.7-4.8 10.7-10.7v-37.6h37.5v37.6c0 5.9 4.8 10.7 10.7 10.7c5.9 0 10.7-4.8 10.7-10.7z" /><path fill-rule="evenodd" class="s0" d="m-1041.6-520c-8.1 0-14.7-6.6-14.7-14.7v-33.6h-29.5v33.6c0 8.1-6.5 14.7-14.6 14.7c-8.1 0-14.7-6.6-14.7-14.7v-96.6c0-8.1 6.6-14.7 14.7-14.7c8.1 0 14.6 6.6 14.6 14.7v33.6h29.5v-33.6c0-8.1 6.6-14.7 14.7-14.7c8.1 0 14.7 6.6 14.7 14.7v96.6c0 8.1-6.6 14.7-14.7 14.7zm-48.2-56.3h37.5c2.3 0 4 1.8 4 4v37.6c0 3.7 3 6.7 6.7 6.7c3.7 0 6.7-3 6.7-6.7v-96.6c0-3.7-3-6.7-6.7-6.7c-3.7 0-6.7 3-6.7 6.7v37.6c0 2.2-1.7 4-4 4h-37.5c-2.2 0-4-1.8-4-4v-37.6c0-3.7-3-6.7-6.6-6.7c-3.7 0-6.7 3-6.7 6.7v96.6c0 3.7 3 6.7 6.7 6.7c3.6 0 6.6-3 6.6-6.7v-37.6c0-2.2 1.8-4 4-4z" /><path fill-rule="evenodd" class="s0" d="m-1150.1-118.9c-10.6 0-19.2-8.6-19.2-19.2c0-10.5 8.6-19.1 19.2-19.1c10.6 0 19.2 8.6 19.2 19.1c0 10.6-8.6 19.2-19.2 19.2zm0-30.3c-6.2 0-11.2 5-11.2 11.1c0 6.2 5 11.2 11.2 11.2c6.2 0 11.2-5 11.2-11.2c0-6.1-5-11.1-11.2-11.1z" /><path fill-rule="evenodd" class="s0" d="m-991.9-118.9c-10.6 0-19.2-8.6-19.2-19.2c0-10.5 8.6-19.1 19.2-19.1c10.6 0 19.2 8.6 19.2 19.1c0 10.6-8.6 19.2-19.2 19.2zm0-30.3c-6.2 0-11.2 5-11.2 11.1c0 6.2 5 11.2 11.2 11.2c6.2 0 11.2-5 11.2-11.2c0-6.1-5-11.1-11.2-11.1z" /><path fill-rule="evenodd" class="s0" d="m-967.4-163.6h-207.2c-2.2 0-4-1.8-4-4v-139c0-21.5 17.5-38.9 39-38.9h137.2c21.5 0 39 17.4 39 38.9v139c0 2.2-1.8 4-4 4zm-203.2-8h199.2v-135c0-17-13.9-30.9-31-30.9h-137.2c-17.1 0-31 13.9-31 30.9z" /><path fill-rule="evenodd" class="s0" d="m-1038.3-337.5q0 0 0 0h-65.4c-2.2 0-4-1.8-4-4c0-10 9-17.8 24-20.6c4.1-0.8 8.3-1.2 12.7-1.2c4.4 0 8.6 0.4 12.7 1.2c14.8 2.8 23.7 10.3 24 20.1q0 0.3 0 0.5c0 2.2-1.7 4-4 4zm-60.4-8h55.4c-3.3-5.8-13.1-8.1-16.5-8.8c-3.6-0.7-7.3-1-11.2-1c-3.9 0-7.6 0.3-11.2 1c-3.4 0.7-13.2 3-16.5 8.8z" /><path fill-rule="evenodd" class="s0" d="m-1059.1-354.2q-0.4 0-0.7-0.1c-3.6-0.7-7.3-1-11.2-1c-3.9 0-7.6 0.3-11.2 1c-1.2 0.2-2.5-0.1-3.4-0.9c-0.9-0.9-1.4-2.1-1.3-3.3c0.9-11.3 8.9-16.4 15.9-16.4c7 0 15 5.1 15.9 16.4c0.1 1.2-0.4 2.4-1.3 3.3c-0.8 0.6-1.7 1-2.7 1zm-11.9-9.1q3.3 0 6.5 0.3c-1.6-2.8-4.2-3.9-6.5-3.9c-2.3 0-4.9 1.1-6.5 3.9q3.2-0.3 6.5-0.3z" /><path fill-rule="evenodd" class="s0" d="m-951.2-149.2h-239.6c-2.2 0-4-1.8-4-4v-14.4c0-2.2 1.8-4 4-4h239.6c2.2 0 4 1.8 4 4v14.4c0 2.2-1.8 4-4 4zm-235.6-8h231.6v-6.4h-231.6z" /><path fill-rule="evenodd" class="s0" d="m-1150.1-118.9c-10.6 0-19.2-8.6-19.2-19.2c0-10.5 8.6-19.1 19.2-19.1c10.6 0 19.2 8.6 19.2 19.1c0 10.6-8.6 19.2-19.2 19.2zm0-30.3c-6.2 0-11.2 5-11.2 11.1c0 6.2 5 11.2 11.2 11.2c6.2 0 11.2-5 11.2-11.2c0-6.1-5-11.1-11.2-11.1z" /><path fill-rule="evenodd" class="s0" d="m-991.9-118.9c-10.6 0-19.2-8.6-19.2-19.2c0-10.5 8.6-19.1 19.2-19.1c10.6 0 19.2 8.6 19.2 19.1c0 10.6-8.6 19.2-19.2 19.2zm0-30.3c-6.2 0-11.2 5-11.2 11.1c0 6.2 5 11.2 11.2 11.2c6.2 0 11.2-5 11.2-11.2c0-6.1-5-11.1-11.2-11.1z" /><path fill-rule="evenodd" class="s0" d="m-1012-163.6h-113.8c-2.2 0-3.9-1.7-4-3.9c-0.4-9.8-6.3-15.6-16.2-15.9c-2.2-0.1-3.9-1.9-3.9-4v-59.9c0-2.2 1.7-4 3.9-4c10.5-0.3 15.6-5.6 16.2-16.5c0.1-2.1 1.8-3.8 3.9-3.8h113.9c2.1 0 3.9 1.8 4 3.9c0.2 10.7 5.6 16 16.2 16.4c2.2 0 3.9 1.8 3.9 4v59.7c0 2.2-1.7 4-3.9 4c-11.2 0.3-15.9 4.9-16.2 16.1c-0.1 2.1-1.9 3.9-4 3.9zm-110.2-8h106.5c1.4-11.7 8.1-18.3 19.8-19.7v-52.4c-11.3-1.6-18.3-8.6-19.8-19.9h-106.5c-1.8 11.4-8.6 18.4-19.7 19.9v52.6c10.8 1.6 18 8.8 19.7 19.5z" /><path fill-rule="evenodd" class="s0" d="m-1145.9-243.3c-1 0-2-0.4-2.8-1.2c-0.8-0.7-1.2-1.7-1.2-2.8v-20.3c0-2.2 1.8-4 4-4h20c1.1 0 2.2 0.5 2.9 1.3c0.8 0.8 1.2 1.9 1.1 3c-0.7 15-9.2 23.5-23.9 24q0 0-0.1 0zm4-20.3v11.8c6.5-1.2 10.2-5 11.6-11.8z" /><path fill-rule="evenodd" class="s0" d="m-991.9-243.3q-0.1 0-0.1 0c-14.9-0.5-23.6-9.3-24-24.1c-0.1-1.1 0.3-2.2 1.1-2.9c0.8-0.8 1.8-1.3 2.9-1.3h20.1c2.2 0 4 1.8 4 4v20.3c0 1.1-0.4 2.1-1.2 2.8c-0.8 0.8-1.8 1.2-2.8 1.2zm-15.7-20.3c1.2 6.7 5.1 10.6 11.7 11.8v-11.8z" /><path fill-rule="evenodd" class="s0" d="m-991.9-163.6h-20.1c-1.1 0-2.1-0.5-2.9-1.2c-0.7-0.8-1.1-1.9-1.1-2.9c0.4-15.5 8.5-23.5 24-23.9c1.1 0 2.1 0.4 2.9 1.2c0.8 0.7 1.2 1.8 1.2 2.8v20c0 2.2-1.8 4-4 4zm-15.8-8h11.8v-11.6c-7 1-10.7 4.6-11.8 11.6z" /><path fill-rule="evenodd" class="s0" d="m-1125.8-163.6q0 0 0 0h-20.1c-2.2 0-4-1.8-4-4v-19.8c0-1.1 0.4-2.2 1.2-2.9c0.8-0.8 1.8-1.2 2.9-1.1c14.1 0.4 23.2 9.3 24 23.2q0 0.3 0 0.6c0 2.2-1.8 4-4 4zm-16.1-8h11.5c-1.4-6.1-5.4-10-11.5-11.4z" /><path fill-rule="evenodd" class="s0" d="m-1047.1-263.6q0 0-0.1 0h-41.6c-2.2 0-4-1.7-4-4c0-16.7 12.5-25.5 24.8-25.5c12.2 0 24.6 8.6 24.8 25.1q0.1 0.2 0.1 0.4c0 2.3-1.8 4-4 4zm-37.4-8h33c-1.6-9.3-9.1-13.5-16.5-13.5c-7.4 0-14.8 4.2-16.5 13.5z" /><path class="s2" d="" /><path fill-rule="evenodd" class="s0" d="m-1177.5 58.6c-11.8 0-21.5-9.6-21.5-21.4c0-11.8 9.7-21.4 21.5-21.4c6.4 0 12.5 2.8 16.5 7.7h5.8c1.5 0 2.9 0.9 3.6 2.2c0.6 1.4 0.5 3-0.5 4.2c-1 1.5-1.6 3.1-1.6 4.6v12.4c0 2.2-1.8 4-4 4h-3.3c-4 4.9-10.1 7.7-16.5 7.7zm0-34.8c-7.4 0-13.5 6-13.5 13.4c0 7.4 6.1 13.4 13.5 13.4c4.5 0 8.7-2.2 11.2-5.9c0.8-1.1 2-1.8 3.4-1.8h1.2v-8.4q0-1.5 0.3-3h-1.5c-1.4 0-2.6-0.7-3.3-1.8c-2.6-3.7-6.8-5.9-11.3-5.9z" /><path fill-rule="evenodd" class="s0" d="m-964.5 58.6c-6.4 0-12.5-2.8-16.5-7.7h-44.3c-2.2 0-4-1.8-4-4v-12.4c0-3.3 1.1-6.6 3.3-9.4c0.7-1 1.9-1.6 3.2-1.6h41.8c4-4.9 10.1-7.7 16.5-7.7c11.9 0 21.5 9.6 21.5 21.4c0 11.8-9.6 21.4-21.5 21.4zm-56.8-15.7h42.2c1.4 0 2.6 0.7 3.4 1.8c2.5 3.7 6.7 5.9 11.2 5.9c7.4 0 13.5-6 13.5-13.4c0-7.4-6.1-13.4-13.5-13.4c-4.5 0-8.7 2.2-11.2 5.9c-0.8 1.1-2 1.8-3.4 1.8h-41.5c-0.5 1-0.7 2-0.7 3z" /><path class="s1" d="" /><path fill-rule="evenodd" class="s0" d="m-1157.7 222.9c-0.9 0-1.8-0.3-2.5-0.9c-1-0.7-1.5-1.9-1.5-3.1v-184.4c0-3.3 1.1-6.6 3.3-9.4c3.6-4.8 9.6-7.5 16.5-7.5h132.4c2.2 0 4 1.8 4 4c0 2.2-1.8 4-4 4c-5.9 0-8.9 2.7-10.1 4.3c-1.1 1.5-1.7 3.1-1.7 4.6v184.4c0 1.2-0.6 2.3-1.5 3c-0.9 0.8-2.1 1.1-3.3 0.9c0 0-11.1-2.1-13-2.4c0 0 0 0-0.1 0c-0.4 0-1 0.1-1.7 0.1c-1.2 0.1-2.7 0.3-4.5 0.3c-2.5 0-4.9-0.3-7.2-0.9c-4.6-1.1-10.1-1.8-14.5-1.8q-2.7 0-4.9 0.3c-1.3 0.2-3 0.3-5.4 0.3c-1.7 0-3.6 0-5.6-0.1c-2.2 0-4.4-0.1-6.7-0.1c-3.8 0-9.2 0.2-13.3 1.2c-4.3 1.1-9.5 1.7-15.4 1.7c-5.1 0-10.7-0.4-16.6-1.3q-1.3-0.1-3-0.1c-7.7 0-18.7 2.7-18.8 2.7q-0.4 0.2-0.9 0.2zm118.5-10.5q0.9 0 1.5 0.1c1.1 0.2 5.1 1 8.4 1.6v-179.6c0-3.1 1-6.2 2.9-8.9h-115.5c-5.9 0-8.9 2.7-10.1 4.3c-1.1 1.5-1.7 3.1-1.7 4.6v179.4c4.2-0.9 10.5-1.9 15.7-1.9q2.3 0 4.1 0.2c3.8 0.5 9.5 1.2 15.5 1.2c5.2 0 9.7-0.5 13.4-1.4c4.9-1.3 11.1-1.5 15.3-1.5q3.6 0.1 6.9 0.1c1.9 0.1 3.7 0.1 5.4 0.1c1.9 0 3.3 0 4.3-0.2c1.8-0.2 3.8-0.4 6-0.4c5.1 0 11.1 0.8 16.4 2c1.7 0.5 3.4 0.7 5.3 0.7c1.4 0 2.7-0.1 3.8-0.2c0.9-0.1 1.7-0.2 2.4-0.2z" /><path fill-rule="evenodd" class="s0" d="m-1016 210.8c-3.1 0-6.3-0.2-9.6-0.4c-2.1-0.2-3.7-1.9-3.7-4v-159.5c0-2.2 1.8-4 4-4h31.6c2.3 0 4 1.8 4 4v157c0 1.7-1.1 3.3-2.8 3.8c-7 2.1-14.7 3.1-23.5 3.1zm-5.3-8.2c9.1 0.5 16.8-0.1 23.6-1.8v-149.9h-23.6z" /><path class="s0" d="m-996.1 31.5q-0.1 0-0.1 0h-26.6c-1.6 0-2.9-0.9-3.6-2.2c-0.7-1.4-0.5-3 0.4-4.2c3.6-4.8 9.6-7.5 16.5-7.5c6.7 0 12.6 2.6 16.3 7.2c0.6 0.7 1.1 1.6 1.1 2.7c0 2.2-1.8 4-4 4z" /><path class="s0" d="m-1155.7 547.2c-2.2 0-4-1.7-4-4v-30.8c0-2.2 1.8-4 4-4c2.2 0 4 1.8 4 4v30.8c0 2.3-1.8 4-4 4z" /><path class="s0" d="m-1136.2 547.2c-2.3 0-4-1.7-4-4v-30.8c0-2.2 1.7-4 4-4c2.2 0 4 1.8 4 4v30.8c0 2.3-1.8 4-4 4z" /><path class="s0" d="m-1136.2 531.8h-19.5c-2.2 0-4-1.8-4-4c0-2.2 1.8-4 4-4h19.5c2.2 0 4 1.8 4 4c0 2.2-1.8 4-4 4z" /><path fill-rule="evenodd" class="s0" d="m-1108.5 547.2c-9 0-16.3-8.7-16.3-19.4c0-10.7 7.3-19.4 16.3-19.4c9 0 16.3 8.7 16.3 19.4c0 10.7-7.3 19.4-16.3 19.4zm0-30.8c-4.5 0-8.3 5.2-8.3 11.4c0 6.2 3.8 11.4 8.3 11.4c4.5 0 8.3-5.2 8.3-11.4c0-6.2-3.8-11.4-8.3-11.4z" /><path class="s0" d="m-1071 547.2c-2.2 0-4-1.7-4-4v-26.8h-5.7c-2.2 0-4-1.8-4-4c0-2.2 1.8-4 4-4h19.4c2.2 0 4 1.8 4 4c0 2.2-1.8 4-4 4h-5.7v26.8c0 2.3-1.8 4-4 4z" /><path class="s0" d="m-1023.8 531.8h-19.4c-2.2 0-4-1.8-4-4c0-2.2 1.8-4 4-4h19.4c2.2 0 4 1.8 4 4c0 2.2-1.8 4-4 4z" /><path class="s0" d="m-1023.8 547.2h-19.4c-2.2 0-4-1.7-4-4v-30.8c0-2.2 1.8-4 4-4h19.4c2.2 0 4 1.8 4 4c0 2.2-1.8 4-4 4h-15.4v22.8h15.4c2.2 0 4 1.8 4 4c0 2.3-1.8 4-4 4z" /><path class="s0" d="m-986.3 547.2h-19.4c-2.3 0-4-1.7-4-4v-30.8c0-2.2 1.7-4 4-4c2.2 0 4 1.8 4 4v26.8h15.4c2.2 0 4 1.8 4 4c0 2.3-1.8 4-4 4z" /><path fill-rule="evenodd" class="s1" d="m-947 476.5v102.6h-47.3c-21 9.3-47.7 14.8-76.7 14.8c-29 0-55.7-5.5-76.7-14.8h-47.3v-102.6h47.3c21-9.2 47.7-14.7 76.7-14.7c29 0 55.7 5.5 76.7 14.7zm-17.6 15.7h-40.5c-18.1-6.5-41-10.4-65.8-10.4c-24.9 0-47.8 3.9-65.9 10.4h-40.5v71.2h40.5c18.1 6.5 41 10.4 65.9 10.4c24.8 0 47.7-3.9 65.8-10.4h40.5z" /><path fill-rule="evenodd" class="s0" d="m-1071 577.8c-24.4 0-47.3-3.6-66.5-10.4h-39.8c-2.2 0-4-1.8-4-4v-71.2c0-2.2 1.8-4 4-4h39.8c19.2-6.8 42.1-10.4 66.5-10.4c24.4 0 47.3 3.6 66.5 10.4h39.8c2.2 0 4 1.8 4 4v71.2c0 2.2-1.8 4-4 4h-39.8c-19.2 6.8-42.1 10.4-66.5 10.4zm-102.3-18.4h36.5q0.7 0 1.3 0.2c18.2 6.6 41.1 10.2 64.5 10.2c23.4 0 46.3-3.6 64.5-10.2q0.6-0.2 1.3-0.2h36.5v-63.2h-36.5q-0.7 0-1.3-0.2c-18.2-6.6-41.1-10.2-64.5-10.2c-23.4 0-46.3 3.6-64.5 10.2q-0.6 0.2-1.3 0.2h-36.5z" /><path fill-rule="evenodd" class="s0" d="m-1052.5 439.4q-0.9 0-1.8-0.4l-16.7-8.2l-16.7 8.2c-1.3 0.7-2.9 0.5-4-0.3c-1.2-0.8-1.9-2.2-1.8-3.6l1.7-19.1l-12.3-13.2c-1-1.1-1.3-2.6-0.9-4c0.4-1.3 1.6-2.4 3-2.7l18.4-3.9l9.1-16c0.7-1.3 2.1-2.1 3.5-2.1q0 0 0.1 0c1.4 0.1 2.7 0.9 3.4 2.2l9 16.8l18.3 3c1.5 0.2 2.8 1.3 3.2 2.7c0.5 1.5 0.1 3-1 4.1l-13 12.9l2.4 18.7q0.1 0.5 0.1 0.9c0 2.2-1.8 4-4 4q0 0 0 0zm-40.9-36.9l8.7 9.3c0.8 0.9 1.2 2 1.1 3.1l-1.3 13.8l12.1-6c1.1-0.5 2.5-0.5 3.6 0l11.7 5.8l-1.7-13.6c-0.2-1.2 0.2-2.5 1.1-3.4l8.9-8.8l-12.6-2c-1.2-0.2-2.3-1-2.9-2.1l-6.4-12.1l-6.4 11.2c-0.5 1-1.5 1.7-2.6 1.9z" /><path class="s1" d="m-616.1-683.5v193.5h-109.8q0-70.6 0-113.8c0-43.2 24.6-54.6 54.9-54.6c14 0 25.3-11.3 25.3-25.1c0-13.9-11.3-25.1-25.3-25.1c-14 0-25.3 11.2-25.3 25.1h-29.6c0-30.1 24.6-54.5 54.9-54.5c30.3 0 54.9 24.4 54.9 54.5z" /><path fill-rule="evenodd" class="s0" d="m-709.4-574.7c-2.2 0-4-1.8-4-4v-48.6c0-2.3 1.8-4 4-4c22.3 0 33.9 14.2 33.9 28.3c0 7.5-3.1 14.4-8.8 19.6c-6.1 5.7-14.8 8.7-25.1 8.7zm4-48.5v40.3c6.4-0.6 11.8-2.8 15.7-6.4c4-3.6 6.2-8.5 6.2-13.7c0-9.1-6.9-18.7-21.9-20.2z" /><path fill-rule="evenodd" class="s0" d="m-649.1-574.8c-12.6 0-21.4-11.7-21.4-28.4c0-16.8 8.8-28.5 21.4-28.5c12.6 0 21.4 11.7 21.4 28.5c0 16.7-8.8 28.4-21.4 28.4zm0-48.9c-9.2 0-13.4 10.6-13.4 20.5c0 9.8 4.2 20.4 13.4 20.4c9.2 0 13.4-10.6 13.4-20.4c0-9.9-4.2-20.5-13.4-20.5z" /><path class="s0" d="m-690-529.7c-1 0-2-0.5-2.6-1.4l-13.3-21.7v20.1c0 1.6-1.4 3-3 3c-1.7 0-3-1.4-3-3v-30.7c0-1.4 0.9-2.6 2.2-2.9c1.3-0.4 2.6 0.2 3.3 1.3l13.4 21.7v-20.1c0-1.7 1.3-3 3-3c1.6 0 3 1.3 3 3v30.7c0 1.3-0.9 2.5-2.2 2.9q-0.4 0.1-0.8 0.1z" /><path fill-rule="evenodd" class="s0" d="m-668.7-529.7c-8.2 0-13.9-7.6-13.9-18.4c0-10.8 5.7-18.3 13.9-18.3c8.2 0 13.9 7.5 13.9 18.3c0 10.8-5.7 18.4-13.9 18.4zm0-30.7c-5.4 0-7.9 6.4-7.9 12.3c0 6 2.5 12.4 7.9 12.4c5.5 0 7.9-6.4 7.9-12.4c0-5.9-2.4-12.3-7.9-12.3z" /><path class="s0" d="m-641.6-529.7c-1.6 0-3-1.4-3-3v-27.7h-6.4c-1.7 0-3-1.4-3-3c0-1.7 1.3-3 3-3h18.9c1.6 0 3 1.3 3 3c0 1.6-1.4 3-3 3h-6.5v27.7c0 1.6-1.3 3-3 3z" /><path class="s0" d="m-660.8-507.3c-2.7 0-5.4-2.1-5.4-6v-8.3c0-0.8 0.7-1.5 1.5-1.5c0.9 0 1.5 0.7 1.5 1.5v8.3c0 2.1 1.2 3 2.4 3c1.1 0 2.3-0.9 2.3-3v-8.3c0-0.8 0.7-1.5 1.5-1.5c0.9 0 1.5 0.7 1.5 1.5v8.3c0 3.9-2.7 6-5.3 6z" /><path fill-rule="evenodd" class="s0" d="m-710.5-507.4c-0.8 0-1.5-0.7-1.5-1.5v-12.8c0-0.9 0.7-1.5 1.5-1.5c6.3 0 9.6 4 9.6 7.9c0 2.1-0.9 4.1-2.5 5.5c-1.8 1.6-4.2 2.4-7.1 2.4zm1.5-12.7v9.6c1.5-0.2 2.7-0.7 3.6-1.5c1-0.9 1.5-2.1 1.5-3.3c0-2.1-1.6-4.3-5.1-4.8z" /><path class="s0" d="m-696.5-507.4c-0.8 0-1.5-0.7-1.5-1.5v-12.8c0-0.9 0.7-1.5 1.5-1.5c0.9 0 1.5 0.6 1.5 1.5v12.8c0 0.8-0.6 1.5-1.5 1.5z" /><path fill-rule="evenodd" class="s0" d="m-648.1-513.7h-2.6c-0.9 0-1.5-0.6-1.5-1.5v-6.4c0-0.8 0.6-1.5 1.5-1.5h2.6c3.2 0 4.8 2.4 4.8 4.7c0 1.2-0.4 2.4-1.2 3.2c-0.9 1-2.2 1.5-3.6 1.5zm-1.1-3h1.1q0.9 0 1.4-0.5c0.3-0.3 0.4-0.7 0.4-1.2c0-0.3-0.1-1.7-1.8-1.7h-1.1z" /><path class="s0" d="m-650.7-507.3c-0.9 0-1.5-0.6-1.5-1.5v-6.4c0-0.6 0.3-1.1 0.9-1.4c0.6-0.2 1.2 0 1.7 0.4l5.9 6.4c0.6 0.6 0.5 1.6-0.1 2.1c-0.6 0.6-1.5 0.6-2.1 0l-3.3-3.7v2.6c0 0.9-0.7 1.5-1.5 1.5z" /><path fill-rule="evenodd" class="s0" d="m-635.6-513.7h-2.7c-0.8 0-1.5-0.6-1.5-1.5v-6.4c0-0.8 0.7-1.5 1.5-1.5h2.7c3.1 0 4.8 2.4 4.8 4.7c0 1.2-0.5 2.4-1.3 3.2c-0.8 1-2.1 1.5-3.5 1.5zm-1.2-3h1.2q0.9 0 1.3-0.5c0.3-0.3 0.5-0.7 0.5-1.2c0-0.3-0.1-1.7-1.8-1.7h-1.2z" /><path fill-rule="evenodd" class="s0" d="m-635.6-507.3h-2.7c-0.8 0-1.5-0.6-1.5-1.5v-6.4c0-0.8 0.7-1.5 1.5-1.5h2.7c3.1 0 4.8 2.4 4.8 4.7c0 1.3-0.5 2.4-1.3 3.3c-0.8 0.9-2.1 1.4-3.5 1.4zm-1.2-3h1.2q0.9 0 1.3-0.5c0.3-0.3 0.5-0.7 0.5-1.2c0-0.2-0.1-1.7-1.8-1.7h-1.2z" /><path class="s0" d="m-638.3-507.3c-0.8 0-1.5-0.6-1.5-1.5v-6.4c0-0.8 0.7-1.5 1.5-1.5c0.8 0 1.5 0.7 1.5 1.5v6.4c0 0.9-0.7 1.5-1.5 1.5z" /><path class="s0" d="m-687-507.6q-1.3 0-2.9-0.5c-0.8-0.2-1.3-1.1-1-1.9c0.2-0.8 1.1-1.2 1.8-0.9c2.1 0.6 3.7 0.4 4-0.7c0.2-0.7-0.3-1.8-1.5-2.2c-1.8-0.5-3-1.8-3.4-3.4c-0.4-1.7 0.2-3.5 1.4-4.6c1.3-1.2 3-1.5 4.8-1c0.8 0.3 1.2 1.1 1 1.9c-0.3 0.8-1.1 1.2-1.9 1c-0.7-0.2-1.4-0.1-1.8 0.3c-0.5 0.4-0.7 1.1-0.6 1.7c0.2 0.6 0.6 1 1.4 1.3c3 0.9 4.1 3.7 3.4 5.9c-0.5 1.7-2.1 3.1-4.7 3.1z" /><path class="s0" d="m-673.6-507.6c-0.9 0-1.5-0.7-1.5-1.5v-10.6h-2.2c-0.9 0-1.5-0.7-1.5-1.5c0-0.8 0.6-1.5 1.5-1.5h7.4c0.8 0 1.5 0.7 1.5 1.5c0 0.8-0.7 1.5-1.5 1.5h-2.2v10.6c0 0.8-0.7 1.5-1.5 1.5z" /><path fill-rule="evenodd" class="s0" d="m-586-282.4q0 0 0 0h-127.7c-2.2 0-4-1.8-4-4c0-18.1 7.2-36.3 19.8-49.8c13-14.1 30.1-21.9 48.1-21.9c17.9 0 35 7.8 48.1 21.9c12.4 13.4 19.6 31.4 19.7 49.4q0 0.2 0 0.4c0 2.2-1.7 4-4 4zm-123.6-8h119.5c-2.1-32.2-29.1-59.7-59.7-59.7c-30.7 0-57.7 27.5-59.8 59.7z" /><path fill-rule="evenodd" class="s0" d="m-585.1-268.1h-127.8c-6.1 0-11.1-5-11.1-11.1c0-3 1.1-5.8 3.3-8c2-2.1 4.8-3.2 7.8-3.2h127.8c6.2 0 11.2 5 11.2 11.2c0 2.9-1.2 5.7-3.3 7.8c-2.1 2.2-4.9 3.3-7.9 3.3zm-127.8-14.3c-0.8 0-1.6 0.3-2.2 0.9c-0.6 0.6-0.9 1.4-0.9 2.3c0 1.7 1.4 3.1 3.1 3.1h127.8c0.8 0 1.6-0.3 2.2-0.9c0.6-0.6 1-1.4 1-2.2c0-1.8-1.5-3.2-3.2-3.2z" /><path fill-rule="evenodd" class="s0" d="m-649.8-350.1c-6.8 0-12.3-5.5-12.3-12.2c0-6.8 5.5-12.3 12.3-12.3c6.7 0 12.2 5.5 12.2 12.3c0 6.7-5.5 12.2-12.2 12.2zm0-16.5c-2.4 0-4.3 1.9-4.3 4.3c0 2.3 1.9 4.2 4.3 4.2c2.3 0 4.2-1.9 4.2-4.2c0-2.4-1.9-4.3-4.2-4.3z" /><path class="s0" d="m-668.8-335.7c-1.4 0-2.8-0.8-3.5-2.1c-1-1.9-0.3-4.4 1.7-5.4c2.6-1.4 5.4-2.8 8.3-4c2.1-0.9 4.4 0.1 5.3 2.1c0.9 2-0.1 4.4-2.1 5.2c-2.7 1.2-5.4 2.5-7.8 3.7q-0.9 0.5-1.9 0.5z" /><path class="s0" d="m-692.9-315.7c-0.8 0-1.7-0.3-2.4-0.8c-1.7-1.4-2.1-3.9-0.7-5.6c3.3-4.4 7.1-8.4 11.5-11.9c1.7-1.4 4.2-1.2 5.6 0.5c1.4 1.7 1.1 4.3-0.6 5.7c-3.9 3.1-7.2 6.6-10.2 10.5c-0.8 1-2 1.6-3.2 1.6z" /><path fill-rule="evenodd" class="s0" d="m-741-119.3c-10 0-18.1-8.1-18.1-18c0-10 8.1-18 18.1-18c10 0 18.1 8 18.1 18c0 9.9-8.1 18-18.1 18zm0-28c-5.6 0-10.1 4.4-10.1 10c0 5.5 4.5 10 10.1 10c5.6 0 10.1-4.5 10.1-10c0-5.6-4.5-10-10.1-10z" /><path fill-rule="evenodd" class="s0" d="m-561.1-119.3c-10 0-18.1-8.1-18.1-18c0-10 8.1-18 18.1-18c10 0 18.1 8 18.1 18c0 9.9-8.1 18-18.1 18zm0-28c-5.6 0-10.1 4.4-10.1 10c0 5.5 4.5 10 10.1 10c5.6 0 10.1-4.5 10.1-10c0-5.6-4.5-10-10.1-10z" /><path fill-rule="evenodd" class="s0" d="m-741-119.3c-10 0-18.1-8.1-18.1-18c0-10 8.1-18 18.1-18c10 0 18.1 8 18.1 18c0 9.9-8.1 18-18.1 18zm0-28c-5.6 0-10.1 4.4-10.1 10c0 5.5 4.5 10 10.1 10c5.6 0 10.1-4.5 10.1-10c0-5.6-4.5-10-10.1-10z" /><path fill-rule="evenodd" class="s0" d="m-780.9-294.9q-0.6 0-1.1-0.1h-0.4c-0.8-0.1-1.5-0.2-2.1-0.3q-0.4-0.1-0.8-0.2q0 0-0.1 0q-0.4-0.1-0.8-0.2q-0.5-0.2-0.9-0.3q-0.4-0.1-0.8-0.3q-0.3-0.2-0.6-0.3h-0.1q0-0.1-0.1-0.1q-1.2-0.6-2.4-1.4q-0.2-0.1-0.5-0.3c0 0-0.1-0.1-0.1-0.1q-0.4-0.3-0.7-0.6q-0.3-0.2-0.6-0.5q-0.4-0.3-0.7-0.6q-0.8-0.8-1.4-1.6q-0.3-0.3-0.5-0.7q-0.1-0.1-0.2-0.3q-0.3-0.4-0.5-0.7q-0.2-0.2-0.3-0.4q-0.2-0.4-0.4-0.8q0 0-0.1-0.1c-1.2-2.5-1.9-5.3-1.9-8.1c0-10 8.1-18 18.1-18c2.9 0 5.7 0.6 8.3 1.9c1 0.6 2.1 1.3 3.1 2c0.2 0.2 0.5 0.5 0.7 0.7q0.2 0.1 0.4 0.3q0.3 0.3 0.6 0.6q0 0.1 0.1 0.1q0.3 0.4 0.7 0.8q0 0.1 0.1 0.1q0.3 0.4 0.5 0.7q0.2 0.2 0.3 0.4q0.2 0.3 0.5 0.7l0.1 0.2q0.1 0.1 0.1 0.2c0.3 0.4 0.6 0.9 0.8 1.5q0.2 0.3 0.4 0.7q0 0 0 0.1q0.1 0.1 0.1 0.2l0.2 0.5q0 0.1 0 0.1l0.3 0.7q0 0.1 0 0.2q0.1 0.4 0.3 0.8c0.2 0.8 0.3 1.7 0.4 2.6q0.1 0.5 0.1 1q0 0.4 0 0.9c0 5-2 9.6-5.7 13q-0.4 0.4-0.8 0.8c-3.3 2.7-7.4 4.2-11.6 4.2zm-2.7-8.4q0.2 0.1 0.4 0.1q0.1 0 0.2 0q0 0.1 0.1 0.1q0.5 0.1 1.1 0.1l0.3 0.1q0.3 0 0.6 0c2.4 0 4.7-0.8 6.5-2.3q0.2-0.2 0.4-0.5c2.1-1.9 3.2-4.5 3.2-7.2q0-0.3 0-0.6q0-0.2 0-0.4q-0.1-0.9-0.3-1.5q-0.1-0.3-0.1-0.5l-0.3-0.8q-0.1-0.1-0.1-0.2q-0.1-0.2-0.2-0.4q-0.2-0.4-0.5-0.8l-0.1-0.3q-0.1-0.1-0.1-0.1q-0.1-0.1-0.2-0.3l-0.1-0.1q-0.1-0.2-0.2-0.3q-0.1-0.1-0.1-0.1q-0.2-0.3-0.4-0.4q-0.1-0.1-0.1-0.2q-0.2-0.1-0.3-0.2q-0.1-0.1-0.2-0.2q0 0 0 0q-0.2-0.2-0.4-0.4q-0.9-0.7-1.7-1.1q-2.2-1.1-4.7-1.1c-5.6 0-10.1 4.4-10.1 10q0 2.2 1 4.3q0.1 0.2 0.2 0.3q0 0.1 0 0.1q0 0.1 0.1 0.1q0.1 0.2 0.1 0.3q0.1 0 0.1 0.1q0.1 0.1 0.2 0.3q0.1 0.1 0.2 0.3q0.1 0.1 0.2 0.3c0.3 0.3 0.6 0.6 0.9 0.9q0.1 0.2 0.3 0.3q0.2 0.2 0.4 0.4q0.2 0.2 0.4 0.3l0.2 0.2q0.7 0.5 1.4 0.8h0.1q0.1 0.1 0.2 0.1q0.2 0.1 0.3 0.1q0.1 0.1 0.2 0.1c0.3 0.1 0.4 0.2 0.5 0.2q0.1 0 0.2 0.1q0.1 0 0.2 0z" /><path fill-rule="evenodd" class="s0" d="m-780.9-294.9q-0.6 0-1.1-0.1h-0.4c-0.8-0.1-1.5-0.2-2.1-0.3q-0.4-0.1-0.8-0.2q0 0-0.1 0q-0.4-0.1-0.8-0.2q-0.5-0.2-0.9-0.3q-0.4-0.1-0.8-0.3q-0.3-0.2-0.6-0.3h-0.1q0-0.1-0.1-0.1q-1.2-0.6-2.4-1.4q-0.2-0.1-0.5-0.3c0 0-0.1-0.1-0.1-0.1q-0.4-0.3-0.7-0.6q-0.3-0.2-0.6-0.5q-0.4-0.3-0.7-0.6q-0.8-0.8-1.4-1.6q-0.3-0.3-0.5-0.7q-0.1-0.1-0.2-0.3q-0.3-0.4-0.5-0.7q-0.2-0.2-0.3-0.4q-0.2-0.4-0.4-0.8q0 0-0.1-0.1c-1.2-2.5-1.9-5.3-1.9-8.1c0-10 8.1-18 18.1-18c2.9 0 5.7 0.6 8.3 1.9c1 0.6 2.1 1.3 3.1 2c0.2 0.2 0.5 0.5 0.7 0.7q0.2 0.1 0.4 0.3q0.3 0.3 0.6 0.6q0 0.1 0.1 0.1q0.3 0.4 0.7 0.8q0 0.1 0.1 0.1q0.3 0.4 0.5 0.7q0.2 0.2 0.3 0.4q0.2 0.3 0.5 0.7l0.1 0.2q0.1 0.1 0.1 0.2c0.3 0.4 0.6 0.9 0.8 1.5q0.2 0.3 0.4 0.7q0 0 0 0.1q0.1 0.1 0.1 0.2l0.2 0.5q0 0.1 0 0.1l0.3 0.7q0 0.1 0 0.2q0.1 0.4 0.3 0.8c0.2 0.8 0.3 1.7 0.4 2.6q0.1 0.5 0.1 1q0 0.4 0 0.9c0 5-2 9.6-5.7 13q-0.4 0.4-0.8 0.8c-3.3 2.7-7.4 4.2-11.6 4.2zm-2.7-8.4q0.2 0.1 0.4 0.1q0.1 0 0.2 0q0 0.1 0.1 0.1q0.5 0.1 1.1 0.1l0.3 0.1q0.3 0 0.6 0c2.4 0 4.7-0.8 6.5-2.3q0.2-0.2 0.4-0.5c2.1-1.9 3.2-4.5 3.2-7.2q0-0.3 0-0.6q0-0.2 0-0.4q-0.1-0.9-0.3-1.5q-0.1-0.3-0.1-0.5l-0.3-0.8q-0.1-0.1-0.1-0.2q-0.1-0.2-0.2-0.4q-0.2-0.4-0.5-0.8l-0.1-0.3q-0.1-0.1-0.1-0.1q-0.1-0.1-0.2-0.3l-0.1-0.1q-0.1-0.2-0.2-0.3q-0.1-0.1-0.1-0.1q-0.2-0.3-0.4-0.4q-0.1-0.1-0.1-0.2q-0.2-0.1-0.3-0.2q-0.1-0.1-0.2-0.2q0 0 0 0q-0.2-0.2-0.4-0.4q-0.9-0.7-1.7-1.1q-2.2-1.1-4.7-1.1c-5.6 0-10.1 4.4-10.1 10q0 2.2 1 4.3q0.1 0.2 0.2 0.3q0 0.1 0 0.1q0 0.1 0.1 0.1q0.1 0.2 0.1 0.3q0.1 0 0.1 0.1q0.1 0.1 0.2 0.3q0.1 0.1 0.2 0.3q0.1 0.1 0.2 0.3c0.3 0.3 0.6 0.6 0.9 0.9q0.1 0.2 0.3 0.3q0.2 0.2 0.4 0.4q0.2 0.2 0.4 0.3l0.2 0.2q0.7 0.5 1.4 0.8h0.1q0.1 0.1 0.2 0.1q0.2 0.1 0.3 0.1q0.1 0.1 0.2 0.1c0.3 0.1 0.4 0.2 0.5 0.2q0.1 0 0.2 0.1q0.1 0 0.2 0z" /><path fill-rule="evenodd" class="s0" d="m-561.1-119.3c-10 0-18.1-8.1-18.1-18c0-10 8.1-18 18.1-18c10 0 18.1 8 18.1 18c0 9.9-8.1 18-18.1 18zm0-28c-5.6 0-10.1 4.4-10.1 10c0 5.5 4.5 10 10.1 10c5.6 0 10.1-4.5 10.1-10c0-5.6-4.5-10-10.1-10z" /><path fill-rule="evenodd" class="s0" d="m-698.7-159.5c-2.7 0-5.3-0.6-7.8-1.7c-6.3-3-18.5-4.6-34.4-4.6c-7.9 0-13.9 0.4-13.9 0.4c-1.1 0.1-2.2-0.3-3-1c-0.8-0.8-1.3-1.9-1.3-3v-102c0-2.2 1.8-4 4-4h205.8c2.2 0 4 1.8 4 4v102c0 2-1.5 3.7-3.4 4c-0.4 0.1-10.1 1.4-18.4 1.4q0 0 0 0c-5.6 0-9.2-0.6-11.5-1.9c-2.2-1.2-5.9-1.2-8.8-1.3c-3.5-0.1-6.7-0.1-8.6-2.2c-1.9-0.8-8.9-2.2-15.8-2.2c-4.4 0-8 0.5-10 1.5c-4.9 2.5-14.1 4-23.4 4c-5.6 0-16-0.6-22.3-4.7c-0.4-0.3-0.9-0.4-1.5-0.4c-2.5 0-6.5 2.3-10.4 4.6c-5.7 3.3-12.2 7.1-19.3 7.1zm-42.2-14.3c17.6 0 30.3 1.8 37.8 5.3c1.4 0.7 2.8 1 4.4 1c4.9 0 10.2-3.1 15.3-6c5-2.9 9.7-5.7 14.4-5.7q3.2 0 5.8 1.7c3.3 2.2 10 3.4 18 3.4c7.9 0 16.1-1.3 19.9-3.1c3.2-1.6 7.7-2.4 13.5-2.4c0.1 0 16.5 0.2 21.2 4.2c0.8 0.2 2.2 0.2 3.4 0.2c3.8 0.1 8.5 0.2 12.5 2.3c0.1 0.1 1.7 0.9 7.6 0.9c4.8 0 10.3-0.5 13.8-0.9v-94.5h-197.8v93.8c2.6-0.1 6.1-0.2 10.2-0.2z" /><path fill-rule="evenodd" class="s0" d="m-737.5-267.4q0 0 0 0h-17.6c-2.2 0-4-1.8-4-4c0-10.4-0.3-21.4-2.5-25.4c-0.9-1.6-1.9-1.9-7.6-1.9q-1 0-2.1-0.1c-1.6 0-3-1-3.6-2.5c-0.6-1.5-0.2-3.3 1-4.4c2-1.9 3.1-4.5 3.1-7.2q0-0.2 0-0.4q0-0.2 0-0.4c0 0 0-0.2 0-0.3q-0.1-0.7-0.3-1.4q0-0.1 0-0.2q-0.1-0.1-0.1-0.2l-0.2-0.6q0-0.1-0.1-0.2q0-0.1-0.1-0.3q0 0 0-0.1q-0.1-0.1-0.1-0.1q-0.1-0.1-0.1-0.2q-0.2-0.4-0.5-0.8q0-0.2-0.1-0.3l-0.2-0.3q0 0-0.1-0.1l-0.1-0.1c-0.9-1.2-1-2.9-0.4-4.2c0.7-1.4 2.1-2.2 3.6-2.2h5.8c20 0 30.2 18 30.3 53.5q0 0.2 0 0.4c0 2.2-1.8 4-4 4zm-13.6-8h9.6c-0.6-27.9-7.8-41.6-21.8-41.9q0.3 1.2 0.4 2.4q0.1 0.6 0.1 1.1q0 0.4 0 0.9c0 2.2-0.4 4.4-1.1 6.4c3.7 0.4 7.1 1.7 9.3 5.8c2.4 4.2 3.3 11.2 3.5 25.3z" /><path class="s0" d="m-561.1-147.3h-179.9c-2.2 0-4-1.8-4-4v-18.5c0-2.2 1.8-4 4-4c2.2 0 4 1.8 4 4v14.5h171.9v-12.9c0-2.2 1.8-4 4-4c2.2 0 4 1.8 4 4v16.9c0 2.2-1.8 4-4 4z" /><path class="s0" d="m-654.7 48.7c-2.2 0-4-1.8-4-4v-29.1c0-2.2 1.8-4 4-4c2.2 0 4 1.8 4 4v29.1c0 2.2-1.8 4-4 4z" /><path class="s0" d="m-636.5 48.7c-2.2 0-4-1.8-4-4v-29.1c0-2.2 1.8-4 4-4c2.2 0 4 1.8 4 4v29.1c0 2.2-1.8 4-4 4z" /><path class="s0" d="m-636.5 34.1h-18.2c-2.2 0-4-1.7-4-4c0-2.2 1.8-4 4-4h18.2c2.2 0 4 1.8 4 4c0 2.3-1.8 4-4 4z" /><path fill-rule="evenodd" class="s0" d="m-645.6 93.3c-8.6 0-15.5-8.3-15.5-18.6c0-10.2 6.9-18.5 15.5-18.5c8.5 0 15.5 8.3 15.5 18.5c0 10.3-7 18.6-15.5 18.6zm0-29.1c-4.1 0-7.5 4.8-7.5 10.5c0 5.8 3.4 10.6 7.5 10.6c4.1 0 7.5-4.8 7.5-10.6c0-5.7-3.4-10.5-7.5-10.5z" /><path class="s0" d="m-645.6 137.9c-2.2 0-4-1.8-4-4v-25.1h-5.1c-2.2 0-4-1.8-4-4c0-2.2 1.8-4 4-4h18.2c2.2 0 4 1.8 4 4c0 2.2-1.8 4-4 4h-5.1v25.1c0 2.2-1.8 4-4 4z" /><path class="s0" d="m-636.5 167.9h-18.2c-2.2 0-4-1.8-4-4c0-2.2 1.8-4 4-4h18.2c2.2 0 4 1.8 4 4c0 2.2-1.8 4-4 4z" /><path class="s0" d="m-636.5 182.5h-18.2c-2.2 0-4-1.8-4-4v-29.1c0-2.2 1.8-4 4-4h18.2c2.2 0 4 1.8 4 4c0 2.2-1.8 4-4 4h-14.2v21.1h14.2c2.2 0 4 1.8 4 4c0 2.2-1.8 4-4 4z" /><path class="s0" d="m-636.5 227.1h-18.2c-2.2 0-4-1.8-4-4v-29.1c0-2.3 1.8-4 4-4c2.2 0 4 1.7 4 4v25.1h14.2c2.2 0 4 1.8 4 4c0 2.2-1.8 4-4 4z" /><path fill-rule="evenodd" class="s0" d="m-612.4 247.3h-66.4c-2.2 0-4-1.8-4-4v-248c0-2.2 1.8-4 4-4h66.4c2.2 0 4 1.8 4 4v248c0 2.2-1.8 4-4 4zm-62.4-8h58.4v-240h-58.4z" /><path fill-rule="evenodd" class="s0" d="m-704.2 177.9h-25.4c-2.2 0-4-1.8-4-4v-109.1c0-2.2 1.8-4 4-4h25.4c2.2 0 4 1.8 4 4v109.1c0 2.2-1.8 4-4 4zm-21.4-8h17.4v-101.1h-17.4z" /><path class="s0" d="m-678.8 84.8h-25.4c-2.2 0-4-1.8-4-4c0-2.2 1.8-4 4-4h25.4c2.2 0 4 1.8 4 4c0 2.2-1.8 4-4 4z" /><path class="s0" d="m-678.8 161.8h-25.4c-2.2 0-4-1.8-4-4c0-2.2 1.8-4 4-4h25.4c2.2 0 4 1.8 4 4c0 2.2-1.8 4-4 4z" /><path fill-rule="evenodd" class="s0" d="m-698.5 440.7q-0.9 0-1.7-0.4l-15.1-7.5l-15.2 7.5c-1.3 0.6-2.8 0.5-4-0.3c-1.2-0.8-1.9-2.2-1.7-3.7l1.5-17.3l-11.2-11.9c-1-1.1-1.3-2.6-0.9-4c0.5-1.3 1.6-2.4 3-2.7l16.8-3.5l8.2-14.6c0.7-1.2 2.1-2 3.5-2c1.5 0 2.8 0.9 3.5 2.1l8.1 15.3l16.6 2.7c1.5 0.2 2.7 1.3 3.2 2.7c0.4 1.4 0 3-1 4.1l-11.8 11.7l2.2 16.9q0.1 0.4 0.1 0.9c0 2.2-1.8 4-4 4q0 0-0.1 0zm-36.7-33.9l7.6 8.1c0.7 0.8 1.1 1.9 1 3.1l-1 11.9l10.5-5.1c1.1-0.6 2.4-0.6 3.5 0l10.2 5l-1.5-11.9c-0.2-1.2 0.2-2.4 1.1-3.3l7.7-7.6l-10.9-1.8c-1.2-0.2-2.3-0.9-2.9-2l-5.6-10.6l-5.5 9.8c-0.5 1-1.5 1.7-2.6 1.9z" /><path fill-rule="evenodd" class="s0" d="m-609.8 440.7q-0.9 0-1.7-0.4l-15.2-7.5l-15.1 7.5c-1.3 0.6-2.8 0.5-4-0.3c-1.2-0.8-1.9-2.2-1.7-3.7l1.5-17.3l-11.2-11.9c-1-1.1-1.3-2.6-0.9-4c0.5-1.3 1.6-2.4 3-2.7l16.7-3.5l8.3-14.6c0.7-1.2 2.1-2 3.5-2c1.5 0 2.8 0.9 3.5 2.1l8.1 15.3l16.6 2.7c1.5 0.2 2.7 1.3 3.2 2.7c0.4 1.4 0 3-1 4.1l-11.9 11.7l2.3 16.9q0.1 0.4 0.1 0.9c0 2.2-1.8 4-4 4q-0.1 0-0.1 0zm-36.7-33.9l7.6 8.1c0.7 0.8 1.1 1.9 1 3.1l-1 11.9l10.5-5.1c1.1-0.6 2.4-0.6 3.5 0l10.2 5l-1.5-11.9c-0.2-1.2 0.2-2.4 1.1-3.3l7.7-7.6l-10.9-1.8c-1.2-0.2-2.3-0.9-2.9-2l-5.6-10.6l-5.5 9.8c-0.5 1-1.5 1.7-2.6 1.9z" /><path class="s0" d="m-755.7 541.1c-2.2 0-4-1.8-4-4v-30.9c0-2.2 1.8-4 4-4c2.2 0 4 1.8 4 4v30.9c0 2.2-1.8 4-4 4z" /><path class="s0" d="m-736.2 541.1c-2.3 0-4-1.8-4-4v-30.9c0-2.2 1.7-4 4-4c2.2 0 4 1.8 4 4v30.9c0 2.2-1.8 4-4 4z" /><path class="s0" d="m-736.2 525.6h-19.5c-2.2 0-4-1.7-4-4c0-2.2 1.8-4 4-4h19.5c2.2 0 4 1.8 4 4c0 2.3-1.8 4-4 4z" /><path fill-rule="evenodd" class="s0" d="m-708.5 541.1c-9 0-16.3-8.7-16.3-19.5c0-10.7 7.3-19.4 16.3-19.4c9 0 16.3 8.7 16.3 19.4c0 10.8-7.3 19.5-16.3 19.5zm0-30.9c-4.5 0-8.3 5.2-8.3 11.4c0 6.2 3.8 11.5 8.3 11.5c4.5 0 8.3-5.3 8.3-11.5c0-6.2-3.8-11.4-8.3-11.4z" /><path class="s0" d="m-671 541.1c-2.2 0-4-1.8-4-4v-26.9h-5.7c-2.2 0-4-1.8-4-4c0-2.2 1.8-4 4-4h19.4c2.2 0 4 1.8 4 4c0 2.2-1.8 4-4 4h-5.7v26.9c0 2.2-1.8 4-4 4z" /><path class="s0" d="m-623.8 525.6h-19.4c-2.2 0-4-1.7-4-4c0-2.2 1.8-4 4-4h19.4c2.2 0 4 1.8 4 4c0 2.3-1.8 4-4 4z" /><path class="s0" d="m-623.8 541.1h-19.4c-2.2 0-4-1.8-4-4v-30.9c0-2.2 1.8-4 4-4h19.4c2.2 0 4 1.8 4 4c0 2.2-1.8 4-4 4h-15.4v22.9h15.4c2.2 0 4 1.8 4 4c0 2.2-1.8 4-4 4z" /><path class="s0" d="m-586.3 541.1h-19.4c-2.3 0-4-1.8-4-4v-30.9c0-2.2 1.7-4 4-4c2.2 0 4 1.8 4 4v26.9h15.4c2.2 0 4 1.8 4 4c0 2.2-1.8 4-4 4z" /><path fill-rule="evenodd" class="s1" d="m-547 470.3v102.7h-47.3c-21 9.2-47.7 14.7-76.7 14.7c-29 0-55.7-5.5-76.7-14.7h-47.3v-102.7h47.3c21-9.2 47.7-14.7 76.7-14.7c29 0 55.7 5.5 76.7 14.7zm-17.6 15.7h-40.5c-18.1-6.5-41-10.3-65.8-10.3c-24.9 0-47.8 3.8-65.9 10.3h-40.5v71.2h40.5c18.1 6.5 41 10.4 65.9 10.4c24.8 0 47.7-3.9 65.8-10.4h40.5z" /><path fill-rule="evenodd" class="s0" d="m-671 571.6c-24.4 0-47.3-3.6-66.5-10.4h-39.8c-2.2 0-4-1.7-4-4v-71.2c0-2.2 1.8-4 4-4h39.8c19.2-6.7 42.1-10.3 66.5-10.3c24.4 0 47.3 3.6 66.5 10.3h39.8c2.2 0 4 1.8 4 4v71.2c0 2.3-1.8 4-4 4h-39.8c-19.2 6.8-42.1 10.4-66.5 10.4zm-102.3-18.4h36.5q0.7 0 1.3 0.3c18.2 6.5 41.1 10.1 64.5 10.1c23.4 0 46.3-3.6 64.5-10.1q0.6-0.3 1.3-0.3h36.5v-63.2h-36.5q-0.7 0-1.3-0.2c-18.2-6.5-41.1-10.1-64.5-10.1c-23.4 0-46.3 3.6-64.5 10.1q-0.6 0.2-1.3 0.2h-36.5z" /><path fill-rule="evenodd" class="s0" d="m-160.8-488.5h-220.4c-9 0-16.4-7.4-16.4-16.4c0-4.4 1.7-8.6 4.8-11.6c3.1-3.2 7.2-4.9 11.6-4.9h220.4c9 0 16.4 7.4 16.4 16.5c0 4.3-1.7 8.4-4.8 11.6c-3.1 3.1-7.2 4.8-11.6 4.8zm-220.4-24.9c-2.2 0-4.3 0.9-5.9 2.5c-1.6 1.6-2.5 3.7-2.5 6c0 4.6 3.8 8.4 8.4 8.4h220.4c2.2 0 4.3-0.9 5.9-2.5c1.6-1.6 2.5-3.7 2.5-5.9c0-4.7-3.8-8.5-8.4-8.5z" /><path fill-rule="evenodd" class="s0" d="m-160.8-528.2q0 0 0 0h-220.4c-2.2 0-4-1.8-4-4c0-30.6 12.1-61.3 33.3-84.2c22-23.8 50.7-36.8 80.9-36.8c30.2 0 58.9 13 80.9 36.8c21.1 22.8 33.2 53.4 33.3 83.8q0 0.2 0 0.4c0 2.2-1.8 4-4 4zm-216.3-8h212.2c-2-59.5-49.8-109-106.1-109c-56.3 0-104.1 49.5-106.1 109z" /><path class="s0" d="m-303.6-620.4c-1.5 0-2.8-0.7-3.6-2.1c-1-1.9-0.3-4.3 1.7-5.4c4.4-2.4 9.2-4.7 14.2-6.8c2-0.9 4.4 0.1 5.3 2.1c0.8 2-0.1 4.4-2.1 5.2c-4.8 2.1-9.4 4.3-13.7 6.6q-0.9 0.4-1.8 0.4z" /><path class="s0" d="m-345.2-585.8c-0.9 0-1.7-0.2-2.4-0.8c-1.8-1.3-2.1-3.8-0.8-5.6c5.6-7.4 12.1-14.1 19.4-20.1c1.7-1.4 4.2-1.2 5.6 0.5c1.4 1.7 1.2 4.3-0.5 5.7c-6.8 5.6-12.9 11.9-18.1 18.7c-0.8 1.1-2 1.6-3.2 1.6z" /><path class="s0" d="m-349.3-513.4c-2.2 0-4-1.8-4-4v-14.8c0-2.2 1.8-4 4-4c2.2 0 4 1.8 4 4v14.8c0 2.2-1.8 4-4 4z" /><path class="s0" d="m-192.7-513.4c-2.2 0-4-1.8-4-4v-14.8c0-2.2 1.8-4 4-4c2.3 0 4 1.8 4 4v14.8c0 2.2-1.7 4-4 4z" /><path class="s0" d="m-271-645.2c-2.2 0-4-1.8-4-4v-13.7c0-2.2 1.8-4 4-4c2.2 0 4 1.8 4 4v13.7c0 2.2-1.8 4-4 4z" /><path class="s0" d="m-258.2-658.9h-25.7c-2.3 0-4-1.8-4-4c0-2.2 1.7-4 4-4h25.7c2.2 0 4 1.8 4 4c0 2.2-1.8 4-4 4z" /><path class="s0" d="m-176.4-655.6c-1.1 0-2.1-0.4-2.9-1.2c-1.5-1.5-1.5-4.1 0-5.6l29.5-29.5c1.5-1.6 4.1-1.6 5.6 0c1.6 1.5 1.6 4.1 0 5.6l-29.4 29.5c-0.8 0.8-1.8 1.2-2.8 1.2z" /><path class="s0" d="m-365.6-655.6c-1 0-2-0.4-2.8-1.2l-29.4-29.5c-1.6-1.5-1.6-4.1 0-5.6c1.5-1.6 4.1-1.6 5.6 0l29.5 29.5c1.5 1.5 1.5 4.1 0 5.6c-0.8 0.8-1.8 1.2-2.9 1.2z" /><path class="s0" d="m-271-688.5c-2.2 0-4-1.8-4-4v-43c0-2.2 1.8-4 4-4c2.2 0 4 1.8 4 4v43c0 2.2-1.8 4-4 4z" /><path fill-rule="evenodd" class="s1" d="m-147-247.7c0 68.5-55.5 124-124 124c-68.5 0-124-55.5-124-124c0-68.5 55.5-124 124-124c68.5 0 124 55.5 124 124zm-25.5 0c0-54.4-44.1-98.5-98.5-98.5c-54.4 0-98.5 44.1-98.5 98.5c0 54.4 44.1 98.5 98.5 98.5c54.4 0 98.5-44.1 98.5-98.5z" /><path fill-rule="evenodd" class="s0" d="m-287.8-166.7c-8.1 0-14.8-6.6-14.8-14.8v-124.7c0-8.2 6.7-14.9 14.8-14.9c17.9 0 33.2 4.5 44.4 13c11.2 8.6 17.6 20.9 17.6 33.9c0 12.9-6.4 25.2-17.6 33.8c-8 6.1-17.9 10.1-29.5 11.9v47c0 8.2-6.7 14.8-14.9 14.8zm0-146.4c-3.7 0-6.8 3.1-6.8 6.9v124.7c0 3.8 3.1 6.8 6.8 6.8c3.8 0 6.9-3 6.9-6.8v-50.5c0-2 1.5-3.7 3.5-4c11.7-1.3 21.5-5 29.2-10.8c9.2-7 14.4-17 14.4-27.4c0-10.5-5.2-20.5-14.4-27.5c-9.8-7.5-23.5-11.4-39.6-11.4zm10.9 63.2c-1 0-1.9-0.3-2.6-1c-0.9-0.7-1.4-1.8-1.4-3v-40.7c0-1.2 0.5-2.3 1.4-3c0.9-0.8 2.1-1.1 3.2-0.9c8 1.2 14.7 3.8 19.8 7.7c5.8 4.5 9 10.4 9 16.6c0 9.7-8.9 21.1-28.8 24.2q-0.3 0.1-0.6 0.1zm4-39.8v30.9c12-3.1 17.4-9.7 17.4-15.4c0-3.7-2.1-7.3-5.9-10.2c-2.2-1.7-5.9-3.8-11.5-5.3z" /><path class="s0" d="m-357.1 162.4c-2.2 0-4-1.8-4-4v-28.4c0-2.3 1.8-4 4-4c2.2 0 4 1.7 4 4v28.4c0 2.2-1.8 4-4 4z" /><path class="s0" d="m-339.1 162.4c-2.2 0-4-1.8-4-4v-28.4c0-2.3 1.8-4 4-4c2.2 0 4 1.7 4 4v28.4c0 2.2-1.8 4-4 4z" /><path class="s0" d="m-339.1 148.2h-18c-2.2 0-4-1.8-4-4c0-2.2 1.8-4 4-4h18c2.2 0 4 1.8 4 4c0 2.2-1.8 4-4 4z" /><path fill-rule="evenodd" class="s0" d="m-313.4 162.4c-8.5 0-15.4-8.2-15.4-18.2c0-10.1 6.9-18.2 15.4-18.2c8.5 0 15.4 8.1 15.4 18.2c0 10-6.9 18.2-15.4 18.2zm0-28.4c-4 0-7.4 4.6-7.4 10.2c0 5.5 3.4 10.2 7.4 10.2c4 0 7.4-4.7 7.4-10.2c0-5.6-3.4-10.2-7.4-10.2z" /><path class="s0" d="m-278.7 162.4c-2.2 0-4-1.8-4-4v-24.4h-5c-2.2 0-4-1.8-4-4c0-2.3 1.8-4 4-4h18c2.2 0 4 1.7 4 4c0 2.2-1.8 4-4 4h-5v24.4c0 2.2-1.8 4-4 4z" /><path class="s0" d="m-235 148.2h-18c-2.2 0-4-1.8-4-4c0-2.2 1.8-4 4-4h18c2.2 0 4 1.8 4 4c0 2.2-1.8 4-4 4z" /><path class="s0" d="m-235 162.4h-18c-2.2 0-4-1.8-4-4v-28.4c0-2.3 1.8-4 4-4h18c2.2 0 4 1.7 4 4c0 2.2-1.8 4-4 4h-14v20.4h14c2.2 0 4 1.8 4 4c0 2.2-1.8 4-4 4z" /><path class="s0" d="m-200.3 162.4h-18c-2.2 0-4-1.8-4-4v-28.4c0-2.3 1.8-4 4-4c2.2 0 4 1.7 4 4v24.4h14c2.2 0 4 1.8 4 4c0 2.2-1.8 4-4 4z" /><path fill-rule="evenodd" class="s0" d="m-179 183.5h-199.4c-2.2 0-4-1.8-4-4v-73.3c0-2.2 1.8-4 4-4h199.4c2.2 0 4 1.8 4 4v73.3c0 2.2-1.8 4-4 4zm-195.4-8h191.4v-65.3h-191.4z" /><path fill-rule="evenodd" class="s0" d="m-163.1 95.2c-4.9 0-9.6-1.7-13.2-4.9h-218.7c-2.2 0-4-1.8-4-4v-22.2c0-2.2 1.8-4 4-4h218.7c3.6-3.2 8.3-4.9 13.2-4.9c11.1 0 20.1 9 20.1 20c0 11.1-9 20-20.1 20zm-227.9-12.9h216.3c1.1 0 2.1 0.5 2.8 1.2c2.3 2.4 5.4 3.7 8.8 3.7c6.7 0 12.1-5.4 12.1-12c0-6.6-5.4-12-12.1-12c-3.4 0-6.5 1.3-8.8 3.7c-0.7 0.7-1.7 1.2-2.8 1.2h-216.3z" /><path class="s0" d="m-338.8 110.2c-2.2 0-4-1.8-4-4v-19.9c0-2.2 1.8-4 4-4c2.2 0 4 1.8 4 4v19.9c0 2.2-1.8 4-4 4z" /><path class="s0" d="m-218.6 110.2c-2.2 0-4-1.8-4-4v-19.9c0-2.2 1.8-4 4-4c2.2 0 4 1.8 4 4v19.9c0 2.2-1.8 4-4 4z" /><path fill-rule="evenodd" class="s0" d="m-326.3 447q-1 0-1.8-0.4l-13-6.4l-13 6.4c-1.3 0.6-2.8 0.5-4-0.3c-1.2-0.8-1.9-2.2-1.7-3.7l1.3-14.8l-9.6-10.3c-1-1.1-1.4-2.6-0.9-3.9c0.4-1.4 1.5-2.5 3-2.8l14.4-3l7-12.5c0.7-1.3 2.1-2 3.6-2c1.4 0 2.8 0.8 3.4 2.1l7 13.1l14.3 2.3c1.4 0.2 2.7 1.3 3.1 2.7c0.5 1.5 0.1 3-1 4.1l-10.1 10l1.9 14.5q0.1 0.4 0.1 0.9c0 2.2-1.8 4-4 4q0 0 0 0zm-31.2-29.8l6 6.4c0.8 0.9 1.2 2 1.1 3.1l-0.8 9.6l8.3-4.1c1.1-0.6 2.5-0.6 3.6 0l8 3.9l-1.2-9.4c-0.2-1.2 0.3-2.5 1.1-3.3l6-6l-8.5-1.4c-1.2-0.2-2.3-0.9-2.9-2l-4.4-8.4l-4.4 7.7c-0.5 1-1.5 1.7-2.6 1.9z" /><path fill-rule="evenodd" class="s0" d="m-186.1 447q-1 0-1.8-0.4l-13-6.4l-13 6.4c-1.3 0.6-2.8 0.5-4-0.3c-1.2-0.8-1.9-2.2-1.7-3.7l1.3-14.8l-9.6-10.3c-1-1.1-1.4-2.6-0.9-3.9c0.4-1.4 1.5-2.5 3-2.8l14.4-3l7-12.5c0.7-1.3 2.1-2 3.6-2c1.4 0 2.7 0.8 3.4 2.1l7 13.1l14.3 2.3c1.4 0.2 2.7 1.3 3.1 2.7c0.5 1.5 0.1 3-1 4.1l-10.1 10l1.9 14.5q0.1 0.4 0.1 0.9c0 2.2-1.8 4-4 4q0 0 0 0zm-31.2-29.8l6 6.4c0.8 0.9 1.2 2 1.1 3.1l-0.8 9.6l8.3-4.1c1.1-0.6 2.5-0.6 3.6 0l8 3.9l-1.2-9.4c-0.2-1.2 0.3-2.5 1.1-3.3l6-6l-8.5-1.4c-1.2-0.2-2.3-0.9-2.9-2l-4.4-8.4l-4.4 7.7c-0.5 1-1.5 1.7-2.6 1.9z" /><path fill-rule="evenodd" class="s0" d="m-253.4 434.6q-0.9 0-1.7-0.4l-15.9-7.8l-15.9 7.8c-1.3 0.6-2.8 0.5-4-0.3c-1.2-0.8-1.8-2.2-1.7-3.6l1.6-18.2l-11.7-12.5c-1-1.1-1.4-2.6-0.9-3.9c0.4-1.4 1.5-2.5 3-2.8l17.5-3.7l8.6-15.2c0.7-1.3 2.1-2 3.6-2c1.4 0 2.7 0.8 3.4 2.1l8.5 16l17.5 2.8c1.4 0.3 2.7 1.3 3.1 2.7c0.5 1.5 0.1 3-1 4.1l-12.4 12.3l2.3 17.7q0.2 0.4 0.2 0.9c0 2.2-1.8 4-4 4q-0.1 0-0.1 0zm-38.7-35.3l8.2 8.7c0.7 0.8 1.1 1.9 1 3.1l-1.1 12.8l11.2-5.5c1.1-0.6 2.5-0.6 3.6 0l10.9 5.3l-1.7-12.6c-0.1-1.3 0.3-2.5 1.2-3.4l8.2-8.2l-11.6-1.9c-1.3-0.2-2.4-0.9-2.9-2l-6-11.3l-5.9 10.4c-0.6 1-1.6 1.7-2.7 2z" /><path class="s0" d="m-355.7 549.4c-2.2 0-4-1.8-4-4v-30.8c0-2.2 1.8-4 4-4c2.2 0 4 1.8 4 4v30.8c0 2.2-1.8 4-4 4z" /><path class="s0" d="m-336.2 549.4c-2.3 0-4-1.8-4-4v-30.8c0-2.2 1.7-4 4-4c2.2 0 4 1.8 4 4v30.8c0 2.2-1.8 4-4 4z" /><path class="s0" d="m-336.2 534h-19.5c-2.2 0-4-1.8-4-4c0-2.2 1.8-4 4-4h19.5c2.2 0 4 1.8 4 4c0 2.2-1.8 4-4 4z" /><path fill-rule="evenodd" class="s0" d="m-308.5 549.4c-9 0-16.3-8.7-16.3-19.4c0-10.7 7.3-19.4 16.3-19.4c9 0 16.3 8.7 16.3 19.4c0 10.7-7.3 19.4-16.3 19.4zm0-30.8c-4.5 0-8.3 5.2-8.3 11.4c0 6.2 3.8 11.4 8.3 11.4c4.5 0 8.3-5.2 8.3-11.4c0-6.2-3.8-11.4-8.3-11.4z" /><path class="s0" d="m-271 549.4c-2.2 0-4-1.8-4-4v-26.8h-5.7c-2.2 0-4-1.8-4-4c0-2.2 1.8-4 4-4h19.4c2.2 0 4 1.8 4 4c0 2.2-1.8 4-4 4h-5.7v26.8c0 2.2-1.8 4-4 4z" /><path class="s0" d="m-223.8 534h-19.4c-2.2 0-4-1.8-4-4c0-2.2 1.8-4 4-4h19.4c2.2 0 4 1.8 4 4c0 2.2-1.8 4-4 4z" /><path class="s0" d="m-223.8 549.4h-19.4c-2.2 0-4-1.8-4-4v-30.8c0-2.2 1.8-4 4-4h19.4c2.2 0 4 1.8 4 4c0 2.2-1.8 4-4 4h-15.4v22.8h15.4c2.2 0 4 1.8 4 4c0 2.2-1.8 4-4 4z" /><path class="s0" d="m-186.3 549.4h-19.4c-2.3 0-4-1.8-4-4v-30.8c0-2.2 1.7-4 4-4c2.2 0 4 1.8 4 4v26.8h15.4c2.2 0 4 1.8 4 4c0 2.2-1.8 4-4 4z" /><path fill-rule="evenodd" class="s1" d="m-147 478.7v102.6h-47.3c-21 9.2-47.7 14.7-76.7 14.7c-29 0-55.7-5.5-76.7-14.7h-47.3v-102.6h47.3c21-9.2 47.7-14.7 76.7-14.7c29 0 55.7 5.5 76.7 14.7zm-17.6 15.7h-40.5c-18.1-6.5-41-10.4-65.8-10.4c-24.9 0-47.8 3.9-65.9 10.4h-40.5v71.2h40.5c18.1 6.5 41 10.4 65.9 10.4c24.8 0 47.7-3.9 65.8-10.4h40.5z" /><path fill-rule="evenodd" class="s0" d="m-271 580c-24.4 0-47.3-3.6-66.5-10.4h-39.8c-2.2 0-4-1.8-4-4v-71.2c0-2.2 1.8-4 4-4h39.8c19.2-6.8 42.1-10.4 66.5-10.4c24.4 0 47.3 3.6 66.5 10.4h39.8c2.2 0 4 1.8 4 4v71.2c0 2.2-1.8 4-4 4h-39.8c-19.2 6.8-42.1 10.4-66.5 10.4zm-102.3-18.4h36.5q0.7 0 1.3 0.2c18.2 6.6 41.1 10.2 64.5 10.2c23.4 0 46.3-3.6 64.5-10.2q0.6-0.2 1.3-0.2h36.5v-63.2h-36.5q-0.7 0-1.3-0.2c-18.2-6.6-41.1-10.2-64.5-10.2c-23.4 0-46.3 3.6-64.5 10.2q-0.6 0.2-1.3 0.2h-36.5z" /><path fill-rule="evenodd" class="s0" d="m438.6-592.4q-0.4 0-0.7 0c-11.4-2.2-31.8-8.9-35.8-20.9c-3.4-10 2.2-14.5 5.9-16.4q0.4-0.1 0.7-0.2c4.4-1.2 11-2.6 17.7-2.6c13.5 0 19.4 5.7 22 10.5c0.6 1 0.7 2.2 0.3 3.3c-0.5 1.1-1.3 2-2.5 2.4l-6.9 2.4c-1.2 0.4-1.8 1.8-1.4 3l4.4 12.9q0.3 0.7 0.3 1.6c0 2.2-1.8 4-4 4q0 0 0 0zm-27.4-29.9c-1.8 1-3 2.2-1.6 6.4c1.9 5.6 12.2 10.9 22.9 14l-2.2-6.4c-1.8-5.4 1.1-11.3 6.4-13.2l1.2-0.4q-4.1-2.6-11.5-2.6c-5.9 0-11.9 1.3-15.2 2.2z" /><path fill-rule="evenodd" class="s0" d="m475.6-591.9c-2.5 0-5-0.3-7.4-0.8c-5.1-1-9.8-3.2-13.8-6.3c-5.5-4.2-9.7-10.2-12.1-17.3q-0.4-1-0.9-1.8c-2.3-4.3-7.3-6.4-15-6.4c-6.1 0-12.4 1.4-15.5 2.3c-2 0.5-4.1-0.5-4.8-2.4c-0.8-1.9 0-4.1 1.8-5q1.1-0.6 2.6-1.1l196.6-68.4q3-1 5.7-1c3.3 0 9.2 1.2 12.1 9.8l11.2 33c2.6 7.6 0.6 11.5-6.8 14.1l-141.6 49.3c-0.6 0.2-1.3 0.4-2 0.6c-3.3 0.9-6.7 1.4-10.1 1.4zm-39.2-39.3c6.6 1.9 10.2 5.8 12 9.2c0.6 0.9 1 2 1.4 3.2c2 5.6 5.1 10.2 9.4 13.5c3.1 2.4 6.7 4 10.6 4.8c4.5 1 9.3 0.8 13.7-0.5q0.1 0 0.1-0.1c0.4-0.1 0.9-0.2 1.4-0.4l141.6-49.2c1.7-0.6 2.4-1 2.6-1.2c0-0.3-0.1-1.1-0.7-2.8l-11.2-33.1c-1.5-4.3-3.6-4.3-4.5-4.3q-1.3 0-3.1 0.6z" /><path fill-rule="evenodd" class="s0" d="m455.8-555c-4.4 0-8.3-2.8-9.8-7l-15.7-46.3c-1.8-5.4 1.1-11.3 6.4-13.2l6.9-2.4c1.8-0.6 3.9 0.1 4.8 1.8q0.8 1.5 1.4 3.3c2 5.6 5.1 10.2 9.4 13.5c1.8 1.3 2.1 3.8 0.9 5.5c-0.9 1.2-1.2 4.1-0.2 7.2c1.2 3.6 3.6 5.5 4.8 5.5q0.1 0 0.2 0c0.8-0.3 2-3.3 0.6-7.5q-0.1-0.2-0.1-0.3c-0.7-1.4-0.5-3 0.5-4.2c0.9-1.2 2.4-1.7 3.9-1.4c4.5 1 9.3 0.8 13.7-0.5c2.1-0.6 4.2 0.5 4.9 2.5l6.6 19.6c1.9 5.3-1 11.2-6.3 13.1l-29.6 10.3q-1.6 0.5-3.3 0.5zm-13.1-60.1l-3.4 1.2c-1.2 0.4-1.8 1.8-1.4 3l15.7 46.4c0.4 1.1 1.7 1.8 2.9 1.4l29.5-10.3c1.2-0.4 1.9-1.7 1.5-3l-5.5-16.1q-3.2 0.6-6.4 0.6q-0.8 0-1.5 0c0.3 5.8-2.1 10.8-6.6 12.4q-1.4 0.4-2.8 0.4c-5.2 0-10.1-4.4-12.4-11c-1.3-3.8-1.4-7.7-0.4-11c-4-3.7-7.2-8.5-9.2-14z" /><path fill-rule="evenodd" class="s0" d="m487.4-565.6c-1.7 0-3.2-1-3.8-2.7c-0.7-2 0.4-4.3 2.4-5.1c1.2-0.4 1.9-1.8 1.5-3l-6.7-19.5c-0.3-1-0.2-2.2 0.3-3.2c0.5-0.9 1.4-1.7 2.5-1.9q0.7-0.2 1.4-0.5l138.4-48.1c1.1-0.4 2.2-0.3 3.1 0.1c1 0.5 1.7 1.3 2.1 2.4l6.6 19.4c1.8 5.4-1.1 11.3-6.4 13.2l-140.1 48.7q0 0 0 0q-0.7 0.2-1.3 0.2zm2.3-29l5.3 15.7q0.4 1.1 0.5 2.2l130.6-45.4c1.2-0.4 1.9-1.8 1.5-3l-5.3-15.7z" /><path fill-rule="evenodd" class="s0" d="m464.7-579.1c-5.2 0-10.1-4.4-12.4-11c-1.8-5.3-1.3-10.8 1.3-14.4c0.6-0.9 1.6-1.4 2.6-1.6c1.1-0.2 2.2 0.1 3.1 0.8c3 2.4 6.6 4 10.5 4.8c1.2 0.3 2.3 1.1 2.8 2.2q0.2 0.5 0.4 1.1c2.7 7.9 0.3 15.7-5.5 17.7q-1.4 0.4-2.8 0.4zm-5.4-16.7c0 1 0.2 2 0.6 3.2c1.2 3.6 3.6 5.5 4.8 5.5q0.1 0 0.2 0c0.7-0.2 1.7-2.6 0.9-6.1q-3.4-1-6.5-2.6z" /><path fill-rule="evenodd" class="s0" d="m653-527.9h-33c-2.2 0-4-1.8-4-4v-46.1c0-2.2 1.8-4 4-4h33c2.2 0 4 1.8 4 4v46.1c0 2.2-1.8 4-4 4zm-29-8h25v-38.1h-25z" /><path fill-rule="evenodd" class="s0" d="m620-553.6h-22c-2.2 0-4-1.8-4-4v-20.4c0-2.2 1.8-4 4-4h22c2.2 0 4 1.8 4 4v20.4c0 2.2-1.8 4-4 4zm-18-8h14v-12.4h-14z" /><path fill-rule="evenodd" class="s0" d="m562.7-566.3c-8.6 0-19.6-5.4-24.8-20.9c-0.7-2.1 0.4-4.3 2.4-5l37.8-13.2c1-0.3 2.1-0.3 3.1 0.2c0.9 0.5 1.6 1.3 2 2.3c3.5 10.4 2.6 20-2.4 27.2c-4.2 5.9-11 9.4-18.1 9.4zm-15.8-19.8c3.6 7.5 9.3 11.8 15.8 11.8c4.6 0 8.8-2.2 11.5-6c3-4.2 3.8-9.8 2.5-16.1z" /><path class="s0" d="m564.6-579.1c-1.7 0-3.3-1.1-3.8-2.8l-0.4-0.9c-0.7-2.1 0.5-4.4 2.5-5.1c2.1-0.7 4.4 0.4 5.1 2.5l0.3 1c0.8 2.1-0.4 4.3-2.5 5.1q-0.6 0.2-1.2 0.2z" /><path class="s0" d="m598-562.6c-0.7 0-1.3-0.1-2-0.5l-20.4-11.4c-2-1.1-2.7-3.5-1.6-5.5c1.1-1.9 3.5-2.6 5.5-1.5l20.5 11.5c1.9 1 2.6 3.5 1.5 5.4c-0.7 1.3-2.1 2-3.5 2z" /><path fill-rule="evenodd" class="s0" d="m558.1-137.4h-57.8c-1.2 0-2.3-0.5-3.1-1.4c-0.7-0.9-1.1-2.2-0.8-3.3q0.3-1.7 0.3-3.5c0-10.9-8.9-19.7-19.8-19.7q-2.8 0-5.5 0.8c-1.2 0.3-2.5 0.1-3.5-0.7c-1-0.7-1.6-1.9-1.6-3.2q0-19.5-0.2-63.6c0-25 12.2-45.2 33.6-55.3c8.9-4.2 19-6.4 29.3-6.4c10.3 0 20.4 2.2 29.3 6.4c21.4 10.1 33.6 30.3 33.6 55.3v63.6c0 1.2-0.6 2.4-1.6 3.2c-1 0.7-2.3 1-3.5 0.6q-2.6-0.7-5.3-0.7c-10.9 0-19.8 8.8-19.8 19.7q0 1.8 0.3 3.5c0.2 1.1-0.1 2.4-0.8 3.3c-0.8 0.9-1.9 1.4-3.1 1.4zm-53.4-8h49q0-0.1 0-0.2c0-15.3 12.5-27.7 27.8-27.7q1.2 0 2.4 0.1v-58.8c0-29.9-18.2-42.9-29-48c-7.9-3.7-16.8-5.7-25.9-5.7c-9.1 0-18 2-25.9 5.7c-10.8 5.1-29 18.1-29 48q0.1 37.7 0.2 58.8q1.3-0.1 2.6-0.1c15.3 0 27.8 12.4 27.8 27.7q0 0.1 0 0.2z" /><path fill-rule="evenodd" class="s0" d="m500.3-137.4h-14.2c-11.9 0-19.8-13.6-19.8-22.6c0-0.8 0-2.2 0-4.2v-4.2c0-1.8 1.2-3.3 2.9-3.8c2.5-0.7 5.1-1.1 7.7-1.1c15.3 0 27.8 12.4 27.8 27.7q0 2.5-0.5 5c-0.3 1.8-2 3.2-3.9 3.2zm-26-27.7v0.8c0 2 0 3.5 0 4.3c0 5.7 5.4 14.6 11.8 14.6h10.6q0-0.1 0-0.2c0-10.9-8.9-19.7-19.8-19.7q-1.3 0-2.6 0.2z" /><path fill-rule="evenodd" class="s0" d="m572.8-137.4h-14.7c-2 0-3.6-1.4-4-3.2q-0.4-2.5-0.4-5c0-15.3 12.5-27.7 27.8-27.7c2.6 0 5.1 0.3 7.5 1c1.7 0.5 2.9 2.1 2.9 3.9v8.4c0 15-6.4 22.6-19.1 22.6zm-11.1-8h11.1c8.1 0 11.1-3.9 11.1-14.6v-5.2q-1.2-0.1-2.4-0.1c-10.9 0-19.8 8.8-19.8 19.7q0 0.1 0 0.2z" /><path fill-rule="evenodd" class="s0" d="m493.2-118.9c-11.1 0-11.1-11.5-11.1-22.5c0-2.2 1.8-4 4-4h14.2c2.2 0 4 1.8 4 4c0 11 0 22.5-11.1 22.5zm-3.1-18.5c0.2 9.9 1.3 10.5 3.1 10.5c1.8 0 2.9-0.6 3.1-10.5z" /><path fill-rule="evenodd" class="s0" d="m565.7-118.9c-11.1 0-11.1-11.5-11.1-22.5c0-2.2 1.8-4 4-4h14.2c2.2 0 4 1.8 4 4c0 11 0 22.5-11.1 22.5zm-3.1-18.5c0.2 9.9 1.3 10.5 3.1 10.5c1.8 0 2.9-0.6 3.1-10.5z" /><path class="s0" d="m501.4-279.6c-2.2 0-4-1.8-4-4v-63.6c0-2.2 1.8-4 4-4c2.2 0 4 1.8 4 4v63.6c0 2.2-1.8 4-4 4z" /><path fill-rule="evenodd" class="s0" d="m563.5-343.2h-13.9c-2.2 0-4-1.8-4-4v-6.5h-33.2v6.5c0 2.2-1.8 4-4 4h-13.9c-2.2 0-4-1.8-4-4v-23.7c0-2.3 1.8-4 4-4h69c2.2 0 4 1.7 4 4v23.7c0 2.2-1.8 4-4 4zm-9.9-8h5.9v-15.7h-61v15.7h5.9v-6.5c0-2.2 1.8-4 4-4h41.2c2.2 0 4 1.8 4 4z" /><path class="s0" d="m556.6-279.6c-2.2 0-4-1.8-4-4v-63.6c0-2.2 1.8-4 4-4c2.2 0 4 1.8 4 4v63.6c0 2.2-1.8 4-4 4z" /><path class="s0" d="m444.3 138.8c-2.2 0-4-1.8-4-4v-30.9c0-2.2 1.8-4 4-4c2.2 0 4 1.8 4 4v30.9c0 2.2-1.8 4-4 4z" /><path class="s0" d="m463.8 138.8c-2.3 0-4-1.8-4-4v-30.9c0-2.2 1.7-4 4-4c2.2 0 4 1.8 4 4v30.9c0 2.2-1.8 4-4 4z" /><path class="s0" d="m463.8 123.3h-19.5c-2.2 0-4-1.8-4-4c0-2.2 1.8-4 4-4h19.5c2.2 0 4 1.8 4 4c0 2.2-1.8 4-4 4z" /><path fill-rule="evenodd" class="s0" d="m491.5 138.8c-9 0-16.3-8.8-16.3-19.5c0-10.7 7.3-19.4 16.3-19.4c9 0 16.3 8.7 16.3 19.4c0 10.7-7.3 19.5-16.3 19.5zm0-30.9c-4.5 0-8.3 5.2-8.3 11.4c0 6.2 3.8 11.5 8.3 11.5c4.5 0 8.3-5.3 8.3-11.5c0-6.2-3.8-11.4-8.3-11.4z" /><path class="s0" d="m529 138.8c-2.2 0-4-1.8-4-4v-26.9h-5.7c-2.2 0-4-1.8-4-4c0-2.2 1.8-4 4-4h19.4c2.2 0 4 1.8 4 4c0 2.2-1.8 4-4 4h-5.7v26.9c0 2.2-1.8 4-4 4z" /><path class="s0" d="m576.2 123.3h-19.4c-2.2 0-4-1.8-4-4c0-2.2 1.8-4 4-4h19.4c2.2 0 4 1.8 4 4c0 2.2-1.8 4-4 4z" /><path class="s0" d="m576.2 138.8h-19.4c-2.2 0-4-1.8-4-4v-30.9c0-2.2 1.8-4 4-4h19.4c2.2 0 4 1.8 4 4c0 2.2-1.8 4-4 4h-15.4v22.9h15.4c2.2 0 4 1.8 4 4c0 2.2-1.8 4-4 4z" /><path class="s0" d="m613.7 138.8h-19.4c-2.3 0-4-1.8-4-4v-30.9c0-2.2 1.7-4 4-4c2.2 0 4 1.8 4 4v26.9h15.4c2.2 0 4 1.8 4 4c0 2.2-1.8 4-4 4z" /><path fill-rule="evenodd" class="s1" d="m653 68v102.6h-47.3c-21 9.3-47.7 14.8-76.7 14.8c-29 0-55.7-5.5-76.7-14.8h-47.3v-102.6h47.3c21-9.2 47.7-14.7 76.7-14.7c29 0 55.7 5.5 76.7 14.7zm-17.6 15.7h-40.5c-18.1-6.5-41-10.3-65.8-10.3c-24.9 0-47.8 3.8-65.9 10.3h-40.5v71.2h40.5c18.1 6.5 41 10.4 65.9 10.4c24.8 0 47.7-3.9 65.8-10.4h40.5z" /><path fill-rule="evenodd" class="s0" d="m529 169.3c-24.4 0-47.3-3.6-66.5-10.4h-39.8c-2.2 0-4-1.8-4-4v-71.2c0-2.2 1.8-4 4-4h39.8c19.2-6.8 42.1-10.3 66.5-10.3c24.4 0 47.3 3.5 66.5 10.3h39.8c2.2 0 4 1.8 4 4v71.2c0 2.2-1.8 4-4 4h-39.8c-19.2 6.8-42.1 10.4-66.5 10.4zm-102.3-18.4h36.5q0.7 0 1.3 0.3c18.2 6.5 41.1 10.1 64.5 10.1c23.4 0 46.3-3.6 64.5-10.1q0.6-0.3 1.3-0.3h36.5v-63.2h-36.5q-0.7 0-1.3-0.2c-18.2-6.5-41.1-10.1-64.5-10.1c-23.4 0-46.3 3.6-64.5 10.1q-0.6 0.2-1.3 0.2h-36.5z" /><path fill-rule="evenodd" class="s0" d="m486.5 440.9q-0.9 0-1.7-0.4l-11.2-5.5l-11.2 5.5c-1.3 0.6-2.9 0.5-4.1-0.3c-1.2-0.8-1.8-2.2-1.7-3.7l1.1-12.8l-8.3-8.9c-0.9-1-1.3-2.5-0.8-3.9c0.4-1.4 1.5-2.4 2.9-2.7l12.5-2.7l6.1-10.7c0.7-1.3 2-2.1 3.5-2.1q0 0 0 0c1.5 0 2.8 0.9 3.5 2.1l6 11.3l12.3 2c1.5 0.3 2.7 1.3 3.1 2.8c0.5 1.4 0.1 3-1 4l-8.7 8.7l1.6 12.4q0.1 0.4 0.1 0.9c0 2.2-1.8 4-4 4q0 0 0 0zm-26.4-26.4l4.7 5c0.8 0.9 1.2 2 1.1 3.1l-0.7 7.6l6.6-3.3c1.1-0.5 2.4-0.5 3.5 0l6.3 3.1l-1-7.4c-0.1-1.2 0.3-2.4 1.2-3.3l4.5-4.5l-6.5-1.1c-1.2-0.2-2.3-1-2.9-2.1l-3.5-6.6l-3.4 6c-0.5 1-1.5 1.7-2.6 2z" /><path fill-rule="evenodd" class="s0" d="m597.4 440.9q-0.9 0-1.8-0.4l-11.2-5.5l-11.2 5.5c-1.2 0.6-2.8 0.5-4-0.3c-1.2-0.8-1.8-2.2-1.7-3.7l1.1-12.8l-8.3-8.9c-0.9-1-1.3-2.5-0.8-3.9c0.4-1.4 1.5-2.4 2.9-2.7l12.5-2.7l6.1-10.7c0.7-1.3 2-2.1 3.4-2.1q0.1 0 0.1 0c1.5 0 2.8 0.9 3.5 2.1l6 11.3l12.3 2c1.5 0.3 2.7 1.3 3.1 2.8c0.5 1.4 0.1 3-1 4l-8.7 8.7l1.6 12.4q0.1 0.4 0.1 0.9c0 2.2-1.8 4-4 4q0 0 0 0zm-26.4-26.4l4.7 5c0.8 0.9 1.2 2 1.1 3.1l-0.7 7.6l6.6-3.3c1.1-0.5 2.4-0.5 3.5 0l6.3 3.1l-1-7.4c-0.1-1.2 0.3-2.4 1.2-3.3l4.5-4.5l-6.5-1.1c-1.2-0.2-2.3-1-2.9-2.1l-3.5-6.6l-3.4 6c-0.5 1-1.5 1.7-2.6 2z" /><path fill-rule="evenodd" class="s0" d="m641.7 456.1q-0.9 0-1.8-0.4l-8-4l-8 4c-1.3 0.6-2.9 0.5-4.1-0.3c-1.2-0.8-1.8-2.2-1.7-3.7l0.8-9.3l-5.9-6.3c-1-1.1-1.4-2.6-0.9-4c0.4-1.4 1.5-2.4 3-2.7l8.9-1.9l4.4-7.8c0.7-1.2 2.1-2 3.5-2q0 0 0 0c1.5 0 2.8 0.9 3.5 2.1l4.3 8.1l8.8 1.5c1.5 0.2 2.7 1.3 3.2 2.7c0.5 1.4 0.1 3-1 4.1l-6.2 6.2l1.1 8.8q0.1 0.4 0.1 0.9c0 2.2-1.8 4-4 4q0 0 0 0zm-18.1-20.3l2.4 2.5c0.8 0.8 1.2 1.9 1.1 3.1l-0.4 3.9l3.4-1.6c1.1-0.6 2.4-0.6 3.6 0l3.1 1.5l-0.5-3.8c-0.2-1.2 0.2-2.4 1.1-3.3l2.1-2.1l-3-0.5c-1.3-0.2-2.3-1-2.9-2.1l-1.8-3.4l-1.7 3c-0.6 1-1.5 1.7-2.7 2z" /><path fill-rule="evenodd" class="s0" d="m435.9 456.1q-0.9 0-1.8-0.4l-8-4l-8 4c-1.3 0.6-2.9 0.5-4-0.3c-1.2-0.8-1.9-2.2-1.8-3.7l0.9-9.3l-6-6.3c-1-1.1-1.3-2.6-0.9-4c0.4-1.4 1.6-2.4 3-2.7l8.9-1.9l4.4-7.8c0.7-1.2 2.1-2 3.5-2q0 0 0.1 0c1.4 0 2.8 0.9 3.4 2.1l4.3 8.1l8.9 1.5c1.4 0.2 2.7 1.3 3.1 2.7c0.5 1.4 0.1 3-1 4.1l-6.2 6.2l1.1 8.8q0.1 0.4 0.1 0.9c0 2.2-1.8 4-4 4q0 0 0 0zm-18-20.3l2.3 2.5c0.8 0.8 1.2 1.9 1.1 3.1l-0.4 3.9l3.4-1.6c1.2-0.6 2.5-0.6 3.6 0l3.1 1.5l-0.5-3.8c-0.2-1.2 0.2-2.4 1.1-3.3l2.1-2.1l-3-0.5c-1.3-0.2-2.3-1-2.9-2.1l-1.8-3.4l-1.7 3c-0.6 1-1.5 1.7-2.6 2z" /><path fill-rule="evenodd" class="s0" d="m544.5 430q-0.9 0-1.8-0.4l-13.7-6.7l-13.7 6.7c-1.3 0.6-2.9 0.5-4.1-0.3c-1.1-0.8-1.8-2.2-1.7-3.6l1.4-15.7l-10.1-10.9c-1-1.1-1.4-2.6-0.9-3.9c0.4-1.4 1.5-2.5 3-2.8l15.2-3.2l7.4-13.2c0.7-1.2 2.1-2 3.5-2q0 0 0.1 0c1.4 0 2.7 0.8 3.4 2.1l7.4 13.8l15.1 2.5c1.4 0.3 2.7 1.3 3.1 2.7c0.5 1.5 0.1 3-1 4.1l-10.7 10.6l2 15.3q0.1 0.4 0.1 0.9c0 2.2-1.8 4-4 4q0 0 0 0zm-33.1-31.2l6.6 7c0.8 0.8 1.1 2 1 3.1l-0.9 10.4l9.1-4.5c1.1-0.5 2.5-0.5 3.6 0l8.8 4.3l-1.4-10.2c-0.1-1.3 0.3-2.5 1.2-3.4l6.5-6.5l-9.3-1.5c-1.2-0.2-2.3-1-2.9-2.1l-4.8-9.1l-4.8 8.4c-0.5 1-1.5 1.7-2.6 2z" /><path class="s0" d="m444.3 547.4c-2.2 0-4-1.8-4-4v-30.9c0-2.2 1.8-4 4-4c2.2 0 4 1.8 4 4v30.9c0 2.2-1.8 4-4 4z" /><path class="s0" d="m463.8 547.4c-2.3 0-4-1.8-4-4v-30.9c0-2.2 1.7-4 4-4c2.2 0 4 1.8 4 4v30.9c0 2.2-1.8 4-4 4z" /><path class="s0" d="m463.8 532h-19.5c-2.2 0-4-1.8-4-4c0-2.3 1.8-4 4-4h19.5c2.2 0 4 1.7 4 4c0 2.2-1.8 4-4 4z" /><path fill-rule="evenodd" class="s0" d="m491.5 547.4c-9 0-16.3-8.7-16.3-19.4c0-10.8 7.3-19.5 16.3-19.5c9 0 16.3 8.7 16.3 19.5c0 10.7-7.3 19.4-16.3 19.4zm0-30.9c-4.5 0-8.3 5.3-8.3 11.5c0 6.2 3.8 11.4 8.3 11.4c4.5 0 8.3-5.2 8.3-11.4c0-6.2-3.8-11.5-8.3-11.5z" /><path class="s0" d="m529 547.4c-2.2 0-4-1.8-4-4v-26.9h-5.7c-2.2 0-4-1.8-4-4c0-2.2 1.8-4 4-4h19.4c2.2 0 4 1.8 4 4c0 2.2-1.8 4-4 4h-5.7v26.9c0 2.2-1.8 4-4 4z" /><path class="s0" d="m576.2 532h-19.4c-2.2 0-4-1.8-4-4c0-2.3 1.8-4 4-4h19.4c2.2 0 4 1.7 4 4c0 2.2-1.8 4-4 4z" /><path class="s0" d="m576.2 547.4h-19.4c-2.2 0-4-1.8-4-4v-30.9c0-2.2 1.8-4 4-4h19.4c2.2 0 4 1.8 4 4c0 2.2-1.8 4-4 4h-15.4v22.9h15.4c2.2 0 4 1.8 4 4c0 2.2-1.8 4-4 4z" /><path class="s0" d="m613.7 547.4h-19.4c-2.3 0-4-1.8-4-4v-30.9c0-2.2 1.7-4 4-4c2.2 0 4 1.8 4 4v26.9h15.4c2.2 0 4 1.8 4 4c0 2.2-1.8 4-4 4z" /><path fill-rule="evenodd" class="s1" d="m653 476.6v102.7h-47.3c-21 9.2-47.7 14.7-76.7 14.7c-29 0-55.7-5.5-76.7-14.7h-47.3v-102.7h47.3c21-9.2 47.7-14.7 76.7-14.7c29 0 55.7 5.5 76.7 14.7zm-17.6 15.8h-40.5c-18.1-6.5-41-10.4-65.8-10.4c-24.9 0-47.8 3.9-65.9 10.4h-40.5v71.2h40.5c18.1 6.5 41 10.3 65.9 10.3c24.8 0 47.7-3.8 65.8-10.3h40.5z" /><path fill-rule="evenodd" class="s0" d="m529 577.9c-24.4 0-47.3-3.6-66.5-10.3h-39.8c-2.2 0-4-1.8-4-4v-71.2c0-2.2 1.8-4 4-4h39.8c19.2-6.8 42.1-10.4 66.5-10.4c24.4 0 47.3 3.6 66.5 10.4h39.8c2.2 0 4 1.8 4 4v71.2c0 2.2-1.8 4-4 4h-39.8c-19.2 6.7-42.1 10.3-66.5 10.3zm-102.3-18.3h36.5q0.7 0 1.3 0.2c18.2 6.5 41.1 10.1 64.5 10.1c23.4 0 46.3-3.6 64.5-10.1q0.6-0.2 1.3-0.2h36.5v-63.2h-36.5q-0.7 0-1.3-0.3c-18.2-6.5-41.1-10.1-64.5-10.1c-23.4 0-46.3 3.6-64.5 10.1q-0.6 0.3-1.3 0.3h-36.5z" /><path fill-rule="evenodd" class="s0" d="m22.4-535.8h-17.4c-2.2 0-4-1.8-4-4v-148.4c0-2.2 1.8-3.9 4-4h17.4q0 0 0 0c1 0 2 0.5 2.8 1.2c0.7 0.8 1.2 1.8 1.2 2.8v148.4c0 2.2-1.8 4-4 4zm-13.4-8h9.4v-140.4h-9.4z" /><path fill-rule="evenodd" class="s0" d="m235.6-577.7h-213.2c-2.2 0-4-1.8-4-4v-17.3c0-1.1 0.4-2.1 1.1-2.9c0.8-0.7 1.8-1.1 2.9-1.1h213.2c2.2 0 4 1.8 4 4v17.3c0 2.2-1.8 4-4 4zm-209.2-8h205.2v-9.3h-205.2z" /><path fill-rule="evenodd" class="s0" d="m253-535.8h-17.4c-2.2 0-4-1.8-4-4v-59.2c0-2.2 1.8-4 4-4h17.4c2.2 0 4 1.8 4 4v59.2c0 2.2-1.8 4-4 4zm-13.4-8h9.4v-51.2h-9.4z" /><path fill-rule="evenodd" class="s0" d="m87.2-595q0 0 0 0h-64.8c-2.2 0-4-1.8-4-4v-33.2c0-2.3 1.8-4 4-4c29.4 0 46 7.8 54.7 14.4c10.1 7.6 13.9 16.4 14.1 22.3q0 0.2 0 0.5c0 2.2-1.8 4-4 4zm-60.8-8h55.9c-1.3-3.5-4.2-8-10-12.4c-7.4-5.6-21.2-12.2-45.9-12.8z" /><path fill-rule="evenodd" class="s0" d="m242.1-595q0 0 0 0h-6.5q-0.1 0-0.2 0h-148.2c-2.2 0-4-1.8-4-4c0-3.1-2.3-10-10.9-16.4c-1.4-1.1-1.9-2.9-1.4-4.5c0.6-1.6 2.1-2.7 3.8-2.7h133.8c28.7 0 35.7 15.2 37.4 22.3q0.2 0.6 0.2 1.3c0 2.2-1.8 4-4 4zm-6.2-8h0.4c-3.1-5.3-10.4-11.6-27.8-11.6h-123.8c3.3 4 5.2 8.1 6 11.6h144.9q0.2 0 0.3 0z" /><path fill-rule="evenodd" class="s1" d="m120.9-220.1c-7.3 7.3-16.3 11.9-25.7 13.9c-16 3.3-33.3-1.2-45.7-13.6c-19.6-19.6-19.5-51.6 0.3-71.4c19.8-19.8 51.8-20 71.4-0.3c13.6 13.5 17.7 33.1 12.4 50.4c-2 6.6-5.5 12.8-10.2 18.3q-1.2 1.4-2.5 2.7zm-43.1-43.2c5.2-5.2 5.3-13.7 0.1-18.9c-5.2-5.2-13.7-5.1-19 0.1c-5.2 5.3-5.3 13.7 0 18.9c5.2 5.2 13.6 5.2 18.9-0.1z" /><path fill-rule="evenodd" class="s0" d="m68.2-255.3c-4.6 0-8.9-1.8-12.2-5c-6.7-6.8-6.7-17.8 0.1-24.6c3.3-3.3 7.7-5.2 12.4-5.2c4.6 0 8.9 1.8 12.2 5.1c6.7 6.7 6.7 17.8-0.1 24.6c-3.3 3.3-7.7 5.1-12.4 5.1zm0.3-26.8c-2.6 0-4.9 1-6.7 2.8c-3.7 3.7-3.8 9.7-0.1 13.3c1.7 1.7 4.1 2.7 6.5 2.7c2.6 0 4.9-1 6.7-2.8c3.7-3.7 3.8-9.6 0.1-13.3c-1.7-1.7-4-2.7-6.5-2.7z" /><path fill-rule="evenodd" class="s0" d="m188.4-118.9c-1.1 0-2.1-0.5-2.8-1.2c-0.8-0.8-1.2-1.8-1.2-2.9v-11.5l-13.5 0.1c-1 0-2.1-0.4-2.8-1.2c-0.8-0.7-1.2-1.8-1.2-2.8l0.1-13.7l-13.1 0.1q0 0 0 0c-1.1 0-2.1-0.5-2.8-1.2c-0.8-0.8-1.2-1.8-1.2-2.9l0.1-13.9l-22.5 0.1q0 0 0 0c-1 0-2.1-0.5-2.8-1.2l-32.3-32.3c-1.1-1.1-1.4-2.6-1-4c0.4-1.4 1.6-2.5 3-2.8c9-1.8 17.1-6.2 23.7-12.8q1.2-1.1 2.2-2.4c0.8-0.8 1.8-1.3 2.9-1.4c1.1 0 2.2 0.4 3 1.2l99.6 99.7c1.2 1.1 1.5 2.8 0.9 4.3c-0.6 1.5-2.1 2.5-3.7 2.5l-34.6 0.2q0 0 0 0zm0.1-23.6c1 0 2 0.4 2.8 1.2c0.7 0.7 1.2 1.8 1.2 2.8l-0.1 11.5l21-0.1l-89.9-89.9c-5.9 5.8-12.9 10.1-20.6 12.8l26.3 26.3l24.8-0.1q0 0 0 0c1 0 2.1 0.4 2.8 1.1c0.8 0.8 1.2 1.8 1.2 2.9l-0.1 13.9h13.1c1-0.1 2.1 0.4 2.8 1.2c0.8 0.7 1.2 1.7 1.2 2.8l-0.1 13.7l13.5-0.1q0 0 0.1 0z" /><path fill-rule="evenodd" class="s0" d="m223-119.1c-1 0-2.1-0.4-2.8-1.2l-99.7-99.6c-1.5-1.5-1.5-3.9-0.2-5.5c4.4-5 7.5-10.7 9.5-16.9c0.4-1.4 1.5-2.4 2.8-2.7c1.4-0.4 2.8 0 3.8 1l89.6 89.6c0.7 0.7 1.1 1.8 1.1 2.8l-0.1 28.5c0 1.6-1 3.1-2.5 3.7q-0.7 0.3-1.5 0.3zm-94.3-104l90.4 90.4v-17.2l-83.9-84q-2.6 5.8-6.5 10.8z" /><path fill-rule="evenodd" class="s0" d="m185.5-296.8q-1 0-2.1-0.2l-71.4-15.3c-2.5-0.5-4.7-2-6-4c-1.1-1.8-1.5-4-1.1-6l10.5-46.3c0.8-3.7 4.3-6.3 8.5-6.3q1 0 2.1 0.2l71.4 15.2c2.5 0.6 4.7 2 6 4.1c1.1 1.8 1.5 3.9 1.1 6l-10.5 46.2c-0.8 3.8-4.3 6.4-8.5 6.4zm-72.7-23.8c0 0.1 0.3 0.4 0.9 0.5l71.4 15.3c0.6 0.1 1-0.1 1.1-0.2l10.4-46.1c0-0.1-0.3-0.4-0.9-0.6l-71.4-15.2c-0.6-0.1-1 0.1-1.1 0.2z" /><path class="s0" d="m175.7-327.4q-0.4 0-0.9-0.1l-28.4-6.1c-2.2-0.5-3.5-2.6-3.1-4.8c0.5-2.1 2.6-3.5 4.8-3l28.4 6c2.2 0.5 3.5 2.6 3.1 4.8c-0.4 1.9-2.1 3.2-3.9 3.2z" /><path class="s0" d="m74.5-271.5c-4 0-6.7-1.4-8.5-3c-7-6.1-9.4-15.7-6.7-26.9c2.3-9.4 7.9-19.6 15.9-28.8c15.3-17.5 38.7-30.3 54.1-17c1.7 1.5 1.8 4 0.4 5.7c-1.5 1.6-4 1.8-5.7 0.4c-10.7-9.4-29.6 1.1-42.7 16.2c-7.1 8.1-12.3 17.4-14.2 25.4c-2.1 8.4-0.7 14.8 4.2 19c2 1.8 5.7 0.9 8.4-0.1c2-0.8 4.3 0.2 5.1 2.3c0.8 2.1-0.2 4.4-2.3 5.2c-3.1 1.2-5.7 1.6-8 1.6z" /><path class="s0" d="m110.1-296c-1 0-1.9-0.3-2.7-0.9c-1.6-1.5-1.8-4-0.4-5.7c4-4.5 7.7-9.4 10.6-14c1.2-1.8 3.6-2.4 5.5-1.2c1.9 1.2 2.4 3.7 1.2 5.5c-3.1 5-7 10.1-11.2 15c-0.8 0.9-1.9 1.3-3 1.3z" /><path fill-rule="evenodd" class="s0" d="m43.9 209.2h-25.8c-2.2 0-4-1.8-4-4v-31c0-2.2 1.8-4 4-4h25.8c2.3 0 4 1.8 4 4v31c0 2.2-1.7 4-4 4zm-21.8-8h17.8v-23h-17.8z" /><path fill-rule="evenodd" class="s0" d="m239.9 209.2h-25.8c-2.3 0-4-1.8-4-4v-31c0-2.2 1.7-4 4-4h25.8c2.2 0 4 1.8 4 4v31c0 2.2-1.8 4-4 4zm-21.8-8h17.8v-23h-17.8z" /><path class="s0" d="m63.7 49c-2.3 0-4-1.8-4-4v-23.1c0-2.2 1.7-4 4-4c2.2 0 4 1.8 4 4v23.1c0 2.2-1.8 4-4 4z" /><path class="s0" d="m78.7 49c-2.2 0-4-1.8-4-4v-23.1c0-2.2 1.8-4 4-4c2.2 0 4 1.8 4 4v23.1c0 2.2-1.8 4-4 4z" /><path class="s0" d="m78.7 37.5h-15c-2.3 0-4-1.8-4-4c0-2.2 1.7-4 4-4h15c2.2 0 4 1.8 4 4c0 2.2-1.8 4-4 4z" /><path fill-rule="evenodd" class="s0" d="m100.1 49c-7.5 0-13.5-6.9-13.5-15.5c0-8.6 6-15.6 13.5-15.6c7.4 0 13.5 7 13.5 15.6c0 8.6-6.1 15.5-13.5 15.5zm0-23.1c-3 0-5.5 3.5-5.5 7.6c0 4.1 2.5 7.5 5.5 7.5c2.9 0 5.5-3.4 5.5-7.5c0-4.1-2.6-7.6-5.5-7.6z" /><path class="s0" d="m129 49c-2.2 0-4-1.8-4-4v-19.1h-3.5c-2.2 0-4-1.8-4-4c0-2.2 1.8-4 4-4h15c2.2 0 4 1.8 4 4c0 2.2-1.8 4-4 4h-3.5v19.1c0 2.2-1.8 4-4 4z" /><path class="s0" d="m165.4 37.5h-15c-2.2 0-4-1.8-4-4c0-2.2 1.8-4 4-4h15c2.2 0 4 1.8 4 4c0 2.2-1.8 4-4 4z" /><path class="s0" d="m165.4 49h-15c-2.2 0-4-1.8-4-4v-23.1c0-2.2 1.8-4 4-4h15c2.2 0 4 1.8 4 4c0 2.2-1.8 4-4 4h-11v15.1h11c2.2 0 4 1.8 4 4c0 2.2-1.8 4-4 4z" /><path class="s0" d="m194.3 49h-15c-2.2 0-4-1.8-4-4v-23.1c0-2.2 1.8-4 4-4c2.3 0 4 1.8 4 4v19.1h11c2.3 0 4 1.8 4 4c0 2.2-1.7 4-4 4z" /><path fill-rule="evenodd" class="s1" d="m201 60.6v171.7h-51.4v-45.7h-41.2v45.7h-51.4v-171.7zm-89.3 77.3h-31.1v30.9h31.1zm0-56.1h-31.1v31h31.1zm65.8 56.1h-31.1v31h31.1zm0-56.1h-31.1v31h31.1z" /><path fill-rule="evenodd" class="s0" d="m216.3 64.6h-174.6c-2.2 0-4-1.8-4-4v-54.2c0-2.3 1.8-4 4-4h174.6c2.2 0 4 1.7 4 4v54.2c0 2.2-1.8 4-4 4zm-170.6-8h166.6v-46.2h-166.6z" /><path fill-rule="evenodd" class="s0" d="m149.6 236.3h-41.2c-2.2 0-4-1.8-4-4v-45.7c0-2.2 1.8-4 4-4h41.2c2.2 0 4 1.8 4 4v45.7c0 2.2-1.8 4-4 4zm-37.2-8h33.2v-37.7h-33.2z" /><path fill-rule="evenodd" class="s0" d="m111.6 116.7h-31c-2.2 0-4-1.8-4-4v-31c0-2.2 1.8-4 4-4h31c2.2 0 4 1.8 4 4v31c0 2.2-1.8 4-4 4zm-27-8h23v-23h-23z" /><path fill-rule="evenodd" class="s0" d="m177.4 116.7h-31c-2.2 0-4-1.8-4-4v-31c0-2.2 1.8-4 4-4h31c2.2 0 4 1.8 4 4v31c0 2.2-1.8 4-4 4zm-27-8h23v-23h-23z" /><path fill-rule="evenodd" class="s0" d="m111.6 172.8h-31c-2.2 0-4-1.8-4-4v-30.9c0-2.3 1.8-4 4-4h31c2.2 0 4 1.7 4 4v30.9c0 2.2-1.8 4-4 4zm-27-8h23v-22.9h-23z" /><path fill-rule="evenodd" class="s0" d="m177.4 172.8h-31c-2.2 0-4-1.8-4-4v-30.9c0-2.3 1.8-4 4-4h31c2.2 0 4 1.7 4 4v30.9c0 2.2-1.8 4-4 4zm-27-8h23v-22.9h-23z" /><path fill-rule="evenodd" class="s0" d="m253 236.3h-52c-2.2 0-4-1.8-4-4v-85.8c0-2.2 1.8-4 4-4h52c2.2 0 4 1.8 4 4v85.8c0 2.2-1.8 4-4 4zm-48-8h44v-77.8h-44z" /><path fill-rule="evenodd" class="s0" d="m57 236.3h-52c-2.2 0-4-1.8-4-4v-85.8c0-2.2 1.8-4 4-4h52c2.2 0 4 1.8 4 4v85.8c0 2.2-1.8 4-4 4zm-48-8h44v-77.8h-44z" /><path fill-rule="evenodd" class="s0" d="m51.4 438.6q-0.9 0-1.8-0.4l-11.9-5.9l-11.9 5.9c-1.3 0.6-2.8 0.5-4-0.3c-1.2-0.8-1.9-2.2-1.7-3.6l1.2-13.7l-8.8-9.4c-1-1.1-1.4-2.6-0.9-4c0.4-1.3 1.5-2.4 2.9-2.7l13.3-2.8l6.4-11.4c0.8-1.3 2.1-2.1 3.6-2.1c1.4 0 2.8 0.9 3.5 2.1l6.3 12l13.1 2.2c1.5 0.2 2.7 1.3 3.2 2.7c0.4 1.4 0.1 3-1 4.1l-9.3 9.2l1.7 13.2q0.1 0.4 0.1 0.9c0 2.2-1.8 4-4 4q0 0 0 0zm-28.3-27.7l5.2 5.5c0.8 0.9 1.2 2 1.1 3.1l-0.7 8.4l7.3-3.6c1.1-0.5 2.4-0.5 3.5 0l7 3.4l-1.1-8.1c-0.2-1.3 0.3-2.5 1.2-3.4l5.1-5.1l-7.3-1.2c-1.3-0.2-2.3-1-2.9-2.1l-3.9-7.3l-3.8 6.7c-0.5 1-1.5 1.7-2.6 2z" /><path fill-rule="evenodd" class="s0" d="m112.3 428.1q-1 0-1.8-0.4l-11.9-5.9l-11.9 5.9c-1.3 0.6-2.9 0.5-4.1-0.3c-1.2-0.9-1.8-2.3-1.7-3.7l1.2-13.6l-8.8-9.5c-1-1.1-1.3-2.6-0.9-3.9c0.4-1.4 1.6-2.4 3-2.7l13.2-2.8l6.5-11.5c0.7-1.3 2-2 3.5-2q0 0 0 0c1.5 0 2.8 0.8 3.5 2.1l6.4 12l13.1 2.1c1.5 0.3 2.7 1.3 3.1 2.8c0.5 1.4 0.1 3-1 4l-9.3 9.2l1.8 13.2q0.1 0.5 0.1 1c0 2.2-1.8 4-4 4q0 0 0 0zm-28.3-27.8l5.2 5.6c0.8 0.8 1.1 1.9 1 3.1l-0.7 8.3l7.3-3.6c1.1-0.5 2.4-0.5 3.5 0l7 3.5l-1-8.2c-0.2-1.2 0.2-2.5 1.1-3.4l5.1-5l-7.3-1.2c-1.2-0.2-2.3-1-2.9-2.1l-3.8-7.3l-3.8 6.7c-0.6 1-1.5 1.7-2.7 1.9z" /><path fill-rule="evenodd" class="s0" d="m173.1 428.1q-0.9 0-1.8-0.4l-11.9-5.9l-11.9 5.9c-1.3 0.6-2.8 0.5-4-0.3c-1.2-0.9-1.9-2.3-1.7-3.7l1.2-13.6l-8.8-9.5c-1-1.1-1.4-2.6-0.9-3.9c0.4-1.4 1.5-2.4 2.9-2.7l13.3-2.8l6.4-11.5c0.8-1.3 2.1-2 3.5-2q0.1 0 0.1 0c1.4 0 2.8 0.8 3.5 2.1l6.3 12l13.1 2.1c1.5 0.3 2.7 1.3 3.2 2.8c0.4 1.4 0.1 3-1 4l-9.3 9.2l1.7 13.2q0.1 0.5 0.1 1c0 2.2-1.8 4-4 4q0 0 0 0zm-28.3-27.8l5.2 5.6c0.8 0.8 1.2 1.9 1.1 3.1l-0.7 8.3l7.3-3.6c1.1-0.5 2.4-0.5 3.5 0l7 3.5l-1.1-8.2c-0.2-1.2 0.3-2.5 1.2-3.4l5.1-5l-7.3-1.2c-1.3-0.2-2.3-1-2.9-2.1l-3.9-7.3l-3.8 6.7c-0.5 1-1.5 1.7-2.6 1.9z" /><path fill-rule="evenodd" class="s0" d="m234 438.6q-1 0-1.8-0.4l-11.9-5.9l-11.9 5.9c-1.3 0.6-2.9 0.5-4.1-0.3c-1.2-0.8-1.8-2.2-1.7-3.6l1.2-13.7l-8.8-9.4c-1-1.1-1.3-2.6-0.9-4c0.4-1.3 1.6-2.4 3-2.7l13.2-2.8l6.5-11.4c0.7-1.3 2.1-2.1 3.5-2.1c1.5 0 2.8 0.9 3.5 2.1l6.4 12l13.1 2.2c1.5 0.2 2.7 1.3 3.1 2.7c0.5 1.4 0.1 3-1 4.1l-9.3 9.2l1.8 13.2q0.1 0.4 0.1 0.9c0 2.2-1.8 4-4 4q0 0 0 0zm-28.3-27.7l5.2 5.5c0.8 0.9 1.1 2 1 3.1l-0.7 8.4l7.3-3.6c1.1-0.5 2.4-0.5 3.5 0l7 3.4l-1-8.1c-0.2-1.3 0.2-2.5 1.1-3.4l5.1-5.1l-7.3-1.2c-1.2-0.2-2.3-1-2.9-2.1l-3.8-7.3l-3.8 6.7c-0.6 1-1.5 1.7-2.7 2z" /><path class="s0" d="m44.3 543.7c-2.2 0-4-1.8-4-4v-30.8c0-2.2 1.8-4 4-4c2.2 0 4 1.8 4 4v30.8c0 2.2-1.8 4-4 4z" /><path class="s0" d="m63.8 543.7c-2.3 0-4-1.8-4-4v-30.8c0-2.2 1.7-4 4-4c2.2 0 4 1.8 4 4v30.8c0 2.2-1.8 4-4 4z" /><path class="s0" d="m63.8 528.3h-19.5c-2.2 0-4-1.8-4-4c0-2.2 1.8-4 4-4h19.5c2.2 0 4 1.8 4 4c0 2.2-1.8 4-4 4z" /><path fill-rule="evenodd" class="s0" d="m91.5 543.7c-9 0-16.3-8.7-16.3-19.4c0-10.7 7.3-19.4 16.3-19.4c9 0 16.3 8.7 16.3 19.4c0 10.7-7.3 19.4-16.3 19.4zm0-30.8c-4.5 0-8.3 5.2-8.3 11.4c0 6.2 3.8 11.4 8.3 11.4c4.5 0 8.3-5.2 8.3-11.4c0-6.2-3.8-11.4-8.3-11.4z" /><path class="s0" d="m129 543.7c-2.2 0-4-1.8-4-4v-26.8h-5.7c-2.2 0-4-1.8-4-4c0-2.2 1.8-4 4-4h19.4c2.2 0 4 1.8 4 4c0 2.2-1.8 4-4 4h-5.7v26.8c0 2.2-1.8 4-4 4z" /><path class="s0" d="m176.2 528.3h-19.4c-2.2 0-4-1.8-4-4c0-2.2 1.8-4 4-4h19.4c2.2 0 4 1.8 4 4c0 2.2-1.8 4-4 4z" /><path class="s0" d="m176.2 543.7h-19.4c-2.2 0-4-1.8-4-4v-30.8c0-2.2 1.8-4 4-4h19.4c2.2 0 4 1.8 4 4c0 2.2-1.8 4-4 4h-15.4v22.8h15.4c2.2 0 4 1.8 4 4c0 2.2-1.8 4-4 4z" /><path class="s0" d="m213.7 543.7h-19.4c-2.3 0-4-1.8-4-4v-30.8c0-2.2 1.7-4 4-4c2.2 0 4 1.8 4 4v26.8h15.4c2.2 0 4 1.8 4 4c0 2.2-1.8 4-4 4z" /><path fill-rule="evenodd" class="s1" d="m253 473v102.6h-47.3c-21 9.2-47.7 14.7-76.7 14.7c-29 0-55.7-5.5-76.7-14.7h-47.3v-102.6h47.3c21-9.3 47.7-14.7 76.7-14.7c29 0 55.7 5.4 76.7 14.7zm-17.6 15.7h-40.5c-18.1-6.5-41-10.4-65.8-10.4c-24.9 0-47.8 3.9-65.9 10.4h-40.5v71.2h40.5c18.1 6.5 41 10.4 65.9 10.4c24.8 0 47.7-3.9 65.8-10.4h40.5z" /><path fill-rule="evenodd" class="s0" d="m129 574.3c-24.4 0-47.3-3.6-66.5-10.4h-39.8c-2.2 0-4-1.8-4-4v-71.2c0-2.2 1.8-4 4-4h39.8c19.2-6.8 42.1-10.4 66.5-10.4c24.4 0 47.3 3.6 66.5 10.4h39.8c2.2 0 4 1.8 4 4v71.2c0 2.2-1.8 4-4 4h-39.8c-19.2 6.8-42.1 10.4-66.5 10.4zm-102.3-18.4h36.5q0.7 0 1.3 0.2c18.2 6.6 41.1 10.2 64.5 10.2c23.4 0 46.3-3.6 64.5-10.2q0.6-0.2 1.3-0.2h36.5v-63.2h-36.5q-0.7 0-1.3-0.2c-18.2-6.6-41.1-10.2-64.5-10.2c-23.4 0-46.3 3.6-64.5 10.2q-0.6 0.2-1.3 0.2h-36.5z" /></svg>