<svg version="1.2" xmlns="http://www.w3.org/2000/svg" viewBox="0 0 775 537" width="775" height="537"><style>.s0{fill:#d1be9d}</style><path fill-rule="evenodd" class="s0" d="m205.5 329.9q-1.7 0-3.3-0.5l-185.5-53.9c-5.1-1.4-8.6-6-8.7-11.2c-0.1-5.3 3.2-10 8.1-11.7l744-253.4c5.9-2 12.4 0.9 14.9 6.5c2.5 5.7 0.2 12.4-5.2 15.4l-558.5 307.3c-1.8 1-3.8 1.5-5.8 1.5zm-145.6-66.8l144.2 41.9l434.1-238.9z" /><path fill-rule="evenodd" class="s0" d="m567.6 454.1c-2.9 0-5.7-1-8-3l-50.1-44.5l-54.5 44.6c-4.4 3.7-10.8 3.6-15.2 0l-120.1-99.7c-2.8-2.3-4.4-5.8-4.3-9.5c0.1-3.7 1.8-7.1 4.7-9.3l436.6-331.7c4.4-3.3 10.5-3.2 14.8 0.2c4.3 3.5 5.7 9.4 3.4 14.4l-1.6 3.5c-113.1 244.7-188.8 410.9-193.9 425.5c-0.7 3.2-2.7 6.1-5.6 7.8c-2 1.2-4.1 1.7-6.2 1.7zm-220.9-111.4l100.8 83.7l54.8-44.9c4.5-3.7 11.1-3.6 15.5 0.4l45 39.9c4.3-9.9 10.9-24.7 21.2-47.5c14.9-33.2 36-79.4 62.6-137.4c30.9-67.4 63.1-137.3 86.3-187.6z" /><path fill-rule="evenodd" class="s0" d="m538.3 456.1c-35.4 0-90.8-2.1-91.3-2.2c-5-0.2-9.4-3.4-10.9-8.1c-1.6-4.8-0.1-10 3.7-13.1l62.5-51.2c4.5-3.7 11.1-3.6 15.5 0.4l57.8 51.3c1.8 1.6 3.1 3.8 3.7 6.2c0.8 3.6-0.1 7.6-2.4 10.4c-4 5.2-8.1 6.3-38.6 6.3zm-58.6-25.1c18.2 0.6 41 1.1 58.6 1.1l-28.8-25.5z" /><path fill-rule="evenodd" class="s0" d="m241.6 529.4q-0.8 0-1.6-0.1c-5.2-0.7-9.3-4.7-10.2-9.8l-36.1-199.5c-0.9-5.1 1.5-10.1 6-12.6l558.5-307.3c5.5-3.1 12.4-1.3 15.9 4c3.4 5.2 2.2 12.2-2.8 16l-434.4 330l-84.5 172.6c-2 4.1-6.2 6.7-10.8 6.7zm-22.7-205.2l28 155.1l69.7-142.3c0.8-1.7 2.1-3.2 3.5-4.3l306.6-232.8z" /><path fill-rule="evenodd" class="s0" d="m241.6 529.4c-2.4 0-4.9-0.7-7-2.3c-4.7-3.4-6.3-9.7-3.8-15l85.8-175.1c1.6-3.3 4.7-5.7 8.3-6.5c3.6-0.7 7.3 0.2 10.2 2.5l50.2 41.7c2.6 2.2 4.2 5.4 4.3 8.8c0.2 3.4-1.2 6.7-3.6 9l-136 133.5c-2.3 2.2-5.3 3.4-8.4 3.4zm89.9-168.2l-48.3 98.6l76.5-75.1z" /></svg>