<svg version="1.2" baseProfile="tiny-ps" xmlns="http://www.w3.org/2000/svg" viewBox="0 0 3630 913" width="3630" height="913">
	<title>AdobeStock_288659315-ai</title>
	<style>
		tspan { white-space:pre }
		.s0 { fill: #ffffff } 
	</style>
	<g id="Layer 1">
		<g id="&lt;Group&gt;">
			<path id="&lt;Compound Path&gt;" class="s0" d="m1118.25 883.03c-0.03 0-0.06 0-0.1 0c-10.57-0.14-21.3-0.44-31.89-0.89c-3.86-0.16-6.86-3.43-6.7-7.29c0.16-3.86 3.44-6.85 7.29-6.7c10.45 0.45 21.04 0.74 31.48 0.88c3.87 0.05 6.96 3.23 6.91 7.09c-0.05 3.84-3.18 6.91-7 6.91zm41.34-0.26c-3.79 0-6.9-3.02-7-6.82c-0.1-3.87 2.95-7.08 6.82-7.18c10.46-0.27 21.04-0.7 31.46-1.28c3.86-0.23 7.17 2.74 7.38 6.6c0.21 3.86-2.74 7.17-6.6 7.38c-10.56 0.59-21.28 1.02-31.88 1.29c-0.06 0-0.12 0-0.18 0zm-114.28-3.17c-0.19 0-0.38-0.01-0.57-0.02c-10.51-0.85-21.19-1.86-31.75-3.02c-3.84-0.42-6.62-3.88-6.2-7.72c0.42-3.84 3.87-6.62 7.72-6.2c10.43 1.14 20.98 2.14 31.35 2.98c3.86 0.31 6.73 3.69 6.42 7.54c-0.29 3.66-3.36 6.44-6.97 6.44zm187.18-1.21c-3.57 0-6.62-2.72-6.96-6.34c-0.37-3.85 2.46-7.27 6.31-7.63c10.42-0.99 20.95-2.15 31.3-3.45c3.84-0.48 7.34 2.24 7.82 6.08c0.48 3.84-2.24 7.34-6.08 7.82c-10.48 1.32-21.16 2.49-31.72 3.5c-0.23 0.02-0.45 0.03-0.67 0.03zm-259.74-7.04c-0.34 0-0.68-0.02-1.03-0.08c-10.44-1.54-21.03-3.24-31.48-5.08c-3.81-0.67-6.35-4.3-5.69-8.11c0.67-3.81 4.3-6.36 8.11-5.69c10.32 1.81 20.79 3.5 31.1 5.02c3.83 0.56 6.47 4.12 5.91 7.95c-0.51 3.48-3.5 5.99-6.92 5.99zm332.16-2.38c-3.36 0-6.33-2.43-6.9-5.86c-0.63-3.82 1.95-7.42 5.76-8.05c10.3-1.71 20.73-3.6 30.98-5.62c3.8-0.75 7.48 1.72 8.22 5.52c0.75 3.79-1.72 7.48-5.52 8.22c-10.39 2.05-20.95 3.96-31.4 5.69c-0.39 0.06-0.77 0.1-1.15 0.1zm800.08-2.58c-3.8 0-6.92-3.04-7-6.86c-0.08-3.87 2.99-7.07 6.86-7.14c10.48-0.21 21.05-0.64 31.41-1.25c3.84-0.24 7.18 2.72 7.4 6.58c0.23 3.86-2.72 7.18-6.58 7.4c-10.54 0.63-21.29 1.05-31.95 1.27c-0.05 0-0.1 0-0.15 0zm-41.34-0.16c-0.07 0-0.13 0-0.2 0c-10.54-0.29-21.28-0.79-31.94-1.47c-3.86-0.25-6.79-3.58-6.54-7.43c0.25-3.86 3.56-6.77 7.43-6.54c10.49 0.67 21.07 1.16 31.44 1.44c3.87 0.11 6.91 3.33 6.8 7.19c-0.11 3.8-3.22 6.81-7 6.81zm114.21-4.61c-3.52 0-6.55-2.65-6.95-6.23c-0.43-3.84 2.34-7.31 6.18-7.74c10.41-1.17 20.89-2.56 31.14-4.13c3.83-0.59 7.4 2.03 7.99 5.85c0.59 3.82-2.03 7.4-5.85 7.99c-10.44 1.61-21.11 3.02-31.71 4.21c-0.26 0.03-0.53 0.04-0.79 0.04zm-187.14-0.41c-0.25 0-0.51-0.01-0.77-0.04c-10.49-1.15-21.17-2.49-31.73-4c-3.83-0.55-6.49-4.1-5.94-7.92c0.55-3.83 4.1-6.49 7.92-5.94c10.41 1.49 20.93 2.82 31.26 3.94c3.84 0.42 6.62 3.88 6.2 7.72c-0.39 3.59-3.43 6.24-6.95 6.24zm-1089.84-2.8c-0.49 0-0.98-0.05-1.47-0.16c-10.14-2.17-20.59-4.56-31.06-7.09c-3.76-0.91-6.07-4.69-5.16-8.45c0.91-3.76 4.69-6.07 8.45-5.16c10.35 2.5 20.68 4.86 30.71 7c3.78 0.81 6.19 4.53 5.38 8.31c-0.7 3.29-3.61 5.54-6.84 5.54zm475.63-3.86c-3.17 0-6.04-2.17-6.81-5.38c-0.9-3.76 1.43-7.54 5.19-8.43c10.16-2.42 20.43-5.02 30.52-7.74c3.73-1 7.58 1.2 8.58 4.94c1.01 3.73-1.2 7.58-4.94 8.58c-10.22 2.76-20.63 5.39-30.93 7.84c-0.54 0.13-1.09 0.19-1.63 0.19zm541.88-4.03c-0.43 0-0.86-0.04-1.29-0.12c-10.37-1.93-20.91-4.06-31.32-6.34c-3.78-0.83-6.17-4.56-5.35-8.34c0.82-3.78 4.55-6.17 8.34-5.35c10.26 2.24 20.66 4.35 30.89 6.25c3.8 0.71 6.31 4.36 5.6 8.17c-0.63 3.37-3.57 5.72-6.88 5.72zm331.58-0.49c-3.24 0-6.15-2.26-6.84-5.55c-0.8-3.78 1.62-7.5 5.4-8.3c10.24-2.17 20.52-4.59 30.55-7.18c3.75-0.97 7.57 1.28 8.53 5.02c0.97 3.74-1.28 7.57-5.02 8.53c-10.23 2.65-20.71 5.11-31.16 7.33c-0.49 0.1-0.98 0.15-1.46 0.15zm-1420-8.99c-0.61 0-1.23-0.08-1.85-0.25c-9.95-2.72-20.25-5.65-30.64-8.71c-3.71-1.09-5.83-4.99-4.74-8.7c1.09-3.71 4.99-5.83 8.7-4.74c10.3 3.03 20.52 5.94 30.38 8.64c3.73 1.02 5.93 4.87 4.91 8.6c-0.85 3.11-3.67 5.16-6.75 5.16zm616.98-5.81c-2.98 0-5.75-1.92-6.68-4.92c-1.15-3.69 0.91-7.62 4.61-8.77c9.95-3.1 20.02-6.39 29.93-9.8c3.66-1.26 7.64 0.69 8.9 4.35c1.26 3.66-0.69 7.64-4.35 8.9c-10.04 3.45-20.24 6.79-30.32 9.92c-0.69 0.22-1.39 0.32-2.08 0.32zm400.11-0.65c-0.59 0-1.18-0.07-1.77-0.23c-10.21-2.66-20.56-5.52-30.76-8.5c-3.71-1.09-5.84-4.97-4.76-8.69c1.09-3.71 4.97-5.84 8.69-4.76c10.07 2.94 20.29 5.77 30.36 8.39c3.74 0.97 5.99 4.8 5.01 8.54c-0.82 3.15-3.66 5.24-6.77 5.24zm473.55-3.1c-3.02 0-5.8-1.97-6.71-5.01c-1.1-3.71 1.01-7.61 4.71-8.71c10.18-3.03 20.35-6.13 30.22-9.2c3.7-1.15 7.62 0.91 8.77 4.6c1.15 3.69-0.91 7.62-4.6 8.77c-9.93 3.09-20.16 6.21-30.39 9.25c-0.67 0.2-1.34 0.29-2 0.29zm-1560.7-11.24c-0.7 0-1.42-0.11-2.12-0.33c-9.67-3.07-19.85-6.38-30.27-9.83c-3.67-1.22-5.66-5.18-4.44-8.85c1.22-3.67 5.18-5.66 8.85-4.45c10.37 3.43 20.5 6.72 30.11 9.77c3.69 1.17 5.73 5.11 4.56 8.79c-0.95 2.98-3.7 4.89-6.67 4.89zm1017.12-6.45c-0.73 0-1.48-0.12-2.22-0.36c-10.01-3.34-20.14-6.88-30.09-10.52c-3.63-1.33-5.5-5.35-4.17-8.98c1.33-3.63 5.35-5.5 8.98-4.17c9.83 3.59 19.83 7.09 29.71 10.39c3.67 1.22 5.65 5.19 4.43 8.86c-0.98 2.93-3.71 4.79-6.64 4.79zm-261.11-2.58c-2.81 0-5.46-1.7-6.53-4.48c-1.39-3.61 0.4-7.66 4.01-9.05c9.73-3.75 19.56-7.71 29.23-11.75c3.56-1.49 7.67 0.19 9.16 3.76c1.49 3.57-0.19 7.67-3.76 9.16c-9.79 4.1-19.74 8.1-29.59 11.9c-0.83 0.32-1.68 0.47-2.52 0.47zm874.34-1.57c-2.94 0-5.68-1.87-6.65-4.81c-1.21-3.67 0.78-7.63 4.45-8.84c10.03-3.31 20.1-6.71 29.92-10.11c3.66-1.27 7.64 0.67 8.91 4.33c1.26 3.66-0.67 7.64-4.33 8.91c-9.88 3.42-20.01 6.84-30.1 10.17c-0.73 0.24-1.47 0.36-2.2 0.36zm-1699.74-12.47c-0.76 0-1.53-0.12-2.28-0.38c-9.3-3.21-19.12-6.63-30.03-10.46c-3.65-1.28-5.57-5.28-4.29-8.93c1.28-3.65 5.28-5.57 8.93-4.29c10.88 3.82 20.68 7.23 29.95 10.43c3.66 1.26 5.6 5.25 4.34 8.9c-1 2.9-3.71 4.72-6.62 4.72zm1018.08-8.73c-0.88 0-1.77-0.17-2.64-0.52c-9.77-3.98-19.63-8.16-29.31-12.42c-3.54-1.56-5.15-5.69-3.59-9.23c1.56-3.54 5.69-5.15 9.23-3.59c9.56 4.21 19.3 8.34 28.95 12.27c3.58 1.46 5.3 5.55 3.84 9.13c-1.11 2.71-3.73 4.36-6.49 4.36zm750.59-2.81c-2.85 0-5.53-1.76-6.57-4.59c-1.33-3.63 0.53-7.66 4.16-8.99c9.93-3.65 19.87-7.39 29.55-11.12c3.61-1.39 7.66 0.41 9.05 4.02c1.39 3.61-0.41 7.66-4.02 9.05c-9.75 3.75-19.76 7.52-29.75 11.19c-0.8 0.29-1.61 0.43-2.41 0.43zm-876.01-2.89c-2.65 0-5.18-1.51-6.36-4.07c-1.62-3.51-0.09-7.67 3.42-9.29c9.45-4.36 19.02-8.93 28.43-13.59c3.47-1.71 7.67-0.29 9.38 3.17c1.71 3.47 0.29 7.67-3.17 9.38c-9.52 4.71-19.2 9.34-28.77 13.75c-0.95 0.44-1.95 0.65-2.93 0.65zm-961.68-9.8c-0.78 0-1.57-0.13-2.34-0.41l-7.24-2.57c-7.53-2.67-15.07-5.35-22.63-8.04c-3.65-1.29-5.55-5.29-4.26-8.94c1.29-3.65 5.3-5.55 8.94-4.26c7.57 2.68 15.11 5.36 22.64 8.04l7.23 2.57c3.64 1.29 5.55 5.3 4.26 8.94c-1.02 2.87-3.72 4.66-6.6 4.66zm1905.72-13.72c-2.76 0-5.37-1.64-6.48-4.35c-1.47-3.58 0.24-7.67 3.82-9.14c9.79-4.02 19.57-8.13 29.08-12.23c3.55-1.53 7.67 0.11 9.2 3.66c1.53 3.55-0.11 7.67-3.66 9.2c-9.59 4.13-19.45 8.28-29.31 12.33c-0.87 0.36-1.77 0.53-2.66 0.53zm-885.31-0.46c-1.02 0-2.06-0.23-3.05-0.7c-9.53-4.61-19.13-9.42-28.53-14.3c-3.43-1.78-4.77-6.01-2.99-9.44c1.78-3.43 6.01-4.77 9.44-2.99c8.15 4.23 16.46 8.41 24.74 12.45c-0.26-2.72 1.09-5.46 3.65-6.84c9.17-4.93 18.44-10.08 27.56-15.29c3.36-1.92 7.64-0.75 9.56 2.6c1.92 3.36 0.75 7.64-2.6 9.56c-9.22 5.27-18.6 10.47-27.87 15.46c-0.99 0.53-2.04 0.8-3.09 0.83c0.37 1.52 0.23 3.18-0.5 4.7c-1.21 2.5-3.71 3.95-6.31 3.95zm-1089.29-10.17c-0.77 0-1.55-0.13-2.31-0.39c-10.74-3.75-20.53-7.14-29.91-10.36c-3.66-1.25-5.61-5.23-4.36-8.89c1.25-3.66 5.23-5.61 8.89-4.36c9.41 3.22 19.23 6.62 30 10.38c3.65 1.28 5.58 5.27 4.3 8.92c-1.01 2.89-3.72 4.69-6.61 4.69zm2041.52-18.44c-2.65 0-5.19-1.51-6.37-4.08c-1.62-3.51-0.08-7.67 3.44-9.29c9.58-4.41 19.18-8.93 28.52-13.45c3.48-1.68 7.67-0.23 9.35 3.26c1.68 3.48 0.23 7.67-3.26 9.35c-9.42 4.56-19.1 9.12-28.77 13.56c-0.95 0.44-1.94 0.64-2.92 0.64zm-2110.67-5.11c-0.73 0-1.46-0.11-2.19-0.35c-10.28-3.39-20.41-6.66-30.08-9.73c-3.69-1.17-5.73-5.1-4.56-8.79c1.17-3.69 5.11-5.74 8.79-4.56c9.73 3.08 19.9 6.37 30.24 9.77c3.67 1.21 5.67 5.17 4.46 8.84c-0.97 2.95-3.71 4.81-6.65 4.81zm1093.71-0.21c-1.17 0-2.35-0.29-3.44-0.91c-9.24-5.23-18.51-10.65-27.55-16.11c-3.31-2-4.37-6.3-2.37-9.61c2-3.31 6.3-4.38 9.61-2.38c8.93 5.39 18.08 10.74 27.21 15.91c3.37 1.9 4.55 6.18 2.65 9.54c-1.29 2.28-3.66 3.55-6.1 3.55zm134.58-11.2c-2.35 0-4.65-1.18-5.97-3.33c-2.03-3.29-1-7.61 2.29-9.63c8.88-5.47 17.84-11.14 26.64-16.85c3.24-2.11 7.58-1.19 9.69 2.06c2.11 3.24 1.19 7.58-2.06 9.69c-8.9 5.78-17.96 11.51-26.93 17.04c-1.14 0.71-2.41 1.04-3.66 1.04zm-1297.97-10.47c-0.66 0-1.33-0.09-2-0.29c-10.21-3.03-20.42-5.98-30.35-8.75c-3.73-1.04-5.9-4.9-4.86-8.63c1.04-3.73 4.91-5.9 8.63-4.86c10 2.79 20.28 5.76 30.56 8.81c3.71 1.1 5.82 5 4.72 8.71c-0.9 3.04-3.69 5.01-6.71 5.01zm2245.94-4.97c-2.54 0-4.98-1.38-6.23-3.79c-1.78-3.44-0.43-7.66 3.01-9.44c9.36-4.83 18.73-9.8 27.85-14.76c3.39-1.84 7.65-0.59 9.5 2.81c1.85 3.4 0.59 7.65-2.81 9.5c-9.21 5.01-18.66 10.02-28.11 14.9c-1.03 0.53-2.13 0.78-3.21 0.78zm-1144.93-11.41c-1.32 0-2.65-0.37-3.84-1.15c-8.91-5.85-17.8-11.87-26.43-17.91c-3.17-2.22-3.94-6.58-1.72-9.75c2.22-3.17 6.58-3.94 9.75-1.72c8.52 5.96 17.29 11.91 26.08 17.68c3.23 2.12 4.13 6.46 2.01 9.7c-1.35 2.05-3.58 3.16-5.86 3.16zm-1171.4-3.06c-0.57 0-1.15-0.07-1.73-0.22c-10.26-2.61-20.58-5.12-30.66-7.47c-3.77-0.88-6.11-4.64-5.23-8.41c0.88-3.77 4.64-6.11 8.41-5.23c10.17 2.37 20.58 4.9 30.93 7.53c3.75 0.95 6.02 4.76 5.06 8.51c-0.81 3.17-3.65 5.28-6.78 5.28zm1429.47-10.09c-2.22 0-4.4-1.05-5.76-3.01c-2.21-3.18-1.42-7.54 1.76-9.75c8.57-5.95 17.22-12.1 25.7-18.28c3.13-2.28 7.51-1.59 9.78 1.54c2.28 3.13 1.59 7.51-1.54 9.78c-8.57 6.24-17.3 12.45-25.96 18.46c-1.22 0.84-2.61 1.25-3.99 1.25zm-1500.64-6.22c-0.46 0-0.93-0.05-1.4-0.14c-10.34-2.1-20.76-4.1-30.97-5.93c-3.81-0.68-6.34-4.32-5.66-8.13c0.68-3.81 4.33-6.34 8.13-5.66c10.31 1.85 20.84 3.87 31.28 5.99c3.79 0.77 6.24 4.47 5.47 8.26c-0.67 3.32-3.59 5.61-6.86 5.61zm2451.48-4.29c-2.41 0-4.76-1.25-6.06-3.48c-1.94-3.34-0.81-7.63 2.53-9.57c9.09-5.29 18.2-10.72 27.05-16.14c3.3-2.02 7.61-0.98 9.63 2.32c2.02 3.3 0.98 7.61-2.32 9.63c-8.95 5.48-18.14 10.96-27.33 16.31c-1.11 0.64-2.32 0.95-3.51 0.95zm-2523.4-8.33c-0.34 0-0.68-0.02-1.03-0.08c-10.42-1.53-20.93-2.94-31.23-4.19c-3.84-0.47-6.57-3.96-6.11-7.8c0.47-3.84 3.95-6.57 7.8-6.11c10.42 1.27 21.05 2.69 31.58 4.24c3.83 0.56 6.47 4.12 5.91 7.95c-0.51 3.48-3.5 5.99-6.92 5.99zm-72.51-8.51c-0.2 0-0.41-0.01-0.62-0.03c-10.43-0.91-21-1.7-31.42-2.33c-3.86-0.24-6.8-3.56-6.56-7.42c0.24-3.86 3.56-6.8 7.42-6.56c10.54 0.64 21.23 1.44 31.78 2.36c3.85 0.34 6.7 3.73 6.37 7.59c-0.32 3.65-3.38 6.39-6.97 6.39zm1327.33-1.67c-1.48 0-2.97-0.47-4.23-1.43c-8.48-6.45-16.93-13.09-25.11-19.74c-3-2.44-3.46-6.85-1.02-9.85c2.44-3 6.85-3.46 9.85-1.02c8.07 6.55 16.4 13.1 24.76 19.46c3.08 2.34 3.68 6.74 1.33 9.81c-1.38 1.81-3.47 2.76-5.58 2.76zm-1400.23-2.48c-0.06 0-0.13 0-0.19 0c-10.45-0.28-21.05-0.42-31.5-0.42c-3.87 0-7-3.14-7-7c0-3.87 3.14-7 7-7c10.57 0 21.29 0.14 31.87 0.42c3.87 0.1 6.92 3.32 6.81 7.19c-0.1 3.8-3.22 6.82-7 6.82zm1776.86-11.68c-2.09 0-4.17-0.93-5.55-2.72c-2.37-3.06-1.8-7.46 1.26-9.82c8.23-6.37 16.56-12.95 24.75-19.56c3.01-2.43 7.42-1.96 9.85 1.05c2.43 3.01 1.96 7.42-1.05 9.85c-8.26 6.68-16.67 13.32-24.98 19.75c-1.28 0.99-2.78 1.46-4.28 1.46zm954.03-5.62c-2.29 0-4.52-1.12-5.87-3.17c-2.12-3.24-1.21-7.58 2.03-9.69c8.74-5.71 17.54-11.61 26.17-17.54c3.19-2.19 7.55-1.38 9.74 1.81c2.19 3.19 1.38 7.55-1.81 9.74c-8.72 5.99-17.61 11.95-26.43 17.72c-1.18 0.77-2.51 1.14-3.83 1.14zm-1387.13-26.58c-1.65 0-3.31-0.58-4.65-1.77c-8.01-7.11-15.92-14.39-23.53-21.64c-2.8-2.67-2.91-7.1-0.24-9.9c2.67-2.8 7.1-2.9 9.9-0.24c7.48 7.13 15.28 14.3 23.16 21.3c2.89 2.57 3.16 6.99 0.59 9.89c-1.38 1.56-3.31 2.35-5.24 2.35zm489.78-13.86c-1.98 0-3.95-0.83-5.33-2.46c-2.51-2.94-2.16-7.36 0.78-9.87c3.21-2.74 6.42-5.5 9.63-8.28c4.77-4.13 9.51-8.32 14.11-12.46c2.88-2.59 7.3-2.35 9.89 0.52c2.59 2.88 2.35 7.3-0.52 9.89c-4.66 4.19-9.47 8.44-14.3 12.62c-3.24 2.81-6.47 5.59-9.71 8.35c-1.32 1.13-2.93 1.68-4.54 1.68zm957.35-1.06c-2.16 0-4.29-1-5.66-2.87c-2.28-3.12-1.6-7.5 1.53-9.79c8.34-6.09 16.83-12.43 25.25-18.85c3.07-2.34 7.47-1.75 9.81 1.32c2.35 3.08 1.75 7.47-1.32 9.82c-8.5 6.48-17.07 12.88-25.49 19.03c-1.25 0.91-2.69 1.35-4.12 1.35zm-1499.7-35.81c-1.85 0-3.7-0.73-5.08-2.18c-7.4-7.79-14.65-15.74-21.57-23.64c-2.55-2.91-2.25-7.33 0.66-9.88c2.91-2.55 7.34-2.25 9.88 0.66c6.79 7.76 13.91 15.57 21.18 23.22c2.66 2.8 2.55 7.24-0.25 9.9c-1.36 1.29-3.09 1.93-4.82 1.93zm1557.59-8.58c-2.05 0-4.08-0.9-5.47-2.62c-2.42-3.02-1.94-7.42 1.08-9.84c7.98-6.4 15.98-12.92 24.46-19.94c2.98-2.47 7.39-2.05 9.86 0.93c2.47 2.98 2.05 7.39-0.93 9.86c-8.54 7.06-16.59 13.63-24.63 20.07c-1.29 1.04-2.84 1.54-4.38 1.54zm-961.22-3.71c-1.81 0-3.63-0.7-5-2.1c-2.71-2.76-2.67-7.19 0.09-9.9c7.58-7.45 14.99-14.99 22.01-22.44c2.65-2.81 7.08-2.94 9.9-0.29c2.81 2.65 2.94 7.09 0.29 9.9c-7.14 7.57-14.67 15.25-22.38 22.82c-1.36 1.34-3.13 2.01-4.91 2.01zm1017.37-42.87c-1.98 0-3.95-0.84-5.33-2.46c-2.51-2.95-2.15-7.36 0.79-9.87c8.47-7.21 16.89-14.45 24.02-20.58c2.93-2.52 7.35-2.19 9.88 0.74c2.52 2.93 2.19 7.35-0.74 9.88c-7.14 6.14-15.58 13.39-24.07 20.62c-1.32 1.12-2.93 1.67-4.54 1.67zm-1661.44-0.16c-2.09 0-4.15-0.93-5.53-2.71c-6.63-8.53-13.03-17.2-19.05-25.78c-2.22-3.17-1.45-7.53 1.72-9.75c3.17-2.22 7.54-1.45 9.75 1.71c5.88 8.39 12.15 16.88 18.64 25.22c2.37 3.05 1.82 7.45-1.23 9.83c-1.28 0.99-2.79 1.47-4.29 1.47zm693.77-10.44c-1.59 0-3.19-0.54-4.5-1.64c-2.96-2.49-3.34-6.91-0.86-9.87c6.84-8.15 13.42-16.39 19.55-24.49c2.33-3.08 6.72-3.69 9.81-1.36c3.09 2.33 3.69 6.73 1.36 9.81c-6.27 8.29-13 16.72-20 25.05c-1.38 1.65-3.37 2.5-5.37 2.5zm1023.02-36.91c-1.98 0-3.94-0.83-5.33-2.45c-2.51-2.94-2.17-7.36 0.77-9.87c9.23-7.89 16.92-14.4 24.22-20.5c2.97-2.48 7.39-2.08 9.86 0.88c2.48 2.97 2.08 7.38-0.88 9.86c-7.26 6.06-14.92 12.55-24.1 20.4c-1.32 1.13-2.94 1.68-4.55 1.68zm-1758.16-12.82c-2.38 0-4.7-1.21-6.01-3.4c-5.58-9.31-10.85-18.74-15.67-28.05c-1.78-3.43-0.44-7.66 2.99-9.44c3.44-1.78 7.66-0.44 9.44 3c4.69 9.05 9.82 18.23 15.25 27.29c1.99 3.32 0.91 7.62-2.41 9.61c-1.13 0.68-2.37 1-3.59 1zm778.58-8.92c-1.29 0-2.6-0.36-3.77-1.11c-3.26-2.08-4.21-6.42-2.12-9.67c5.72-8.94 11.07-17.97 15.9-26.84c1.85-3.4 6.1-4.65 9.5-2.8c3.4 1.85 4.65 6.1 2.8 9.5c-4.99 9.16-10.5 18.48-16.4 27.69c-1.34 2.09-3.6 3.23-5.91 3.23zm1035.76-24.76c-2.07 0-4.12-0.91-5.5-2.67c-2.4-3.04-1.88-7.44 1.16-9.84c8.82-6.96 17.1-13.28 25.32-19.35c3.11-2.3 7.5-1.63 9.79 1.48c2.3 3.11 1.63 7.5-1.48 9.79c-8.1 5.97-16.26 12.21-24.96 19.08c-1.28 1.01-2.81 1.5-4.33 1.5zm-1847.17-31.48c-2.76 0-5.38-1.65-6.49-4.36c-4.12-10.1-7.81-20.29-10.99-30.3c-1.17-3.69 0.87-7.62 4.55-8.79c3.69-1.17 7.62 0.87 8.79 4.55c3.07 9.66 6.64 19.5 10.61 29.25c1.46 3.58-0.26 7.67-3.84 9.13c-0.87 0.35-1.76 0.52-2.64 0.52zm845.36-8.31c-0.88 0-1.78-0.17-2.65-0.52c-3.58-1.47-5.29-5.56-3.83-9.13c4-9.76 7.47-19.59 10.33-29.21c1.1-3.71 5.01-5.82 8.71-4.72c3.71 1.1 5.82 5 4.72 8.71c-2.99 10.06-6.62 20.33-10.79 30.53c-1.11 2.71-3.72 4.35-6.48 4.35zm1060.78-3.03c-2.28 0-4.52-1.11-5.86-3.16c-2.12-3.24-1.22-7.58 2.02-9.7c9.06-5.94 18.21-11.61 27.18-16.85c3.34-1.95 7.63-0.83 9.58 2.51c1.95 3.34 0.83 7.63-2.51 9.58c-8.76 5.12-17.7 10.66-26.56 16.47c-1.18 0.78-2.52 1.15-3.83 1.15zm63.2-36.11c-2.59 0-5.09-1.45-6.3-3.94c-1.69-3.48-0.25-7.67 3.23-9.36c9.58-4.67 19.4-9.09 29.19-13.16c3.57-1.48 7.67 0.21 9.15 3.79c1.48 3.57-0.21 7.67-3.79 9.15c-9.54 3.96-19.1 8.27-28.42 12.81c-0.99 0.48-2.03 0.71-3.06 0.71zm-1990.36-22.32c-3.29 0-6.23-2.33-6.87-5.69c-2.06-10.73-3.57-21.51-4.49-32.04c-0.34-3.85 2.51-7.25 6.37-7.59c3.85-0.33 7.25 2.51 7.59 6.37c0.88 10.06 2.32 20.36 4.29 30.62c0.73 3.8-1.76 7.47-5.56 8.2c-0.45 0.09-0.89 0.13-1.33 0.13zm430.62-4.07c-4.16 0-8-0.78-11.43-2.33c-3.52-1.59-5.09-5.74-3.5-9.26c1.59-3.53 5.74-5.09 9.26-3.5c1.6 0.72 3.51 1.09 5.66 1.09c5.79 0 9.81-2.35 12.65-7.39c1.9-3.37 6.17-4.57 9.54-2.67c3.37 1.9 4.57 6.17 2.67 9.54c-5.35 9.51-13.94 14.53-24.85 14.53zm1627.18-0.87c-2.95 0-5.69-1.88-6.66-4.83c-1.2-3.68 0.81-7.63 4.49-8.83c9.99-3.26 20.31-6.3 30.69-9.05c3.74-0.99 7.57 1.24 8.56 4.98c0.99 3.74-1.24 7.57-4.98 8.56c-10.12 2.68-20.19 5.65-29.93 8.83c-0.72 0.24-1.45 0.35-2.17 0.35zm-1172.06-3.82c-0.31 0-0.63-0.02-0.95-0.06c-3.83-0.52-6.52-4.05-6-7.88c1.4-10.3 2.12-20.62 2.12-30.65c0-3.87 3.14-7 7-7c0 0 0 0 0 0c3.87 0 7 3.14 7 7.01c0 10.66-0.76 21.61-2.25 32.53c-0.48 3.51-3.48 6.06-6.93 6.06zm1242.54-14.31c-3.29 0-6.22-2.32-6.87-5.67c-0.74-3.8 1.74-7.47 5.54-8.21c10.24-1.99 20.84-3.79 31.52-5.36c3.82-0.56 7.38 2.08 7.95 5.91c0.56 3.83-2.08 7.38-5.91 7.95c-10.47 1.54-20.86 3.3-30.89 5.25c-0.45 0.09-0.9 0.13-1.34 0.13zm-1719.41-19.4c-0.13 0-0.27 0-0.41-0.01c-3.86-0.22-6.81-3.53-6.59-7.39c0.56-9.73 2.43-20.69 5.57-32.59c0.99-3.74 4.82-5.97 8.56-4.98c3.74 0.99 5.97 4.82 4.98 8.56c-2.9 11-4.63 21.03-5.13 29.82c-0.21 3.73-3.3 6.6-6.98 6.6zm44.56-13.07c-3.46 0-6.46-2.56-6.93-6.08c-1.22-9.15-3.49-19.17-6.75-29.77c-1.13-3.7 0.94-7.61 4.64-8.75c3.7-1.13 7.61 0.94 8.75 4.64c3.48 11.33 5.91 22.11 7.24 32.02c0.51 3.83-2.18 7.36-6.01 7.87c-0.31 0.04-0.63 0.06-0.94 0.06zm-458.4-17.06c-0.14 0-0.29 0-0.43-0.01c-3.86-0.23-6.8-3.55-6.57-7.41c0.66-10.87 1.98-21.74 3.93-32.3c0.7-3.8 4.36-6.32 8.16-5.62c3.8 0.7 6.32 4.35 5.62 8.16c-1.84 10-3.1 20.3-3.72 30.6c-0.23 3.72-3.31 6.58-6.98 6.58zm888.97-8.81c-3.28 0-6.21-2.32-6.87-5.66c-1.95-9.99-4.7-19.91-8.16-29.46c-1.32-3.64 0.56-7.65 4.2-8.97c3.63-1.32 7.65 0.56 8.97 4.2c3.7 10.23 6.64 20.84 8.73 31.54c0.74 3.8-1.73 7.47-5.53 8.22c-0.45 0.09-0.91 0.13-1.35 0.13zm-456.12-31.27c-0.92 0-1.86-0.18-2.76-0.57c-3.55-1.53-5.2-5.65-3.67-9.2c1.05-2.45 2.14-4.9 3.26-7.36c-4.21-8.91-8.93-17.89-14.05-26.69c-1.94-3.34-0.81-7.63 2.53-9.57c3.34-1.94 7.63-0.81 9.57 2.53c3.42 5.87 6.66 11.82 9.71 17.79c1-1.94 2.02-3.87 3.06-5.79c1.84-3.4 6.09-4.68 9.49-2.84c3.4 1.84 4.67 6.08 2.84 9.49c-4.99 9.25-9.55 18.66-13.55 27.97c-1.14 2.65-3.72 4.24-6.44 4.24zm-418.24-31.22c-0.8 0-1.61-0.14-2.4-0.43c-3.63-1.32-5.51-5.34-4.18-8.98c3.8-10.42 8.3-20.45 13.38-29.82c1.84-3.4 6.1-4.66 9.5-2.82c3.4 1.84 4.66 6.1 2.82 9.5c-4.75 8.76-8.97 18.16-12.53 27.94c-1.04 2.84-3.72 4.61-6.58 4.61zm848.07-5.22c-2.37 0-4.67-1.2-5.99-3.37c-5.23-8.62-11.21-17.03-17.77-25c-2.46-2.99-2.03-7.4 0.96-9.86c2.99-2.46 7.4-2.03 9.86 0.96c6.98 8.48 13.35 17.44 18.93 26.63c2.01 3.31 0.95 7.61-2.35 9.62c-1.14 0.69-2.39 1.02-3.63 1.02zm-394.41-27.35c-1.37 0-2.76-0.4-3.98-1.24c-3.18-2.2-3.98-6.56-1.78-9.74c6.19-8.95 12.76-17.62 19.53-25.76c2.47-2.98 6.89-3.38 9.86-0.91c2.97 2.47 3.38 6.89 0.91 9.86c-6.5 7.82-12.82 16.16-18.77 24.77c-1.36 1.97-3.54 3.02-5.77 3.02zm-69.28-11.09c-2.15 0-4.27-0.99-5.64-2.85c-6.16-8.36-12.72-16.52-19.49-24.25c-2.55-2.91-2.25-7.33 0.66-9.88c2.91-2.55 7.34-2.25 9.88 0.66c7.02 8.03 13.83 16.49 20.22 25.16c2.29 3.11 1.63 7.5-1.48 9.79c-1.25 0.92-2.71 1.37-4.15 1.37zm416.42-16.85c-1.62 0-3.24-0.56-4.56-1.69c-7.68-6.61-15.94-12.88-24.56-18.64c-3.21-2.15-4.08-6.5-1.93-9.71c2.15-3.21 6.5-4.08 9.71-1.93c9.09 6.08 17.81 12.69 25.91 19.67c2.93 2.52 3.26 6.94 0.74 9.88c-1.38 1.61-3.34 2.44-5.31 2.44zm-764.46-2.35c-1.62 0-3.25-0.56-4.57-1.7c-2.93-2.53-3.26-6.95-0.73-9.88c7.14-8.28 15.04-16 23.49-22.95c2.99-2.46 7.4-2.03 9.86 0.96c2.46 2.99 2.03 7.4-0.96 9.86c-7.84 6.44-15.17 13.6-21.78 21.28c-1.39 1.61-3.34 2.43-5.31 2.43zm465.19-24.67c-2.02 0-4.02-0.87-5.4-2.54c-2.46-2.98-2.05-7.39 0.93-9.86c8.37-6.93 17.63-13.1 27.5-18.34c3.42-1.81 7.66-0.52 9.47 2.9c1.81 3.42 0.52 7.66-2.9 9.47c-9.04 4.8-17.5 10.45-25.14 16.77c-1.31 1.08-2.89 1.61-4.46 1.61zm-167.82-8.19c-1.33 0-2.67-0.38-3.86-1.17c-8.09-5.36-17.11-10.27-26.79-14.59c-3.53-1.57-5.12-5.71-3.55-9.25c1.57-3.53 5.72-5.12 9.25-3.55c10.39 4.63 20.09 9.92 28.83 15.71c3.22 2.14 4.1 6.48 1.97 9.71c-1.35 2.03-3.57 3.13-5.84 3.13zm405.88-4.27c-1 0-2.02-0.22-2.98-0.67c-9.28-4.38-18.93-8.29-28.67-11.63c-3.66-1.25-5.61-5.24-4.36-8.89c1.25-3.66 5.24-5.61 8.89-4.36c10.23 3.5 20.36 7.61 30.1 12.21c3.5 1.65 5 5.82 3.35 9.32c-1.19 2.53-3.71 4.02-6.34 4.02zm-646.07-7.58c-2.54 0-5-1.39-6.24-3.81c-1.77-3.44-0.41-7.66 3.03-9.43c9.54-4.9 19.69-9.16 30.16-12.68c3.67-1.23 7.64 0.74 8.87 4.41c1.23 3.67-0.74 7.64-4.41 8.87c-9.81 3.29-19.3 7.29-28.23 11.86c-1.02 0.52-2.12 0.77-3.19 0.77zm472.81-12.42c-3.1 0-5.94-2.08-6.77-5.22c-0.98-3.74 1.25-7.57 4.99-8.55c10.31-2.71 21.14-4.68 32.21-5.86c3.86-0.41 7.3 2.38 7.7 6.22c0.41 3.85-2.38 7.3-6.22 7.7c-10.37 1.1-20.5 2.94-30.13 5.48c-0.6 0.16-1.2 0.23-1.79 0.23zm103.93-2.45c-0.42 0-0.86-0.04-1.29-0.12c-10.2-1.9-20.51-3.2-30.62-3.87c-3.86-0.25-6.78-3.59-6.53-7.45c0.25-3.86 3.61-6.78 7.45-6.53c10.66 0.7 21.52 2.07 32.26 4.07c3.8 0.71 6.31 4.36 5.6 8.17c-0.63 3.37-3.57 5.72-6.88 5.72zm-403.42-1.8c-0.56 0-1.14-0.07-1.71-0.21c-9.86-2.47-20.06-4.38-30.32-5.69c-3.84-0.49-6.55-4-6.06-7.83c0.49-3.84 4-6.55 7.83-6.06c10.81 1.38 21.56 3.39 31.95 6c3.75 0.94 6.03 4.74 5.09 8.49c-0.8 3.18-3.65 5.3-6.79 5.3zm-103.97-5.2c-3.41 0-6.4-2.49-6.92-5.97c-0.57-3.83 2.07-7.39 5.89-7.96c10.58-1.58 21.49-2.53 32.42-2.81c3.89-0.09 7.08 2.95 7.18 6.82c0.1 3.87-2.95 7.08-6.82 7.18c-10.36 0.27-20.69 1.16-30.71 2.66c-0.35 0.05-0.7 0.08-1.04 0.08z" />
		</g>
		<g id="&lt;Group&gt;">
			<path id="&lt;Path&gt;" class="s0" d="m3440.08 389.46c-2.26-1.74-3.22-5.22-2.31-8.33l28.26-96.24c0.23-0.77-0.22-1.58-0.88-1.59c-32.13-0.53-72.2-6.55-76.94-7.28c-0.29-0.04-0.59 0.08-0.79 0.35c-1.79 2.29-10.61 13.5-18.91 23.73c-9.3 11.46-12.74 5.87-11.98 1.36c0.73-4.28 6.62-36.47 7.21-39.72c0.03-0.17 0.03-0.35 0-0.53c-0.59-3.24-6.49-35.44-7.21-39.72c-0.76-4.5 2.68-10.1 11.98 1.36c8.3 10.23 17.12 21.45 18.91 23.73c0.21 0.26 0.5 0.39 0.79 0.35c4.74-0.73 44.81-6.74 76.94-7.28c0.66-0.01 1.11-0.82 0.88-1.59l-27.91-95.03c-1.28-4.35 0.5-9.21 4-10.75c2.49-1.1 6.01-1.46 10.94 0.19c1.25 0.42 2.37 1.32 3.2 2.55l19 27.92c0.25 0.37 0.66 0.51 1.02 0.36c2.73-1.16 6.21-1.85 9.99-1.85c4.34 0 8.28 0.91 11.16 2.39c0.36 0.19 0.6 0.62 0.6 1.1l0 9.79c0 0.48-0.24 0.92-0.6 1.1c-2.88 1.48-6.81 2.39-11.16 2.39c-0.2 0-0.4 0-0.6-0.01l14.47 21.25c0.26 0.39 0.7 0.53 1.08 0.33c2.87-1.45 6.76-2.34 11.05-2.34c4.34 0 8.28 0.91 11.16 2.39c0.36 0.18 0.6 0.62 0.6 1.1l0 9.79c0 0.48-0.24 0.92-0.6 1.1c-2.88 1.48-6.81 2.39-11.16 2.39l-0.02 0c-0.81 0-1.24 1.18-0.72 1.94l16.22 23.83c0.18 0.27 0.45 0.42 0.74 0.42c0.07 0 0.15 0 0.24 0c7.93-0.08 63.25-0.31 84.47 9.46c5.9 2.47 9.81 6.73 9.81 11.56c0 4.84-3.9 9.09-9.81 11.56c-21.22 9.78-76.54 9.55-84.47 9.46c-0.09 0-0.17 0-0.24 0c-0.28 0-0.55 0.15-0.74 0.42l-16.22 23.83c-0.52 0.77-0.08 1.94 0.72 1.94l0.02 0c4.34 0 8.28 0.91 11.16 2.39c0.36 0.18 0.6 0.62 0.6 1.1l0 9.79c0 0.48-0.24 0.92-0.6 1.1c-2.88 1.48-6.81 2.39-11.16 2.39c-4.29 0-8.18-0.89-11.05-2.34c-0.38-0.19-0.81-0.05-1.08 0.33l-14.47 21.25c0.2 0 0.4-0.01 0.6-0.01c4.34 0 8.28 0.91 11.16 2.39c0.36 0.18 0.6 0.62 0.6 1.1l0 9.79c0 0.48-0.24 0.92-0.6 1.1c-2.88 1.48-6.81 2.39-11.16 2.39c-3.78 0-7.25-0.69-9.99-1.85c-0.37-0.15-0.77-0.01-1.02 0.36l-19.01 27.93c-0.83 1.22-1.94 2.12-3.18 2.53c-6.48 2.17-10.54 0.87-13-1.02z" />
		</g>
	</g>
</svg>