<svg version="1.2" xmlns="http://www.w3.org/2000/svg" viewBox="0 0 209 207" width="209" height="207"><style>.s0{fill:#414141}.s1{fill:#d1be9d}.s2{fill:#3a2a0d}</style><path class="s0" d="m976.4 954.8l-10 30c-0.3 0.9-1.2 1.6-2.2 1.7c-1.1 0.1-2-0.5-2.4-1.4l-5-10c-0.7-1.2-0.2-2.7 1.1-3.3c1.2-0.7 2.7-0.2 3.3 1.1l2.3 4.6l8.1-24.3c0.5-1.3 1.9-2 3.2-1.6c1.3 0.5 2 1.9 1.6 3.2z" /><path fill-rule="evenodd" class="s0" d="m1006.5 824v160c0 0.7-0.3 1.3-0.7 1.8l-20 20c-0.5 0.4-1.1 0.7-1.8 0.7h-120c-1.4 0-2.5-1.1-2.5-2.5v-180c0-1.4 1.1-2.5 2.5-2.5h140c1.4 0 2.5 1.1 2.5 2.5zm-5 2.5h-135v175h115v-17.5c0-1.4 1.1-2.5 2.5-2.5h17.5zm-3.5 160h-11.5v11.5z" /><path class="s0" d="m856.5 989.1c0.1 1.3-1 2.5-2.4 2.6l-40.2 2.2c-1.4 0.1-2.5-1-2.6-2.4l-9.8-179.8c-0.1-1.1 0.8-2.5 2.4-2.6l139.8-7.6c1.7-0.1 2.5 1.3 2.6 2.4l0.5 10c0.1 1.4-1 2.5-2.4 2.6c-1.3 0.1-2.5-1-2.6-2.4l-0.4-7.5l-134.8 7.4l9.6 174.8l37.7-2.1c1.6-0.1 2.5 1 2.6 2.4z" /><path class="s0" d="m856.5 848.9c0.1 1.3-1 2.5-2.4 2.6l-27.9 1.5c-1.5 0.1-2.5-1-2.6-2.4c-0.1-1.3 1-2.5 2.4-2.6l27.9-1.5c1.5-0.1 2.5 1 2.6 2.4z" /><path class="s0" d="m856.5 868.9c0.1 1.3-1 2.5-2.4 2.6l-26.8 1.4c-1.5 0.1-2.5-1-2.6-2.4c-0.1-1.3 1-2.5 2.4-2.6l26.8-1.4c1.5-0.1 2.5 1 2.6 2.4z" /><path class="s0" d="m856.5 888.9c0.1 1.3-1 2.5-2.4 2.6l-25.7 1.4c-1.6 0.1-2.5-1-2.6-2.4c-0.1-1.3 1-2.5 2.4-2.6l25.7-1.4c1.6-0.1 2.5 1 2.6 2.4z" /><path class="s0" d="m856.5 908.9c0.1 1.3-1 2.5-2.4 2.6l-24.6 1.4c-1.6 0.1-2.5-1-2.6-2.4c-0.1-1.3 1-2.5 2.4-2.6l24.6-1.4c1.6-0.1 2.5 1 2.6 2.4z" /><path class="s0" d="m856.5 929c0.1 1.3-1 2.5-2.4 2.6l-23.5 1.3c-1.4 0.1-2.5-1-2.6-2.4c-0.1-1.3 1-2.5 2.4-2.6l23.5-1.3c1.4-0.1 2.5 1 2.6 2.4z" /><path class="s0" d="m856.5 949c0.1 1.3-1 2.5-2.4 2.6l-22.4 1.2c-1.5 0.1-2.5-1-2.6-2.4c-0.1-1.3 1-2.5 2.4-2.6l22.4-1.2c1.5-0.1 2.5 1 2.6 2.4z" /><path class="s0" d="m911.5 844c0-1.4 1.1-2.5 2.5-2.5h40c1.4 0 2.5 1.1 2.5 2.5c0 1.4-1.1 2.5-2.5 2.5h-40c-1.4 0-2.5-1.1-2.5-2.5z" /><path class="s0" d="m881.5 864c0-1.4 1.1-2.5 2.5-2.5h100c1.4 0 2.5 1.1 2.5 2.5c0 1.4-1.1 2.5-2.5 2.5h-100c-1.4 0-2.5-1.1-2.5-2.5z" /><path class="s0" d="m881.5 884c0-1.4 1.1-2.5 2.5-2.5h100c1.4 0 2.5 1.1 2.5 2.5c0 1.4-1.1 2.5-2.5 2.5h-100c-1.4 0-2.5-1.1-2.5-2.5z" /><path class="s0" d="m881.5 904c0-1.4 1.1-2.5 2.5-2.5h30c1.4 0 2.5 1.1 2.5 2.5c0 1.4-1.1 2.5-2.5 2.5h-30c-1.4 0-2.5-1.1-2.5-2.5z" /><path class="s0" d="m881.5 924c0-1.4 1.1-2.5 2.5-2.5h100c1.4 0 2.5 1.1 2.5 2.5c0 1.4-1.1 2.5-2.5 2.5h-100c-1.4 0-2.5-1.1-2.5-2.5z" /><path class="s0" d="m881.5 944c0-1.4 1.1-2.5 2.5-2.5h50c1.4 0 2.5 1.1 2.5 2.5c0 1.4-1.1 2.5-2.5 2.5h-50c-1.4 0-2.5-1.1-2.5-2.5z" /><path fill-rule="evenodd" class="s0" d="m563.3 32.9l11.8 11.8c2.4 2.3 3.2 5.7 2.1 8.9l-4.2 12.7c-2.4 6.6-10.1 7.6-14.3 3.4l-20.4-20.4c-4.2-4.2-3.2-11.9 3.4-14.3l12.7-4.2c3.2-1.1 6.6-0.3 8.9 2.1zm8.3 15.4l-11.8-11.9c-1-1-2.4-1.3-3.8-0.9l-12.8 4.3c-2.6 0.9-3.3 4.1-1.4 6l20.4 20.4c1.9 1.9 5.1 1.2 6-1.4l4.3-12.8c0.4-1.4 0.1-2.8-0.9-3.7z" /><path fill-rule="evenodd" class="s0" d="m606.5 72.8c0 19.1-78.8 79.9-97.1 79.9c-6.4 0-14.8-4.1-23-10.3l-63.4 63.4c-0.5 0.4-1.1 0.7-1.8 0.7h-17.2c-1.4 0-2.5-1.1-2.5-2.5v-17.2c0-0.7 0.3-1.3 0.7-1.8l63.4-63.4c-6.2-8.2-10.3-16.6-10.3-23c0-18.3 60.8-97.1 79.9-97.1c18.6 0 71.3 52.7 71.3 71.3zm-124.1 66.4c-4.8-4.1-9.5-8.8-13.6-13.6l-62.3 62.2v10.2l55.9-56c1-1 2.6-1 3.6 0c1 1 1 2.6 0 3.6l-56 55.9h10.2zm119-66.4c0-16.1-50.2-66.3-66.3-66.3c-15.8 0-74.9 77.3-74.9 92.1c0 15.6 33.5 49.1 49.1 49.1c14.8 0 92.1-59.1 92.1-74.9z" /><path fill-rule="evenodd" class="s0" d="m564 85.1c1.1 1.2 0.8 2.8-0.2 3.7c-16.1 14.3-41.2 33.2-53.7 38.7c-0.7 0.3-1.4 0.3-2.1-0.1c-1.6-0.8-7.5-4-15.4-12c-8-7.9-11.2-13.8-12-15.4c-0.4-0.7-0.4-1.4-0.1-2.1c5.4-12.5 24.3-37.6 38.7-53.8c0.9-0.9 2.5-1.2 3.6-0.1zm-30.3 21.6c-11-10.5-21.9-21.4-32.3-32.4c-7.2 9.7-13 18.7-15.7 24.5c1.2 2.2 4.3 6.9 10.5 13.1c6.1 6.2 10.9 9.2 13.1 10.5c5.8-2.8 14.7-8.6 24.4-15.7zm24.9-19.9l-37.3-37.4c-5.8 6.7-11.6 13.9-16.9 20.9c10.8 11.3 22 22.6 33.4 33.4c7-5.3 14.2-11.1 20.8-16.9z" /><path class="s0" d="m92.2-319.7c-3.6 6-5.7 14.7-5.7 23.7c0 9 2.1 17.7 5.7 23.7c0.8 1.2 0.4 2.7-0.8 3.4c-1.2 0.8-2.7 0.4-3.4-0.8c-4.2-6.9-6.5-16.7-6.5-26.3c0-9.6 2.3-19.4 6.5-26.3c0.7-1.2 2.2-1.6 3.4-0.8c1.2 0.7 1.6 2.2 0.8 3.4z" /><path class="s0" d="m115.8-272.3c3.6-6 5.7-14.7 5.7-23.7c0-9-2.1-17.7-5.7-23.7c-0.8-1.2-0.4-2.7 0.8-3.4c1.2-0.8 2.7-0.4 3.4 0.8c4.2 6.9 6.5 16.7 6.5 26.3c0 9.6-2.3 19.4-6.5 26.3c-0.7 1.2-2.2 1.6-3.4 0.8c-1.2-0.7-1.6-2.2-0.8-3.4z" /><path class="s0" d="m203.2-193.6l-70-25q-0.6-0.2-1-0.6l-20-20q-0.3-0.3-0.4-0.7l-9.3-18.6h-68.5c-1.4 0-2.5-1.1-2.5-2.5v-38.3c0-1.4 1.1-2.5 2.5-2.5c1.4 0 2.5 1.1 2.5 2.5v35.8h119.5c1.4 0 2.5 1.1 2.5 2.5c0 1.4-1.1 2.5-2.5 2.5h-29.9l18.6 14.8c10.9-2.1 25.2-7.1 26.7-12.3l-23.4-24c-0.9-0.9-0.9-2.3-0.1-3.3l7.5-9.3c0.7-0.9 2.1-1.2 3.2-0.5l46.7 28.1c1.2 0.7 1.6 2.2 0.8 3.4c-0.7 1.2-2.2 1.5-3.4 0.8l-44.8-26.9l-4.8 5.8l22.7 23.2c0.4 0.5 0.7 1.1 0.7 1.8c0 11.9-26.7 17.4-32.1 18.4c-0.8 0.1-1.5-0.2-2-0.5l-24.3-19.5h-10.1l8.1 16l19.3 19.3l69.4 24.8c1.3 0.5 2 1.9 1.6 3.2c-0.5 1.3-2 2-3.2 1.6z" /><path class="s0" d="m50.1-304.3l4.8-5.8l-22.7-23.2c-0.4-0.5-0.7-1.1-0.7-1.8c0-11.9 26.7-17.4 32.1-18.4c0.8-0.1 1.5 0.2 2 0.5l24.3 19.5h10.1l-8.1-16l-19.3-19.3l-69.4-24.8c-1.3-0.5-2-1.9-1.6-3.2c0.5-1.3 2-2 3.2-1.6l70 25q0.6 0.2 1 0.6l20 20q0.3 0.3 0.4 0.7l9.3 18.6h68.5c1.4 0 2.5 1.1 2.5 2.5v38.3c0 1.4-1.1 2.5-2.5 2.5c-1.4 0-2.5-1.1-2.5-2.5v-35.8h-119.5c-1.4 0-2.5-1.1-2.5-2.5c0-1.4 1.1-2.5 2.5-2.5h29.9l-18.6-14.8c-10.9 2.1-25.2 7.1-26.7 12.3l23.4 24c0.9 0.9 0.9 2.3 0.1 3.3l-7.5 9.3c-0.7 0.9-2.1 1.2-3.2 0.5l-46.7-28.1c-1.2-0.7-1.6-2.2-0.8-3.4c0.7-1.2 2.2-1.5 3.4-0.8z" /><path class="s0" d="m161.5-301v-7.7c-4.9-1-8.8-4.9-9.7-9.8h-7.8c-1.4 0-2.5-1.1-2.5-2.5c0-1.4 1.1-2.5 2.5-2.5h10c1.4 0 2.5 1.1 2.5 2.5c0 4.1 3.4 7.5 7.5 7.5c1.4 0 2.5 1.1 2.5 2.5v10c0 1.4-1.1 2.5-2.5 2.5c-1.4 0-2.5-1.1-2.5-2.5z" /><path class="s0" d="m46.5-291v7.7c4.9 1 8.8 4.9 9.7 9.8h7.8c1.4 0 2.5 1.1 2.5 2.5c0 1.4-1.1 2.5-2.5 2.5h-10c-1.4 0-2.5-1.1-2.5-2.5c0-4.1-3.4-7.5-7.5-7.5c-1.4 0-2.5-1.1-2.5-2.5v-10c0-1.4 1.1-2.5 2.5-2.5c1.4 0 2.5 1.1 2.5 2.5z" /><path fill-rule="evenodd" class="s0" d="m104-317.2c6.4 0 11.2 9.1 11.2 21.2c0 12.1-4.8 21.2-11.2 21.2c-6.4 0-11.2-9.1-11.2-21.2c0-12.1 4.8-21.2 11.2-21.2zm0 4.9c-2.5 0-6.3 6.4-6.3 16.3c0 9.9 3.8 16.2 6.3 16.2c2.5 0 6.3-6.3 6.3-16.2c0-9.9-3.8-16.3-6.3-16.3z" /><path fill-rule="evenodd" class="s0" d="m606.5-619.8v18.8c0 4.1-3.4 7.5-7.5 7.5h-190c-4.1 0-7.5-3.4-7.5-7.5v-18.8c0-4.8 2.6-9.1 6.9-11.2l55.4-27.7l-2.2-6.5c-0.3-0.9 0-1.9 0.6-2.6l9.2-9.2l-1.1-13.6c-5.5-4.2-8.8-10.7-8.8-17.8v-20.1h-2.5c-4.2 0-7.5-3.3-7.5-7.5v-10c0-4.2 3.3-7.5 7.5-7.5h2.5v-42.5c0-1.4 1.1-2.5 2.5-2.5c69 0 80.7 9.6 81.8 10.7c0.4 0.5 0.7 1.1 0.7 1.8v32.5h2.5c4.2 0 7.5 3.3 7.5 7.5v10c0 4.2-3.3 7.5-7.5 7.5h-2.5v20.1c0 7.1-3.3 13.6-8.8 17.8l-1.1 13.6l9.2 9.2c0.6 0.7 0.9 1.7 0.6 2.6l-2.2 6.5l55.4 27.7c4.3 2.1 6.9 6.4 6.9 11.2zm-60-113.7h2.5c1.4 0 2.5-1.1 2.5-2.5v-10c0-1.4-1.1-2.5-2.5-2.5h-2.5zm-85-15h-2.5c-1.4 0-2.5 1.1-2.5 2.5v10c0 1.4 1.1 2.5 2.5 2.5h2.5zm72.2 75.7l-25.2 16.5l24.2 16.4l8.4-25.4zm-43.8 29.1l14.2 14.1l14.1-14.1l-14.1-9.6zm41.7-33.7l0.8-10l-18.7 9.4c-3.1 1.5-6.4 2.2-9.7 2.2c-3.3 0-6.6-0.7-9.6-2.2l-18.8-9.4l0.8 10l27.6 18.1zm-65.1-87.4c5.7-2.5 17.5-5 38.3 2c23.6 7.8 34 2.9 36.7 1.1v-23c-3.4-1.9-19.5-8.6-75-8.8zm9.7 72.2l20.4 10.2c4.7 2.3 10.2 2.3 14.8 0l20.4-10.2c6-3 9.7-9.1 9.7-15.8v-47.6c-7.4 3.2-19.4 4.3-38.3-2c-23.5-7.9-34-2.9-36.7-1.1v50.7c0 6.7 3.7 12.8 9.7 15.8zm-9.3 27.3l8.5 25.4l24.1-16.3l-25.1-16.5zm15.3 66.8l11.4-34.3l-8-8.1l-10.2 7c-1.2 0.8-3.2 0.4-3.8-1.3l-6.2-18.7l-54.8 27.4c-2.5 1.2-4.1 3.8-4.1 6.6v18.9c0 1.4 1.1 2.5 2.5 2.5zm38.3 0l-10.1-30.4l-4.6 4.7c-1 0.9-2.6 0.9-3.6 0l-4.6-4.7l-10.1 30.4zm80.9-21.4c0-2.8-1.5-5.4-4.1-6.6l-54.8-27.4l-6.2 18.7c-0.6 1.7-2.6 2.1-3.8 1.3l-10.2-7l-8 8.1l11.4 34.3h73.2c1.4 0 2.5-1.1 2.5-2.5z" /><path class="s0" d="m495.8-707.8c7.9 8 15.6 0.9 16.4 0c1-0.9 2.6-0.9 3.6 0c0.9 1 0.9 2.6 0 3.6c-2.4 2.4-6.9 5.2-12.1 5.2c-3.7 0-7.6-1.4-11.5-5.2c-0.9-1-0.9-2.6 0-3.6c1-0.9 2.6-0.9 3.6 0z" /><path class="s0" d="m479-741c0-1.4 1.1-2.5 2.5-2.5h10c1.4 0 2.5 1.1 2.5 2.5c0 1.4-1.1 2.5-2.5 2.5h-10c-1.4 0-2.5-1.1-2.5-2.5z" /><path class="s0" d="m514-741c0-1.4 1.1-2.5 2.5-2.5h10c1.4 0 2.5 1.1 2.5 2.5c0 1.4-1.1 2.5-2.5 2.5h-10c-1.4 0-2.5-1.1-2.5-2.5z" /><path fill-rule="evenodd" class="s0" d="m-398.5-711v-50c0-4.1 3.4-7.5 7.5-7.5h29.4c5.4-17.8 21.8-30 40.6-30c9.9 0 19.6 3.6 27.3 10h87.7c6.9 0 12.5 5.6 12.5 12.5v30c0 6.9-5.6 12.5-12.5 12.5h-79c-7.7 12.4-21.4 20-36 20q-1.3 0-2.5-0.1v2.6c0 4.1-3.4 7.5-7.5 7.5h-12.5v32.5q0 0.6-0.3 1.1l-4.7 9.5v54.4c0 0.7-0.3 1.3-0.7 1.8l-10 10c-1 0.9-2.6 0.9-3.6 0l-10-10c-0.4-0.5-0.7-1.1-0.7-1.8v-54.4l-4.7-9.5q-0.3-0.5-0.3-1.1v-32.5h-12.5c-4.1 0-7.5-3.4-7.5-7.5zm50 7.5h-10v7.5c0 1.4-1.1 2.5-2.5 2.5c-1.4 0-2.5-1.1-2.5-2.5v-7.5h-10v31.9l4.7 9.5q0.3 0.5 0.3 1.1v54l5 5v-49c0-1.4 1.1-2.5 2.5-2.5c1.4 0 2.5 1.1 2.5 2.5v49l5-5v-54q0-0.6 0.3-1.1l4.7-9.5zm54.2-80l-9 22.5l9 22.5h6.4q2.6-5 3.7-10.4c-5.4-1.4-9.3-6.3-9.3-12.1c0-6.9 5.6-12.5 12.5-12.5c6.9 0 12.5 5.6 12.5 12.5c0 6.3-4.7 11.5-10.7 12.4c-0.6 3.5-1.6 6.9-3.1 10.1h76.3c4.1 0 7.5-3.4 7.5-7.5v-30c0-4.1-3.4-7.5-7.5-7.5zm9 16.4c-1.9 1.3-3.2 3.6-3.2 6.1c0 3.2 2.1 6 4.9 7c0.3-5.2-0.5-9.5-1.7-13.1zm6.7 13.2c3-1.1 5.1-3.8 5.1-7.1c0-3.9-3.1-7.1-6.9-7.4c1.2 4 2.2 9.3 1.8 14.5zm-77.7-14.6h25.3c4.1 0 7.5 3.4 7.5 7.5v42.4q1.2 0.1 2.5 0.1c11.9 0 23-5.6 30-15h-5c-1 0-1.9-0.6-2.3-1.6l-10-25c-0.3-0.6-0.3-1.2 0-1.8l9.6-24.1c-6.5-4.8-14.3-7.5-22.3-7.5c-16 0-30.1 10.1-35.3 25zm-37.2 57.5c0 1.4 1.1 2.5 2.5 2.5h60c1.4 0 2.5-1.1 2.5-2.5v-3.1c-11.7-2.2-22.2-9.2-28.5-19.4h-16.5c-2.8 0-5-2.2-5-5v-15c0-2.7 2.2-5 5-5h25c2.8 0 5 2.3 5 5v15c0 2.8-2.2 5-5 5h-2.4c5.4 7.3 13.5 12.4 22.4 14.3v-41.8c0-1.4-1.1-2.5-2.5-2.5h-60c-1.4 0-2.5 1.1-2.5 2.5zm45-27.5v-15h-9.9c0.4 5.2 1.8 10.3 4.3 15zm-14.9-15h-10.1v15h13.8c-2.1-4.7-3.4-9.8-3.7-15z" /><path fill-rule="evenodd" class="s0" d="m-378.5-261c0-9.6 7.9-17.5 17.5-17.5c9.6 0 17.5 7.9 17.5 17.5c0 9.6-7.9 17.5-17.5 17.5c-9.6 0-17.5-7.9-17.5-17.5zm5 0c0 6.9 5.6 12.5 12.5 12.5c6.9 0 12.5-5.6 12.5-12.5c0-6.9-5.6-12.5-12.5-12.5c-6.9 0-12.5 5.6-12.5 12.5z" /><path fill-rule="evenodd" class="s0" d="m-248.5-261c0-9.6 7.9-17.5 17.5-17.5c9.6 0 17.5 7.9 17.5 17.5c0 9.6-7.9 17.5-17.5 17.5c-9.6 0-17.5-7.9-17.5-17.5zm5 0c0 6.9 5.6 12.5 12.5 12.5c6.9 0 12.5-5.6 12.5-12.5c0-6.9-5.6-12.5-12.5-12.5c-6.9 0-12.5 5.6-12.5 12.5z" /><path fill-rule="evenodd" class="s0" d="m-398.5-226v-10c0-1.4 1.1-2.5 2.5-2.5h7.5v-37.5c0-2.8 0.9-5.4 2.5-7.5c-6.9 0-12.5-5.6-12.5-12.5v-5c0-4.1 3.4-7.5 7.5-7.5h12.5v-7.5l10.1-40.6c0.3-1.1 1.3-1.9 2.4-1.9h57.5v-7.5c0-1.4 1.1-2.5 2.5-2.5h7.5v-27.5c0-1.4 1.1-2.5 2.5-2.5c1.4 0 2.5 1.1 2.5 2.5v27.5h7.5c1.4 0 2.5 1.1 2.5 2.5v7.5h57.5c1.1 0 2.1 0.8 2.4 1.9l10 40v8.1h12.6c4.1 0 7.5 3.4 7.5 7.5v5c0 6.9-5.6 12.5-12.5 12.5c1.6 2.1 2.5 4.7 2.5 7.5v37.5h7.5c1.4 0 2.5 1.1 2.5 2.5v10c0 1.4-1.1 2.5-2.5 2.5h-7.5v22.5c0 4.2-3.3 7.5-7.5 7.5h-10c-4.2 0-7.5-3.3-7.5-7.5v-12.5h-135v12.5c0 4.2-3.3 7.5-7.5 7.5h-10c-4.2 0-7.5-3.3-7.5-7.5v-22.5h-7.5c-1.4 0-2.5-1.1-2.5-2.5zm30 2.5h-15v22.5c0 1.4 1.1 2.5 2.5 2.5h10c1.4 0 2.5-1.1 2.5-2.5zm140 0h-135v5h135zm20 0h-15v22.5c0 1.4 1.1 2.5 2.5 2.5h10c1.4 0 2.5-1.1 2.5-2.5zm-5-65h7.5c4.1 0 7.5-3.4 7.5-7.5v-5c0-1.4-1.1-2.5-2.5-2.5h-12.5zm-90-70h15v-5h-15zm-70.1 43.1l0.1 26.9h5v-26.3l7.9-31.8c0.3-1.1 1.3-1.9 2.4-1.9h124.4c1.1 0 2.1 0.8 2.4 1.9l7.8 31.2l0.1 26.9h5v-27.5l-9.4-37.5h-136.1zm130 19.4c0 1.4-1.1 2.5-2.5 2.5h-14.6l15 5h17.1v-26.3l-7.2-28.7h-120.5l-7.3 29.3v25.7h42.1l-15-5h-19.6c-1.4 0-2.5-1.1-2.5-2.5c0-1.4 1.1-2.5 2.5-2.5h40c1.4 0 2.5 1.1 2.5 2.5c0 1.4-1.1 2.5-2.5 2.5h-4.6l15 5h44.2l-15-5h-19.6c-1.4 0-2.5-1.1-2.5-2.5c0-1.4 1.1-2.5 2.5-2.5h50c1.4 0 2.5 1.1 2.5 2.5zm-140 20v37.5h175v-37.5c0-4.1-3.3-7.5-7.5-7.5h-160c-4.1 0-7.5 3.4-7.5 7.5zm5-12.5v-15h-12.5c-1.4 0-2.5 1.1-2.5 2.5v5c0 4.1 3.4 7.5 7.5 7.5zm-15 60h195v-5h-195z" /><path fill-rule="evenodd" class="s0" d="m-338.5-256v-10c0-6.9 5.6-12.5 12.5-12.5h60c6.9 0 12.5 5.6 12.5 12.5v10c0 6.9-5.6 12.5-12.5 12.5h-60c-6.9 0-12.5-5.6-12.5-12.5zm75 7c2.9-1 5-3.7 5-7v-10c0-3.3-2.1-6-5-7zm-10 0.4h5v-25h-5zm-10 0h5v-25h-5zm-10 0h5v-25h-5zm-10 0h5v-25h-5zm-10 0h5v-25h-5zm-10 0h5v-25h-5zm-10-7.5c0 3.3 2.1 6 5 7.1v-24.1c-2.9 1-5 3.8-5 7z" /><path fill-rule="evenodd" class="s0" d="m1406.5-236v10c0 1.4-1.1 2.5-2.5 2.5h-7.5v22.5c0 4.1-3.4 7.5-7.5 7.5h-10c-4.1 0-7.5-3.4-7.5-7.5v-12.5h-135v12.5c0 4.1-3.4 7.5-7.5 7.5h-10c-4.1 0-7.5-3.4-7.5-7.5v-22.5h-7.5c-1.4 0-2.5-1.1-2.5-2.5v-10c0-1.4 1.1-2.5 2.5-2.5h7.5v-47.5c0-6.1 4.5-11.3 10.3-12.3l9.7-67.8v-9.9c0-1.4 1.1-2.5 2.5-2.5h67.5v-17.5c0-1.4 1.1-2.5 2.5-2.5c1.4 0 2.5 1.1 2.5 2.5v17.5h67.5c1.4 0 2.5 1.1 2.5 2.5v9.9l9.7 67.8c5.8 1 10.3 6.2 10.3 12.3v47.5h7.5c1.4 0 2.5 1.1 2.5 2.5zm-170-132.5h135v-5h-135zm-8.2 60h45.1l-10-5h-19.4c-1.4 0-2.5-1.1-2.5-2.5c0-1.4 1.1-2.5 2.5-2.5h50c1.4 0 2.5 1.1 2.5 2.5c0 1.4-1.1 2.5-2.5 2.5h-19.4l10 5h58.8l-10-5h-19.4c-1.4 0-2.5-1.1-2.5-2.5c0-1.4 1.1-2.5 2.5-2.5h50c1.4 0 2.5 1.1 2.5 2.5c0 1.4-1.1 2.5-2.5 2.5h-19.4l10 5h25.1l-7.9-55h-135.6zm-1.5 10h154.3l-0.7-5h-152.8zm-10.4 60h55v-17.5c0-1.4 1.1-2.5 2.5-2.5h60c1.3 0 2.5 1.1 2.5 2.5v17.5h55v-15h-37.5c-1.4 0-2.5-1.1-2.5-2.5v-20c0-1.4 1.1-2.5 2.5-2.5h37.5v-7.5c0-4.1-3.4-7.5-7.5-7.5h-160c-4.2 0-7.5 3.4-7.5 7.5v7.5h37.5c1.3 0 2.5 1.1 2.5 2.5v20c0 1.4-1.2 2.5-2.5 2.5h-37.5zm0-20h5v-15h-5zm35 0v-15h-25v15zm135-15v15h5v-15zm-30 0v15h25v-15zm-80 20v15h55v-15zm-45 30h-5v17.5c0 1.4-1.2 2.5-2.5 2.5c-1.4 0-2.5-1.1-2.5-2.5v-17.5h-5v22.5c0 1.4 1.1 2.5 2.5 2.5h10c1.3 0 2.5-1.1 2.5-2.5zm140 0h-135v5h135zm20 0h-5v17.5c0 1.4-1.2 2.5-2.5 2.5c-1.4 0-2.5-1.1-2.5-2.5v-17.5h-5v22.5c0 1.4 1.1 2.5 2.5 2.5h10c1.3 0 2.5-1.1 2.5-2.5zm10-10h-195v5h195z" /><path class="s0" d="m1374-283.5h-140c-1.4 0-2.5-1.1-2.5-2.5c0-1.4 1.1-2.5 2.5-2.5h140c1.4 0 2.5 1.1 2.5 2.5c0 1.4-1.1 2.5-2.5 2.5z" /><path class="s0" d="m1246.5-246c0 1.4-1.1 2.5-2.5 2.5h-20c-1.4 0-2.5-1.1-2.5-2.5c0-1.4 1.1-2.5 2.5-2.5h20c1.4 0 2.5 1.1 2.5 2.5z" /><path class="s0" d="m1361.5-246c0-1.4 1.1-2.5 2.5-2.5h20c1.4 0 2.5 1.1 2.5 2.5c0 1.4-1.1 2.5-2.5 2.5h-20c-1.4 0-2.5-1.1-2.5-2.5z" /><path class="s0" d="m1344-278.5c1.4 0 2.5 1.1 2.5 2.5c0 1.4-1.1 2.5-2.5 2.5h-80c-1.4 0-2.5-1.1-2.5-2.5c0-1.4 1.1-2.5 2.5-2.5z" /><path class="s0" d="m1344-263.5h-80c-1.4 0-2.5-1.1-2.5-2.5c0-1.4 1.1-2.5 2.5-2.5h80c1.4 0 2.5 1.1 2.5 2.5c0 1.4-1.1 2.5-2.5 2.5z" /><path fill-rule="evenodd" class="s1" d="m31 69.9c-11-11-11-52.6 0-63.5c11.3-11.4 62.8-0.7 73.5 10c2.6 2.6 4.6 5.7 5.9 9.2h62.3c0.7 0 1.3 0.3 1.8 0.8l10 10c1 0.9 1 2.5 0 3.5l-10 10c-0.5 0.5-1.1 0.7-1.8 0.7h-62.3c-1.3 3.5-3.3 6.7-5.9 9.3c-10.7 10.7-62.2 21.3-73.5 10zm139.2-31.8c0 1.4-1.1 2.5-2.5 2.5h-55.1c-0.1 1.7-0.3 3.4-0.7 5h59.8l7.5-7.5l-7.5-7.5h-59.8c0.4 1.7 0.6 3.3 0.7 5h55.1c1.4 0 2.5 1.1 2.5 2.5zm-135.7 28.3c8.6 8.6 56.7-0.3 66.5-10c9-9.1 9-27.5 0-36.5c-9.8-9.8-57.9-18.6-66.5-10c-8.9 9-8.9 47.5 0 56.5z" /><path fill-rule="evenodd" class="s1" d="m50.3 57.1v-38c0-1.3 0.9-2.3 2.2-2.5c10.4-1 38.3 7.8 41.5 10.4q0 0 0 0c5.1 5.1 4.9 17.3-0.1 22.3c-3.2 2.7-31.1 11.3-41.4 10.3c-1.3-0.1-2.2-1.2-2.2-2.5zm25-6.3c7.6-2.1 14.2-4.5 15.3-5.2c2.9-2.9 3-11.9 0-14.9c-1-0.7-7.7-3.1-15.3-5.2zm-20-29.3v33.2c3.9-0.1 9.4-1.2 15-2.6v-28c-5.6-1.4-11.1-2.5-15-2.6z" /><path fill-rule="evenodd" class="s1" d="m1.5 179v-40c0-4.2 3.3-7.5 7.5-7.5h8.8c2.9 0 5.5-1.6 6.8-4.2l14.3-28.8c2.2-4.3 6.5-7 11.3-7h58.8c3.9 0 7.7 1.9 10 5l24 32c1.4 1.9 3.7 3 6 3h38.9c4.8 0 9 2.7 11.2 6.9l7.1 14.5q0.3 0.5 0.3 1.1v20c0 6.9-5.6 12.5-12.5 12.5h-7.6c-1.3 11.2-10.8 20-22.4 20c-11.6 0-21.1-8.8-22.4-20h-75.2c-1.3 11.2-10.8 20-22.4 20c-11.6 0-21.1-8.8-22.4-20h-12.6c-4.1 0-7.5-3.4-7.5-7.5zm60 5c0-9.7-7.9-17.5-17.5-17.5c-9.6 0-17.5 7.8-17.5 17.5c0 9.6 7.9 17.5 17.5 17.5c9.6 0 17.5-7.9 17.5-17.5zm120 0c0-9.7-7.9-17.5-17.5-17.5c-9.6 0-17.5 7.8-17.5 17.5c0 9.6 7.9 17.5 17.5 17.5c9.6 0 17.5-7.9 17.5-17.5zm-104.8-47.5c0.7 8 4.9 14.4 9.4 21.1c4.7 7.1 9.6 14.4 10.3 23.9h45.2c1.3-11.2 10.8-20 22.4-20c11.6 0 21.1 8.8 22.4 20h7.6c4.1 0 7.5-3.4 7.5-7.5v-7.5h-12.5c-1.4 0-2.5-1.1-2.5-2.5c0-1.4 1.1-2.5 2.5-2.5h12.5v-6.9l-6.9-13.9c-1.3-2.6-3.9-4.2-6.7-4.2zm-0.2-5h62.5q0 0 0 0l-24-32c-1.4-1.9-3.6-3-6-3h-32.5zm-48.7 0h43.7v-35h-21.3c-2.9 0-5.5 1.6-6.8 4.2l-14.3 28.8q-0.5 1.1-1.3 2zm-21.3 47.5c0 1.4 1.1 2.5 2.5 2.5h12.7c1.2-11.2 10.8-20 22.3-20c11.6 0 21.1 8.8 22.4 20h24.9c-0.7-8-4.9-14.4-9.4-21.1c-4.7-7.1-9.5-14.4-10.3-23.9h-62.6c-1.4 0-2.5 1.1-2.5 2.5v22.5h12.5c1.4 0 2.5 1.1 2.5 2.5c0 1.4-1.1 2.5-2.5 2.5h-12.5z" /><path fill-rule="evenodd" class="s1" d="m54 184c0 5.5-4.5 10-10 10c-5.5 0-10-4.5-10-10c0-5.5 4.5-10 10-10c5.5 0 10 4.5 10 10zm-5 0c0-2.8-2.2-5-5-5c-2.8 0-5 2.2-5 5c0 2.8 2.2 5 5 5c2.8 0 5-2.2 5-5z" /><path fill-rule="evenodd" class="s1" d="m174 184c0 5.5-4.5 10-10 10c-5.5 0-10-4.5-10-10c0-5.5 4.5-10 10-10c5.5 0 10 4.5 10 10zm-5 0c0-2.8-2.2-5-5-5c-2.8 0-5 2.2-5 5c0 2.8 2.2 5 5 5c2.8 0 5-2.2 5-5z" /><path class="s1" d="m91.5 144c0-1.4 1.1-2.5 2.5-2.5h20c1.4 0 2.5 1.1 2.5 2.5c0 1.4-1.1 2.5-2.5 2.5h-20c-1.4 0-2.5-1.1-2.5-2.5z" /><path fill-rule="evenodd" class="s0" d="m1006.2 152.9q0.3 0.5 0.3 1.1v20c0 6.9-5.6 12.5-12.5 12.5h-7.6c-1.3 11.2-10.8 20-22.4 20c-11.6 0-21.1-8.8-22.4-20h-75.2c-1.3 11.2-10.8 20-22.4 20c-11.6 0-21.1-8.8-22.4-20h-12.6c-4.1 0-7.5-3.4-7.5-7.5v-40c0-4.2 3.3-7.5 7.5-7.5h8.8c2.9 0 5.5-1.6 6.8-4.2l14.3-28.8c2.2-4.3 6.5-7 11.3-7h58.8c3.9 0 7.7 1.9 10 5l24 32c1.4 1.9 3.7 3 6 3h38.9c4.8 0 9 2.7 11.2 6.9zm-129.8-21.3h62.5q0 0 0-0.1l-24-31.9c-1.4-1.9-3.6-3-6-3h-32.5zm-48.6 0h43.6v-35h-21.3c-2.9 0-5.5 1.6-6.8 4.2l-14.3 28.8q-0.5 1-1.2 2zm33.6 52.5c0-9.7-7.8-17.5-17.5-17.5c-9.6 0-17.5 7.8-17.5 17.5c0 9.6 7.9 17.5 17.5 17.5c9.7 0 17.5-7.9 17.5-17.5zm29.8-2.5c-0.7-8.1-4.9-14.5-9.4-21.2c-4.7-7-9.5-14.3-10.3-23.8h-62.6c-1.4 0-2.5 1-2.5 2.5v22.5h12.5c1.4 0 2.5 1.1 2.5 2.5c0 1.3-1.1 2.5-2.5 2.5h-12.5v12.5c0 1.3 1.2 2.5 2.5 2.5h12.7c1.2-11.3 10.8-20 22.3-20c11.6 0 21.1 8.7 22.4 20zm90.2 2.5c0-9.7-7.9-17.5-17.5-17.5c-9.7 0-17.5 7.8-17.5 17.5c0 9.6 7.8 17.5 17.5 17.5c9.6 0 17.5-7.9 17.5-17.5zm20-29.5l-6.9-13.9c-1.3-2.5-3.9-4.1-6.7-4.1h-111.3c0.8 8 5 14.4 9.5 21.1c4.7 7 9.5 14.3 10.3 23.9h45.2c1.3-11.3 10.8-20 22.4-20c11.5 0 21.1 8.7 22.3 20h7.7c4.1 0 7.5-3.4 7.5-7.5v-7.5h-12.5c-1.4 0-2.5-1.2-2.5-2.5c0-1.4 1.1-2.5 2.5-2.5h12.5z" /><path fill-rule="evenodd" class="s0" d="m854 184c0 5.5-4.5 10-10 10c-5.5 0-10-4.5-10-10c0-5.5 4.5-10 10-10c5.5 0 10 4.5 10 10zm-5 0c0-2.8-2.2-5-5-5c-2.8 0-5 2.2-5 5c0 2.8 2.2 5 5 5c2.8 0 5-2.2 5-5z" /><path fill-rule="evenodd" class="s0" d="m974 184c0 5.5-4.5 10-10 10c-5.5 0-10-4.5-10-10c0-5.5 4.5-10 10-10c5.5 0 10 4.5 10 10zm-5 0c0-2.8-2.2-5-5-5c-2.8 0-5 2.2-5 5c0 2.8 2.2 5 5 5c2.8 0 5-2.2 5-5z" /><path class="s0" d="m916.5 144c0 1.4-1.1 2.5-2.5 2.5h-20c-1.4 0-2.5-1.1-2.5-2.5c0-1.4 1.1-2.5 2.5-2.5h20c1.4 0 2.5 1.1 2.5 2.5z" /><path fill-rule="evenodd" class="s0" d="m1006.5 39c0 35.5-34.2 75-35.6 76.7c-0.5 0.5-1.2 0.8-1.9 0.8c-0.7 0-1.4-0.3-1.9-0.8c-1.4-1.7-35.6-41.2-35.6-76.7c0-20.7 16.8-37.5 37.5-37.5c20.7 0 37.5 16.8 37.5 37.5zm-5 0c0-17.9-14.6-32.5-32.5-32.5c-17.9 0-32.5 14.6-32.5 32.5c0 29 25.3 62.2 32.5 71.1c7.2-8.9 32.5-42.1 32.5-71.1z" /><path fill-rule="evenodd" class="s0" d="m986.5 39c0 9.6-7.9 17.5-17.5 17.5c-9.6 0-17.5-7.9-17.5-17.5c0-9.6 7.9-17.5 17.5-17.5c9.6 0 17.5 7.9 17.5 17.5zm-5 0c0-6.9-5.6-12.5-12.5-12.5c-6.9 0-12.5 5.6-12.5 12.5c0 6.9 5.6 12.5 12.5 12.5c6.9 0 12.5-5.6 12.5-12.5z" /><path fill-rule="evenodd" class="s0" d="m-362.1 167.6v-14.1c0-0.7 0.2-1.3 0.7-1.8l44.1-44c-1.5-3.5-2.4-7.1-2.4-10.8c0-15.1 28.9-59 44.9-59c15.5 0 44.9 29.4 44.9 44.9c0 16-43.9 44.9-59 44.9c-3.7 0-7.3-0.9-10.8-2.4l-44 44.1c-0.5 0.5-1.1 0.7-1.8 0.7h-14.1c-1.4 0-2.5-1.1-2.5-2.5zm47.4-70.7c0 12.8 13 25.8 25.8 25.8c13.8 0 54-27.8 54-39.9c0-12.7-27.2-39.9-39.9-39.9c-12.1 0-39.9 40.2-39.9 54zm-42.4 68.2h10.6l42.2-42.2c-1.4-0.9-2.7-2-4-3.1l-39 39c-0.9 1-2.5 1-3.5 0c-1-1-1-2.6 0-3.5l39-39c-1.1-1.3-2.2-2.6-3.1-4l-42.2 42.2z" /><path fill-rule="evenodd" class="s0" d="m-304.7 96.9c0.4-4.2 13.9-30 22-36.6c1-0.8 2.4-0.7 3.3 0.2l26.9 26.9c0.9 0.9 1 2.3 0.2 3.3c-6.6 8.1-32.7 21.6-36.7 22q0 0 0 0c-7.2 0-15.7-8.7-15.7-15.8zm14.7-18.7l19.8 19.8c4.9-2.9 9.6-6.1 12.4-8.8l-23.4-23.4c-2.7 2.8-5.8 7.5-8.8 12.4zm-9.7 19.1c0 4 6.3 10.4 10.5 10.4c1.2-0.2 7.6-3.2 14.5-7.1l-17.9-17.9c-3.8 6.9-6.9 13.2-7.1 14.6z" /><path fill-rule="evenodd" class="s0" d="m-398.5 174v-140c0-17.9 14.6-32.5 32.5-32.5h140c17.9 0 32.5 14.6 32.5 32.5v140c0 17.9-14.6 32.5-32.5 32.5h-140c-17.9 0-32.5-14.6-32.5-32.5zm5 0c0 15.2 12.3 27.5 27.5 27.5h140c15.2 0 27.5-12.3 27.5-27.5v-140c0-15.2-12.3-27.5-27.5-27.5h-140c-15.2 0-27.5 12.3-27.5 27.5z" /><path fill-rule="evenodd" class="s0" d="m41.5 494v-20c0-6.2 4.6-11.4 10.5-12.3l7.7-30.7c1.4-5.6 6.4-9.5 12.1-9.5h64.4c5.7 0 10.7 3.9 12.1 9.5l7.7 30.7c5.9 0.9 10.5 6.1 10.5 12.3v20c0 6-4.3 11.1-10 12.2v12.8c0 4.1-3.4 7.5-7.5 7.5h-10c-4.1 0-7.5-3.4-7.5-7.5v-12.5h-55v12.5c0 4.1-3.4 7.5-7.5 7.5h-10c-4.1 0-7.5-3.4-7.5-7.5v-12.8c-5.7-1.1-10-6.2-10-12.2zm30 12.5h-15v12.5c0 1.4 1.1 2.5 2.5 2.5h10c1.4 0 2.5-1.1 2.5-2.5zm80 0h-15v12.5c0 1.4 1.1 2.5 2.5 2.5h10c1.4 0 2.5-1.1 2.5-2.5zm-105-12.5c0 4.1 3.4 7.5 7.5 7.5h100c4.1 0 7.5-3.4 7.5-7.5h-25c-2.8 0-5-2.2-5-5v-10c0-2.8 2.2-5 5-5h25c0-4.1-3.4-7.5-7.5-7.5h-100c-4.1 0-7.5 3.4-7.5 7.5h25c2.8 0 5 2.2 5 5v10c0 2.8-2.2 5-5 5zm10.7-32.5h93.6l-7.3-29.3c-0.9-3.4-3.9-5.7-7.3-5.7h-64.4c-3.4 0-6.4 2.3-7.3 5.7zm-10.7 27.5h25v-10h-25zm115-10h-25v10h25z" /><path class="s0" d="m81.5 494c0-1.4 1.1-2.5 2.5-2.5h40c1.4 0 2.5 1.1 2.5 2.5c0 1.4-1.1 2.5-2.5 2.5h-40c-1.4 0-2.5-1.1-2.5-2.5z" /><path class="s0" d="m81.5 484c0-1.4 1.1-2.5 2.5-2.5h40c1.4 0 2.5 1.1 2.5 2.5c0 1.4-1.1 2.5-2.5 2.5h-40c-1.4 0-2.5-1.1-2.5-2.5z" /><path class="s0" d="m81.5 474c0-1.4 1.1-2.5 2.5-2.5h40c1.4 0 2.5 1.1 2.5 2.5c0 1.4-1.1 2.5-2.5 2.5h-40c-1.4 0-2.5-1.1-2.5-2.5z" /><path fill-rule="evenodd" class="s0" d="m1.5 574v-140c0-17.9 14.6-32.5 32.5-32.5h140c17.9 0 32.5 14.6 32.5 32.5v140c0 17.9-14.6 32.5-32.5 32.5h-140c-17.9 0-32.5-14.6-32.5-32.5zm5 0c0 15.2 12.3 27.5 27.5 27.5h140c15.2 0 27.5-12.3 27.5-27.5v-140c0-15.2-12.3-27.5-27.5-27.5h-140c-15.2 0-27.5 12.3-27.5 27.5z" /><path fill-rule="evenodd" class="s0" d="m71.5 549v10c0 4.1-3.4 7.5-7.5 7.5h-9l15.8 15.7c0.9 1 0.9 2.6 0 3.6c-0.8 0.8-2.3 1.1-3.6 0l-15.7-15.8v14c0 1.4-1.1 2.5-2.5 2.5c-1.4 0-2.5-1.1-2.5-2.5v-40c0-1.4 1.1-2.5 2.5-2.5h15c4.1 0 7.5 3.4 7.5 7.5zm-5 0c0-1.4-1.1-2.5-2.5-2.5h-12.5v15h12.5c1.4 0 2.5-1.1 2.5-2.5z" /><path class="s0" d="m131.5 544v40c0 2.6-3.6 3.5-4.7 1.1l-15.3-30.5v29.4c0 1.4-1.1 2.5-2.5 2.5c-1.4 0-2.5-1.1-2.5-2.5v-40c0-2.6 3.6-3.5 4.7-1.1l15.3 30.5v-29.4c0-1.4 1.1-2.5 2.5-2.5c1.4 0 2.5 1.1 2.5 2.5z" /><path class="s0" d="m81.5 549v12.5h17.5c1.4 0 2.5 1.1 2.5 2.5c0 1.4-1.1 2.5-2.5 2.5h-17.5v12.5c0 1.4 1.1 2.5 2.5 2.5h15c1.4 0 2.5 1.1 2.5 2.5c0 1.4-1.1 2.5-2.5 2.5h-15c-4.1 0-7.5-3.4-7.5-7.5v-30c0-4.1 3.4-7.5 7.5-7.5h15c1.4 0 2.5 1.1 2.5 2.5c0 1.4-1.1 2.5-2.5 2.5h-15c-1.4 0-2.5 1.1-2.5 2.5z" /><path class="s0" d="m161.5 544c0 1.4-1.1 2.5-2.5 2.5h-7.5v37.5c0 1.4-1.1 2.5-2.5 2.5c-1.4 0-2.5-1.1-2.5-2.5v-37.5h-7.5c-1.4 0-2.5-1.1-2.5-2.5c0-1.4 1.1-2.5 2.5-2.5h20c1.4 0 2.5 1.1 2.5 2.5z" /><path class="s0" d="m606.4 1004.8c-0.4 1-1.6 2-3.2 1.6l-29.7-9.9l-79.6-4.7q-0.4 0-0.8-0.1l-40-15.4q-0.6-0.2-1-0.6l-47-53c-4.8-4.7-4.8-12.7 0.1-17.5c4.8-4.9 12.8-4.9 17.6 0l52.2 46.3h19c-1.6-2.1-2.5-4.7-2.5-7.5c0-6.9 5.6-12.5 12.5-12.5h60c0.5 0 1.1 0.2 1.5 0.5l40 30c1.1 0.8 1.4 2.5 0.4 3.6c-0.9 1.1-2.3 1.2-3.4 0.4l-39.3-29.5h-59.2c-4.1 0-7.5 3.4-7.5 7.5c0 4.1 3.4 7.5 7.5 7.5h40c0.7 0 1.3 0.3 1.8 0.7l10 10c0.9 1 0.9 2.6 0 3.6c-1 1-2.6 1-3.6 0l-9.2-9.3h-69c-0.6 0-1.2-0.2-1.7-0.6l-52.9-47.1c-3-3-7.8-3-10.7-0.1c-2.9 2.9-2.9 7.7 0 10.6l46.8 52.6l39 15l79.6 4.6q0.4 0 0.7 0.1l30 10c1.3 0.5 2 1.9 1.6 3.2z" /><path fill-rule="evenodd" class="s0" d="m441.5 884c0-6.2 4.6-11.4 10.5-12.3l7.7-30.7c1.4-5.6 6.4-9.5 12.1-9.5h29.7v-27.5c0-1.4 1.1-2.5 2.5-2.5c1.4 0 2.5 1.1 2.5 2.5v27.5h29.7c5.7 0 10.7 3.9 12.1 9.5l7.7 30.7c5.9 0.9 10.5 6.1 10.5 12.3v17.5h2.5c4.2 0 7.5 3.3 7.5 7.5v10c0 4.2-3.3 7.5-7.5 7.5h-113.7c-1.4 0-2.5-1.1-2.5-2.5c0-1.4 1.1-2.5 2.5-2.5h113.7c1.4 0 2.5-1.1 2.5-2.5v-10c0-1.4-1.1-2.5-2.5-2.5h-130c-1 0-1.7 0.6-2 1c-0.8 1.1-2.4 1.3-3.5 0.5c-1.1-0.8-1.3-2.4-0.5-3.5c1.4-1.9 3.6-3 6-3h2.5zm120 2.5h-25v15h25zm-104.3-15h93.6l-7.3-29.3c-0.9-3.4-3.9-5.7-7.3-5.7h-64.4c-3.4 0-6.4 2.3-7.3 5.7zm-10.2 10h27c1.4 0 2.5 1.1 2.5 2.5v17.5h55v-17.5c0-1.4 1.1-2.5 2.5-2.5h27.1c-1.1-2.9-3.8-5-7.1-5h-100c-3.2 0-6 2.1-7 5zm-0.5 20h25v-15h-25z" /><path class="s0" d="m481.5 894c0-1.4 1.1-2.5 2.5-2.5h40c1.4 0 2.5 1.1 2.5 2.5c0 1.4-1.1 2.5-2.5 2.5h-40c-1.4 0-2.5-1.1-2.5-2.5z" /><path class="s0" d="m481.5 884c0-1.4 1.1-2.5 2.5-2.5h40c1.4 0 2.5 1.1 2.5 2.5c0 1.4-1.1 2.5-2.5 2.5h-40c-1.4 0-2.5-1.1-2.5-2.5z" /><path fill-rule="evenodd" class="s0" d="m-193.5 844v90c0 1.4-1.1 2.5-2.5 2.5h-89.4l-39.5 19.7c-1.6 0.9-3.6-0.3-3.6-2.2v-17.5h-17.5c-1.4 0-2.5-1.1-2.5-2.5v-90c0-1.4 1.1-2.5 2.5-2.5h150c1.4 0 2.5 1.1 2.5 2.5zm-5 2.5h-145v85h17.5c1.4 0 2.5 1.1 2.5 2.5v16l36.4-18.2q0.5-0.3 1.1-0.3h87.5z" /><path fill-rule="evenodd" class="s0" d="m-273.5 944v50c0 6.9-5.6 12.5-12.5 12.5h-100c-6.9 0-12.5-5.6-12.5-12.5v-180c0-6.9 5.6-12.5 12.5-12.5h100c6.9 0 12.5 5.6 12.5 12.5v20c0 1.4-1.1 2.5-2.5 2.5c-1.4 0-2.5-1.1-2.5-2.5v-20c0-4.1-3.4-7.5-7.5-7.5h-100c-4.1 0-7.5 3.4-7.5 7.5v157.5h37.5c1.4 0 2.5 1.1 2.5 2.5c0 1.4-1.1 2.5-2.5 2.5h-37.5v17.5c0 4.1 3.4 7.5 7.5 7.5h37.8c-3.2-3.2-5.3-7.6-5.3-12.5c0-9.6 7.9-17.5 17.5-17.5c9.6 0 17.5 7.9 17.5 17.5c0 4.9-2 9.3-5.3 12.5h37.8c4.1 0 7.5-3.4 7.5-7.5v-17.5h-37.5c-1.4 0-2.5-1.1-2.5-2.5c0-1.4 1.1-2.5 2.5-2.5h37.5v-27.5c0-1.4 1.1-2.5 2.5-2.5c1.4 0 2.5 1.1 2.5 2.5zm-50 45c0-6.9-5.6-12.5-12.5-12.5c-6.9 0-12.5 5.6-12.5 12.5c0 6.9 5.6 12.5 12.5 12.5c6.9 0 12.5-5.6 12.5-12.5z" /><path class="s0" d="m-346 816.5c-1.4 0-2.5-1.1-2.5-2.5c0-1.4 1.1-2.5 2.5-2.5h20c1.4 0 2.5 1.1 2.5 2.5c0 1.4-1.1 2.5-2.5 2.5z" /><path class="s0" d="m-386 821.5h100c1.4 0 2.5 1.1 2.5 2.5c0 1.4-1.1 2.5-2.5 2.5h-100c-1.4 0-2.5-1.1-2.5-2.5c0-1.4 1.1-2.5 2.5-2.5z" /><path fill-rule="evenodd" class="s0" d="m-318.5 901.5v-15c0-2.8 2.2-5 5-5h6l7.9-15.8c1.3-2.6 3.8-4.2 6.7-4.2h33.8c2.9 0 5.4 1.6 6.7 4.2l7.9 15.8h16c2.8 0 5 2.2 5 5v15c0 2.8-2.2 5-5 5h-5.3c-1.1 5.7-6.2 10-12.2 10c-6 0-11.1-4.3-12.2-10h-25.6c-1.1 5.7-6.2 10-12.2 10c-6 0-11.1-4.3-12.2-10h-5.3c-2.8 0-5-2.2-5-5zm30 2.5c0-4.1-3.4-7.5-7.5-7.5c-4.1 0-7.5 3.4-7.5 7.5c0 4.1 3.4 7.5 7.5 7.5c4.1 0 7.5-3.4 7.5-7.5zm50 0c0-4.1-3.4-7.5-7.5-7.5c-4.1 0-7.5 3.4-7.5 7.5c0 4.1 3.4 7.5 7.5 7.5c4.1 0 7.5-3.4 7.5-7.5zm-63.5-22.5h52l-6.9-13.6c-0.4-0.9-1.3-1.4-2.2-1.4h-33.8c-0.9 0-1.8 0.5-2.2 1.4zm-11.6 20h5.3c1.1-5.7 6.2-10 12.2-10c6 0 11.1 4.3 12.3 10h25.5c1.1-5.7 6.2-10 12.2-10c6 0 11.1 4.3 12.3 10h5.2v-15h-85z" /><path fill-rule="evenodd" class="s0" d="m11.5-638.5v-15c0-2.8 2.2-5 5-5h6l7.9-15.9c1.3-2.5 3.8-4.1 6.7-4.1h33.8c2.9 0 5.4 1.6 6.7 4.2l7.9 15.8h16c2.8 0 5 2.2 5 5v15c0 2.8-2.2 5-5 5h-5.3c-1.1 5.7-6.2 10-12.2 10c-6 0-11.1-4.3-12.2-10h-25.6c-1.1 5.7-6.2 10-12.2 10c-6 0-11.1-4.3-12.2-10h-5.3c-2.8 0-5-2.2-5-5zm30 2.5c0-4.1-3.4-7.5-7.5-7.5c-4.1 0-7.5 3.4-7.5 7.5c0 4.1 3.4 7.5 7.5 7.5c4.1 0 7.5-3.4 7.5-7.5zm50 0c0-4.1-3.4-7.5-7.5-7.5c-4.1 0-7.5 3.4-7.5 7.5c0 4.1 3.4 7.5 7.5 7.5c4.1 0 7.5-3.4 7.5-7.5zm-63.5-22.5h52l-6.9-13.6c-0.4-0.9-1.2-1.4-2.2-1.4h-33.8c-1 0-1.8 0.5-2.2 1.4zm-11.6 20h5.3c1.1-5.7 6.2-10 12.2-10c6 0 11.1 4.3 12.3 10h25.5c1.1-5.7 6.2-10 12.2-10c6 0 11.1 4.3 12.3 10h5.2v-15h-85z" /><path fill-rule="evenodd" class="s0" d="m101.5-746c0-29 23.5-52.5 52.5-52.5c29 0 52.5 23.5 52.5 52.5c0 29-23.5 52.5-52.5 52.5c-29 0-52.5-23.5-52.5-52.5zm5 0c0 26.2 21.3 47.5 47.5 47.5c26.2 0 47.5-21.3 47.5-47.5c0-26.2-21.3-47.5-47.5-47.5c-26.2 0-47.5 21.3-47.5 47.5z" /><path class="s0" d="m132.2-724.2c-0.9-1-0.9-2.6 0-3.6l40-40c1-0.9 2.6-0.9 3.6 0c0.9 1 0.9 2.6 0 3.6l-40 40c-1 0.9-2.6 0.9-3.6 0z" /><path fill-rule="evenodd" class="s0" d="m131.5-766c0-6.9 5.6-12.5 12.5-12.5c6.9 0 12.5 5.6 12.5 12.5c0 6.9-5.6 12.5-12.5 12.5c-6.9 0-12.5-5.6-12.5-12.5zm5 0c0 4.1 3.4 7.5 7.5 7.5c4.1 0 7.5-3.4 7.5-7.5c0-4.1-3.4-7.5-7.5-7.5c-4.1 0-7.5 3.4-7.5 7.5z" /><path fill-rule="evenodd" class="s0" d="m176.5-726c0 6.9-5.6 12.5-12.5 12.5c-6.9 0-12.5-5.6-12.5-12.5c0-6.9 5.6-12.5 12.5-12.5c6.9 0 12.5 5.6 12.5 12.5zm-5 0c0-4.1-3.4-7.5-7.5-7.5c-4.1 0-7.5 3.4-7.5 7.5c0 4.1 3.4 7.5 7.5 7.5c4.1 0 7.5-3.4 7.5-7.5z" /><path class="s0" d="m51.5-716v-30c0-1.4 1.1-2.5 2.5-2.5h40c1.4 0 2.5 1.1 2.5 2.5c0 1.4-1.1 2.5-2.5 2.5h-37.5v27.5c0 1.4-1.1 2.5-2.5 2.5c-1.4 0-2.5-1.1-2.5-2.5z" /><path class="s0" d="m124-643.5c-1.4 0-2.5-1.1-2.5-2.5c0-1.4 1.1-2.5 2.5-2.5h27.5v-37.5c0-1.4 1.1-2.5 2.5-2.5c1.4 0 2.5 1.1 2.5 2.5v40c0 1.4-1.1 2.5-2.5 2.5z" /><path fill-rule="evenodd" class="s0" d="m1.5-616v-70c0-12.4 10.1-22.5 22.5-22.5h70c12.4 0 22.5 10.1 22.5 22.5v70c0 12.4-10.1 22.5-22.5 22.5h-70c-12.4 0-22.5-10.1-22.5-22.5zm5 0c0 9.6 7.9 17.5 17.5 17.5h70c9.6 0 17.5-7.9 17.5-17.5v-70c0-9.6-7.9-17.5-17.5-17.5h-70c-9.6 0-17.5 7.9-17.5 17.5z" /><path fill-rule="evenodd" class="s0" d="m971.5-761v5c0 1.4-1.1 2.5-2.5 2.5c-1.4 0-2.5-1.1-2.5-2.5v-5c0-1.4-1.1-2.5-2.5-2.5h-7.5v15h7.5c4.1 0 7.5 3.4 7.5 7.5v10c0 4.1-3.4 7.5-7.5 7.5h-7.5v7.5c0 1.4-1.1 2.5-2.5 2.5c-1.4 0-2.5-1.1-2.5-2.5v-7.5h-7.5c-4.1 0-7.5-3.4-7.5-7.5v-5c0-1.4 1.1-2.5 2.5-2.5c1.4 0 2.5 1.1 2.5 2.5v5c0 1.4 1.1 2.5 2.5 2.5h7.5v-15h-7.5c-4.1 0-7.5-3.4-7.5-7.5v-10c0-4.1 3.4-7.5 7.5-7.5h7.5v-7.5c0-1.4 1.1-2.5 2.5-2.5c1.4 0 2.5 1.1 2.5 2.5v7.5h7.5c4.1 0 7.5 3.4 7.5 7.5zm-20-2.5h-7.5c-1.4 0-2.5 1.1-2.5 2.5v10c0 1.4 1.1 2.5 2.5 2.5h7.5zm5 20v15h7.5c1.4 0 2.5-1.1 2.5-2.5v-10c0-1.4-1.1-2.5-2.5-2.5z" /><path fill-rule="evenodd" class="s0" d="m811.5-638.5v-15c0-2.8 2.2-5 5-5h6l7.9-15.9c1.3-2.5 3.8-4.1 6.7-4.1h33.8c2.9 0 5.4 1.6 6.7 4.1l7.9 15.9h16c2.8 0 5 2.2 5 5v15c0 2.8-2.2 5-5 5h-5.3c-1.1 5.7-6.2 10-12.2 10c-6 0-11.1-4.3-12.2-10h-25.6c-1.1 5.7-6.2 10-12.2 10c-6 0-11.1-4.3-12.2-10h-5.3c-2.8 0-5-2.2-5-5zm30 2.5c0-4.1-3.4-7.5-7.5-7.5c-4.1 0-7.5 3.4-7.5 7.5c0 4.1 3.4 7.5 7.5 7.5c4.1 0 7.5-3.4 7.5-7.5zm50 0c0-4.1-3.4-7.5-7.5-7.5c-4.1 0-7.5 3.4-7.5 7.5c0 4.1 3.4 7.5 7.5 7.5c4.1 0 7.5-3.4 7.5-7.5zm-63.5-22.5h52l-6.8-13.6c-0.5-0.9-1.3-1.4-2.3-1.4h-33.8c-1 0-1.8 0.5-2.3 1.4zm-11.5 20h5.3c1.1-5.7 6.2-10 12.2-10c6 0 11.1 4.3 12.3 10h25.5c1.1-5.7 6.2-10 12.2-10c6 0 11.1 4.3 12.3 10h5.2v-15h-85z" /><path fill-rule="evenodd" class="s0" d="m1006.5-746c0 29-23.6 52.5-52.5 52.5c-28.9 0-52.5-23.5-52.5-52.5c0-29 23.6-52.5 52.5-52.5c28.9 0 52.5 23.5 52.5 52.5zm-5 0c0-26.2-21.3-47.5-47.5-47.5c-26.2 0-47.5 21.3-47.5 47.5c0 26.2 21.3 47.5 47.5 47.5c26.2 0 47.5-21.3 47.5-47.5z" /><path class="s0" d="m851.5-716v-30c0-1.4 1.1-2.5 2.5-2.5h40c1.4 0 2.5 1.1 2.5 2.5c0 1.4-1.1 2.5-2.5 2.5h-37.5v27.5c0 1.4-1.1 2.5-2.5 2.5c-1.4 0-2.5-1.1-2.5-2.5z" /><path class="s0" d="m924-643.5c-1.4 0-2.5-1.1-2.5-2.5c0-1.4 1.1-2.5 2.5-2.5h27.5v-37.5c0-1.4 1.1-2.5 2.5-2.5c1.4 0 2.5 1.1 2.5 2.5v40c0 1.4-1.1 2.5-2.5 2.5z" /><path fill-rule="evenodd" class="s0" d="m801.5-616v-70c0-12.4 10.1-22.5 22.5-22.5h70c12.4 0 22.5 10.1 22.5 22.5v70c0 12.4-10.1 22.5-22.5 22.5h-70c-12.4 0-22.5-10.1-22.5-22.5zm5 0c0 9.6 7.9 17.5 17.5 17.5h70c9.6 0 17.5-7.9 17.5-17.5v-70c0-9.6-7.9-17.5-17.5-17.5h-70c-9.6 0-17.5 7.9-17.5 17.5z" /><path class="s0" d="m1324.4 939v35c0 20.3-5 30.7-5.2 31.1c-0.6 1.3-2.1 1.7-3.4 1.1c-1.2-0.6-1.7-2.1-1.1-3.3c0-0.1 4.7-9.9 4.7-28.9v-35c0-1.4-1-2.5-2.5-2.5h-10c-1.4 0-2.5 1.1-2.5 2.5v23.3c0 1.4-1.1 2.5-2.5 2.5c-1.3 0-2.5-1.1-2.5-2.5v-33.3c0-1.4-1-2.5-2.5-2.5h-10c-1.4 0-2.5 1.1-2.5 2.5v30c0 1.4-1.1 2.5-2.5 2.5c-1.3 0-2.5-1.1-2.5-2.5v-40c0-1.4-1-2.5-2.5-2.5h-10c-1.4 0-2.5 1.1-2.5 2.5v36.7c0 1.4-1.1 2.5-2.5 2.5c-1.3 0-2.5-1.1-2.5-2.5v-66.7c0-1.4-1.1-2.5-2.5-2.5h-10c-1.3 0-2.5 1.1-2.5 2.5v79.4c0 6.8-8.1 9.9-12.7 5.3l-13.8-13.9c-1-1-2.6-1-3.7 0l-7 7.1c-0.9 0.9-0.9 2.5 0 3.6l31.9 31.7c1 1 1 2.7-0.1 3.6c-1.1 1-2.6 0.8-3.4 0l-31.9-31.8c-2.9-3-2.9-7.7-0.1-10.6l7.2-7.2c3-2.8 7.6-2.8 10.5 0l13.9 13.9c1.6 1.6 4.2 0.5 4.2-1.7v-79.4c0-4.1 3.4-7.5 7.5-7.5h10c4.2 0 7.5 3.4 7.5 7.5v22.9q1.2-0.4 2.5-0.4h10c4.2 0 7.5 3.3 7.5 7.5v2.9q1.2-0.4 2.5-0.4h10c4.2 0 7.5 3.3 7.5 7.5v2.9q1.2-0.4 2.5-0.4h10c4.2 0 7.5 3.3 7.5 7.5z" /><path fill-rule="evenodd" class="s0" d="m1281.5 886.5v-15c0-2.8 2.2-5 5-5h6l7.9-15.8c1.2-2.6 3.9-4.2 6.7-4.2h33.8c2.8 0 5.5 1.6 6.7 4.1l7.9 15.9h16c2.8 0 5 2.2 5 5v15c0 2.8-2.2 5-5 5h-5.3c-1.1 5.7-6.2 10-12.2 10c-6 0-11.1-4.3-12.2-10h-25.6c-1.1 5.7-6.2 10-12.2 10c-6 0-11.1-4.3-12.2-10h-5.3c-2.8 0-5-2.2-5-5zm30 2.5c0-4.1-3.4-7.5-7.5-7.5c-4.1 0-7.5 3.4-7.5 7.5c0 4.1 3.4 7.5 7.5 7.5c4.1 0 7.5-3.4 7.5-7.5zm50 0c0-4.1-3.4-7.5-7.5-7.5c-4.1 0-7.5 3.4-7.5 7.5c0 4.1 3.4 7.5 7.5 7.5c4.1 0 7.5-3.4 7.5-7.5zm-63.5-22.5h52l-6.8-13.6c-0.5-0.9-1.3-1.4-2.3-1.4h-33.8c-1 0-1.8 0.5-2.3 1.4zm-11.5 20h5.3c1.1-5.7 6.2-10 12.2-10c6 0 11.1 4.3 12.3 10h25.5c1.1-5.7 6.2-10 12.2-10c6 0 11.1 4.3 12.3 10h5.2v-15h-85z" /><path class="s0" d="m1406.5 809v130c0 4.2-3.3 7.5-7.5 7.5h-67.1c-1.4 0-2.5-1.1-2.5-2.5c0-1.4 1.1-2.5 2.5-2.5h67.1c1.4 0 2.5-1.1 2.5-2.5v-130c0-1.4-1.1-2.5-2.5-2.5h-190c-1.4 0-2.5 1.1-2.5 2.5v130c0 1.4 1.1 2.5 2.5 2.5h22.9c1.4 0 2.5 1.1 2.5 2.5c0 1.4-1.1 2.5-2.5 2.5h-22.9c-4.2 0-7.5-3.3-7.5-7.5v-130c0-4.2 3.3-7.5 7.5-7.5h190c4.2 0 7.5 3.3 7.5 7.5z" /><path class="s0" d="m1331 936.5c-1.4 0-2.5-1.1-2.5-2.5c0-1.4 1.1-2.5 2.5-2.5h60.5v-115h-175v115h15.4c1.4 0 2.5 1.1 2.5 2.5c0 1.4-1.1 2.5-2.5 2.5h-17.9c-1.4 0-2.5-1.1-2.5-2.5v-120c0-1.4 1.1-2.5 2.5-2.5h180c1.4 0 2.5 1.1 2.5 2.5v120c0 1.4-1.1 2.5-2.5 2.5z" /><path class="s0" d="m-284.2 412.2c0.9 1 0.9 2.6 0 3.6l-10 10c-1 0.9-2.6 0.9-3.6 0c-0.9-1-0.9-2.6 0-3.6l5.6-5.6c-24.5-1.1-48.1 8-65.6 25.6c-11.4 11.3-19.4 25.4-23.2 40.9c-0.3 1.1-1.4 2-2.7 1.9c-1.6-0.2-2.5-1.8-2.1-3.1c4-16.3 12.5-31.3 24.4-43.3c18.6-18.5 43.6-28.1 69.5-27l-5.9-5.8c-0.9-1-0.9-2.6 0-3.6c1-0.9 2.6-0.9 3.6 0z" /><path class="s0" d="m-300.1 596.4l5.9 5.8c0.9 1 0.9 2.6 0 3.6c-1 0.9-2.6 0.9-3.6 0l-10-10c-0.9-1-0.9-2.6 0-3.6l10-10c1-0.9 2.6-0.9 3.6 0c0.9 1 0.9 2.6 0 3.6l-5.6 5.6c24.5 1.1 48.1-8 65.6-25.6c11.4-11.3 19.4-25.4 23.2-40.9c0.3-1.1 1.4-2 2.7-1.9c1.6 0.2 2.5 1.8 2.1 3.1c-4 16.3-12.5 31.3-24.4 43.3c-18.6 18.5-43.6 28.1-69.5 27z" /><path class="s0" d="m-194.2 502.2c0.9 1 0.9 2.6 0 3.6l-10 10c-1 0.9-2.6 0.9-3.6 0l-10-10c-0.9-1-0.9-2.6 0-3.6c1-0.9 2.6-0.9 3.6 0l5.6 5.6c1.1-24.5-8-48.1-25.6-65.6c-11.3-11.4-25.4-19.4-40.9-23.2c-1.1-0.3-2-1.4-1.9-2.7c0.2-1.6 1.8-2.5 3.1-2.1c16.3 4 31.3 12.5 43.3 24.4c18.5 18.6 28.1 43.6 27 69.5l5.8-5.9c1-0.9 2.6-0.9 3.6 0z" /><path class="s0" d="m-388.4 499.9l-5.8 5.9c-1 0.9-2.6 0.9-3.6 0c-0.9-1-0.9-2.6 0-3.6l10-10c1-0.9 2.6-0.9 3.6 0l10 10c0.9 1 0.9 2.6 0 3.6c-1 0.9-2.6 0.9-3.6 0l-5.6-5.6c-1.1 24.5 8 48.1 25.6 65.6c11.3 11.4 25.4 19.4 40.9 23.2c1.1 0.3 2 1.4 1.9 2.7c-0.2 1.6-1.8 2.5-3.1 2.1c-16.3-4-31.3-12.5-43.3-24.4c-18.5-18.6-28.1-43.6-27-69.5z" /><path fill-rule="evenodd" class="s0" d="m-234 504.5v20c0 6-4.3 11.1-10 12.2v12.8c0 4.1-3.4 7.5-7.5 7.5h-10c-4.1 0-7.5-3.4-7.5-7.5v-12.5h-55v12.5c0 4.1-3.4 7.5-7.5 7.5h-10c-4.1 0-7.5-3.4-7.5-7.5v-12.8c-5.7-1.1-10-6.2-10-12.2v-20c0-6.2 4.6-11.4 10.5-12.3l7.7-30.7c1.4-5.6 6.4-9.5 12.1-9.5h29.7v-7.5c0-1.4 1.1-2.5 2.5-2.5c1.4 0 2.5 1.1 2.5 2.5v7.5h29.7c5.7 0 10.7 3.9 12.1 9.5l7.7 30.7c5.9 0.9 10.5 6.1 10.5 12.3zm-109.3-12.5h93.6l-7.3-29.3c-0.9-3.4-3.9-5.7-7.3-5.7h-64.4c-3.4 0-6.4 2.3-7.3 5.7zm104.3 12.5c0-4.2-3.3-7.5-7.5-7.5h-100c-4.1 0-7.5 3.3-7.5 7.5h25c2.8 0 5 2.2 5 5v10c0 2.7-2.2 5-5 5h-25c0 4.1 3.4 7.5 7.5 7.5h100c4.2 0 7.5-3.4 7.5-7.5h-25c-2.7 0-5-2.3-5-5v-10c0-2.8 2.3-5 5-5zm-90 32.5h-15v12.5c0 1.4 1.2 2.5 2.5 2.5h10c1.4 0 2.5-1.1 2.5-2.5zm80 0h-15v12.5c0 1.4 1.2 2.5 2.5 2.5h10c1.4 0 2.5-1.1 2.5-2.5zm10-27.5h-25v10h25zm-115 10h25v-10h-25z" /><path class="s0" d="m-274 524.5c0 1.4-1.1 2.5-2.5 2.5h-40c-1.4 0-2.5-1.1-2.5-2.5c0-1.4 1.1-2.5 2.5-2.5h40c1.4 0 2.5 1.1 2.5 2.5z" /><path class="s0" d="m-274 514.5c0 1.4-1.1 2.5-2.5 2.5h-40c-1.4 0-2.5-1.1-2.5-2.5c0-1.4 1.1-2.5 2.5-2.5h40c1.4 0 2.5 1.1 2.5 2.5z" /><path class="s0" d="m-274 504.5c0 1.4-1.1 2.5-2.5 2.5h-40c-1.4 0-2.5-1.1-2.5-2.5c0-1.4 1.1-2.5 2.5-2.5h40c1.4 0 2.5 1.1 2.5 2.5z" /><path fill-rule="evenodd" class="s0" d="m1354 434.7c0 5.5-4.5 10-10 10c-5.5 0-10-4.5-10-10c0-5.5 4.5-10 10-10c5.5 0 10 4.5 10 10zm-5 0c0-2.7-2.2-5-5-5c-2.8 0-5 2.3-5 5c0 2.8 2.2 5 5 5c2.8 0 5-2.2 5-5z" /><path fill-rule="evenodd" class="s0" d="m1373.3 454c5.5 0 10 4.5 10 10c0 5.5-4.5 10-10 10c-5.5 0-10-4.5-10-10c0-5.5 4.5-10 10-10zm-5 10c0 2.8 2.2 5 5 5c2.7 0 5-2.2 5-5c0-2.8-2.3-5-5-5c-2.8 0-5 2.2-5 5z" /><path fill-rule="evenodd" class="s0" d="m1254 434.7c0-5.5 4.5-10 10-10c5.5 0 10 4.5 10 10c0 5.5-4.5 10-10 10c-5.5 0-10-4.5-10-10zm5 0c0 2.8 2.2 5 5 5c2.8 0 5-2.2 5-5c0-2.7-2.2-5-5-5c-2.8 0-5 2.3-5 5z" /><path fill-rule="evenodd" class="s0" d="m1244.7 464c0 5.5-4.5 10-10 10c-5.5 0-10-4.5-10-10c0-5.5 4.5-10 10-10c5.5 0 10 4.5 10 10zm-5 0c0-2.8-2.2-5-5-5c-2.7 0-5 2.2-5 5c0 2.8 2.3 5 5 5c2.8 0 5-2.2 5-5z" /><path fill-rule="evenodd" class="s0" d="m1354 573.3c0 5.5-4.5 10-10 10c-5.5 0-10-4.5-10-10c0-5.5 4.5-10 10-10c5.5 0 10 4.5 10 10zm-5 0c0-2.8-2.2-5-5-5c-2.8 0-5 2.2-5 5c0 2.7 2.2 5 5 5c2.8 0 5-2.3 5-5z" /><path fill-rule="evenodd" class="s0" d="m1383.3 544c0 5.5-4.5 10-10 10c-5.5 0-10-4.5-10-10c0-5.5 4.5-10 10-10c5.5 0 10 4.5 10 10zm-5 0c0-2.8-2.3-5-5-5c-2.8 0-5 2.2-5 5c0 2.8 2.2 5 5 5c2.7 0 5-2.2 5-5z" /><path fill-rule="evenodd" class="s0" d="m1274 573.3c0 5.5-4.5 10-10 10c-5.5 0-10-4.5-10-10c0-5.5 4.5-10 10-10c5.5 0 10 4.5 10 10zm-5 0c0-2.8-2.2-5-5-5c-2.8 0-5 2.2-5 5c0 2.7 2.2 5 5 5c2.8 0 5-2.3 5-5z" /><path fill-rule="evenodd" class="s0" d="m1244.7 544c0 5.5-4.5 10-10 10c-5.5 0-10-4.5-10-10c0-5.5 4.5-10 10-10c5.5 0 10 4.5 10 10zm-5 0c0-2.8-2.2-5-5-5c-2.7 0-5 2.2-5 5c0 2.8 2.3 5 5 5c2.8 0 5-2.2 5-5z" /><path fill-rule="evenodd" class="s0" d="m1406.5 504c0 56.5-46 102.5-102.5 102.5c-56.5 0-102.5-46-102.5-102.5c0-56.5 46-102.5 102.5-102.5c56.5 0 102.5 46 102.5 102.5zm-5 0c0-53.8-43.7-97.5-97.5-97.5c-53.8 0-97.5 43.7-97.5 97.5c0 53.8 43.7 97.5 97.5 97.5c53.8 0 97.5-43.7 97.5-97.5z" /><path fill-rule="evenodd" class="s0" d="m1291.5 424c0-6.9 5.6-12.5 12.5-12.5c6.9 0 12.5 5.6 12.5 12.5c0 6.9-5.6 12.5-12.5 12.5c-6.9 0-12.5-5.6-12.5-12.5zm5 0c0 4.1 3.4 7.5 7.5 7.5c4.1 0 7.5-3.4 7.5-7.5c0-4.1-3.4-7.5-7.5-7.5c-4.1 0-7.5 3.4-7.5 7.5z" /><path fill-rule="evenodd" class="s0" d="m1316.5 584c0 6.9-5.6 12.5-12.5 12.5c-6.9 0-12.5-5.6-12.5-12.5c0-6.9 5.6-12.5 12.5-12.5c6.9 0 12.5 5.6 12.5 12.5zm-5 0c0-4.1-3.4-7.5-7.5-7.5c-4.1 0-7.5 3.4-7.5 7.5c0 4.1 3.4 7.5 7.5 7.5c4.1 0 7.5-3.4 7.5-7.5z" /><path fill-rule="evenodd" class="s0" d="m1384 491.5c6.9 0 12.5 5.6 12.5 12.5c0 6.9-5.6 12.5-12.5 12.5c-6.9 0-12.5-5.6-12.5-12.5c0-6.9 5.6-12.5 12.5-12.5zm-7.5 12.5c0 4.1 3.4 7.5 7.5 7.5c4.1 0 7.5-3.4 7.5-7.5c0-4.1-3.4-7.5-7.5-7.5c-4.1 0-7.5 3.4-7.5 7.5z" /><path fill-rule="evenodd" class="s0" d="m1224 516.5c-6.9 0-12.5-5.6-12.5-12.5c0-6.9 5.6-12.5 12.5-12.5c6.9 0 12.5 5.6 12.5 12.5c0 6.9-5.6 12.5-12.5 12.5zm7.5-12.5c0-4.1-3.4-7.5-7.5-7.5c-4.1 0-7.5 3.4-7.5 7.5c0 4.1 3.4 7.5 7.5 7.5c4.1 0 7.5-3.4 7.5-7.5z" /><path fill-rule="evenodd" class="s0" d="m1333.6 492l-17.2 10.3q0.1 0.8 0.1 1.7c0 6.9-5.6 12.5-12.5 12.5c-6.9 0-12.5-5.6-12.5-12.5q0-0.9 0.1-1.7l-17.2-10.3q-0.6-0.3-0.9-1l-14.1-28.3c-0.5-0.9-0.3-2.1 0.4-2.9c0.8-0.7 2-0.9 2.9-0.4l28.3 14.1q0.7 0.3 1 0.9l10.3 17.2q0.8-0.1 1.7-0.1q0.9 0 1.7 0.1l10.3-17.2c0.3-0.5 0.7-0.9 1.3-1.1l21.3-7.1c0.9-0.3 1.9 0 2.6 0.6c0.6 0.7 0.9 1.7 0.6 2.6l-7.1 21.3c-0.2 0.6-0.6 1-1.1 1.3zm-36.1 1.3l-9.4-15.7l-20.9-10.4l10.4 20.9l15.7 9.4c1.1-1.7 2.5-3.1 4.2-4.2zm14 10.7c0-4.1-3.4-7.5-7.5-7.5c-4.1 0-7.5 3.4-7.5 7.5c0 4.1 3.4 7.5 7.5 7.5c4.1 0 7.5-3.4 7.5-7.5zm18.7-15.8l5.2-15.6l-15.6 5.2l-9.3 15.5c1.7 1.1 3.1 2.5 4.2 4.2z" /><path fill-rule="evenodd" class="s0" d="m506.5 484v17.5h29.7c5.7 0 10.7 3.9 12.1 9.5l7.7 30.7c5.9 0.9 10.5 6.1 10.5 12.3v20c0 6-4.3 11.1-10 12.2v12.8c0 4.1-3.4 7.5-7.5 7.5h-10c-4.1 0-7.5-3.4-7.5-7.5v-12.5h-55v12.5c0 4.1-3.4 7.5-7.5 7.5h-10c-4.1 0-7.5-3.4-7.5-7.5v-12.8c-5.7-1.1-10-6.2-10-12.2v-20c0-6.2 4.6-11.4 10.5-12.3l7.7-30.7c1.4-5.6 6.4-9.5 12.1-9.5h29.7v-17.5c0-1.4 1.1-2.5 2.5-2.5c1.4 0 2.5 1.1 2.5 2.5zm47.5 62.5h-100c-4.1 0-7.5 3.4-7.5 7.5h25c2.8 0 5 2.2 5 5v10c0 2.8-2.2 5-5 5h-25c0 4.1 3.4 7.5 7.5 7.5h100c4.1 0 7.5-3.4 7.5-7.5h-25c-2.8 0-5-2.2-5-5v-10c0-2.8 2.2-5 5-5h25c0-4.1-3.4-7.5-7.5-7.5zm-82.5 40h-15v12.5c0 1.4 1.1 2.5 2.5 2.5h10c1.4 0 2.5-1.1 2.5-2.5zm80 0h-15v12.5c0 1.4 1.1 2.5 2.5 2.5h10c1.4 0 2.5-1.1 2.5-2.5zm10-27.5h-25v10h25zm-115 10h25v-10h-25zm25.3-62.5c-3.4 0-6.4 2.3-7.3 5.7l-7.3 29.3h93.6l-7.3-29.3c-0.9-3.4-3.9-5.7-7.3-5.7z" /><path class="s0" d="m481.5 574c0-1.4 1.1-2.5 2.5-2.5h40c1.4 0 2.5 1.1 2.5 2.5c0 1.4-1.1 2.5-2.5 2.5h-40c-1.4 0-2.5-1.1-2.5-2.5z" /><path class="s0" d="m481.5 564c0-1.4 1.1-2.5 2.5-2.5h40c1.4 0 2.5 1.1 2.5 2.5c0 1.4-1.1 2.5-2.5 2.5h-40c-1.4 0-2.5-1.1-2.5-2.5z" /><path class="s0" d="m481.5 554c0-1.4 1.1-2.5 2.5-2.5h40c1.4 0 2.5 1.1 2.5 2.5c0 1.4-1.1 2.5-2.5 2.5h-40c-1.4 0-2.5-1.1-2.5-2.5z" /><path fill-rule="evenodd" class="s0" d="m606.5 454v150c0 1.4-1.1 2.5-2.5 2.5h-20c-1.4 0-2.5-1.1-2.5-2.5v-136.1l-77.5-38.7l-77.5 38.7v136.1c0 1.4-1.1 2.5-2.5 2.5h-20c-1.4 0-2.5-1.1-2.5-2.5v-150c0-0.9 0.5-1.8 1.4-2.2l100-50c0.7-0.4 1.5-0.4 2.2 0l100 50c0.9 0.4 1.4 1.3 1.4 2.2zm-5 1.5l-97.5-48.7l-97.5 48.7v146h15v-135.1c0-1 0.5-1.9 1.4-2.3l80-40c0.7-0.3 1.5-0.3 2.2 0l80 40c0.9 0.4 1.4 1.3 1.4 2.3v135.1h15z" /><path class="s0" d="m1238.4-614.9c-0.4-1.3 0.2-2.7 1.5-3.2c1.3-0.5 2.8 0.2 3.3 1.5c2.8 7.9 9.3 14.2 17.3 16.8c1.3 0.4 2.1 1.8 1.6 3.1c-0.3 1.1-1.6 2.1-3.1 1.6c-9.5-3-17.2-10.5-20.6-19.8z" /><path fill-rule="evenodd" class="s0" d="m1237.1-684.4c-1.4-1.6-35.6-41.1-35.6-76.6c0-20.7 16.8-37.5 37.5-37.5c20.7 0 37.5 16.8 37.5 37.5c0 35.5-34.2 75-35.6 76.6c-0.5 0.6-1.2 0.9-1.9 0.9c-0.7 0-1.4-0.3-1.9-0.9zm-30.6-76.6c0 29 25.3 62.2 32.5 71.1c7.2-8.9 32.5-42.1 32.5-71.1c0-17.9-14.6-32.5-32.5-32.5c-17.9 0-32.5 14.6-32.5 32.5z" /><path fill-rule="evenodd" class="s0" d="m1239-743.5c-9.6 0-17.5-7.9-17.5-17.5c0-9.6 7.9-17.5 17.5-17.5c9.6 0 17.5 7.9 17.5 17.5c0 9.6-7.9 17.5-17.5 17.5zm0-5c6.9 0 12.5-5.6 12.5-12.5c0-6.9-5.6-12.5-12.5-12.5c-6.9 0-12.5 5.6-12.5 12.5c0 6.9 5.6 12.5 12.5 12.5z" /><path fill-rule="evenodd" class="s0" d="m1367.1-594.4c-1.4-1.6-35.6-41.1-35.6-76.6c0-20.7 16.8-37.5 37.5-37.5c20.7 0 37.5 16.8 37.5 37.5c0 35.5-34.2 75-35.6 76.6c-0.5 0.6-1.2 0.9-1.9 0.9c-0.7 0-1.4-0.3-1.9-0.9zm-30.6-76.6c0 29 25.3 62.2 32.5 71.1c7.2-8.9 32.5-42.1 32.5-71.1c0-17.9-14.6-32.5-32.5-32.5c-17.9 0-32.5 14.6-32.5 32.5z" /><path fill-rule="evenodd" class="s0" d="m1369-653.5c-9.6 0-17.5-7.9-17.5-17.5c0-9.6 7.9-17.5 17.5-17.5c9.6 0 17.5 7.9 17.5 17.5c0 9.6-7.9 17.5-17.5 17.5zm0-5c6.9 0 12.5-5.6 12.5-12.5c0-6.9-5.6-12.5-12.5-12.5c-6.9 0-12.5 5.6-12.5 12.5c0 6.9 5.6 12.5 12.5 12.5z" /><path class="s0" d="m1236.5-661v-15c0-1.4 1.1-2.5 2.5-2.5c1.4 0 2.5 1.1 2.5 2.5v15c0 1.4-1.1 2.5-2.5 2.5c-1.4 0-2.5-1.1-2.5-2.5z" /><path class="s0" d="m1268.7-598.5h27.3c1.3 0 2.5 1.1 2.5 2.5c0 1.4-1.2 2.5-2.5 2.5h-27c-1.4 0-2.7-1.1-2.7-2.5c0-1.4 1-2.5 2.4-2.5z" /><path class="s0" d="m1302.5-596c0-1.4 1.2-2.5 2.5-2.5h27.3c1.4 0 2.5 1.1 2.5 2.5c0 1.4-1.1 2.5-2.5 2.5h-27.3c-1.3 0-2.5-1.1-2.5-2.5z" /><path class="s0" d="m1236.5-651.9c0-1.4 1.1-2.5 2.5-2.5c1.4 0 2.5 1.1 2.5 2.5v27.3c0 1.3-1.1 2.5-2.5 2.5c-1.3 0-2.5-1.2-2.5-2.5z" /><path class="s0" d="m1356.5-598.5c1.4 0 2.5 1.1 2.5 2.5c0 1.4-1.1 2.5-2.5 2.5h-15c-1.4 0-2.5-1.1-2.5-2.5c0-1.4 1.1-2.5 2.5-2.5z" /><path fill-rule="evenodd" class="s0" d="m566.5-316v20c0 6-4.3 11.1-10 12.2v12.8c0 4.1-3.4 7.5-7.5 7.5h-10c-4.1 0-7.5-3.4-7.5-7.5v-12.5h-55v12.5c0 4.1-3.4 7.5-7.5 7.5h-10c-4.1 0-7.5-3.4-7.5-7.5v-12.8c-5.7-1.1-10-6.2-10-12.2v-20c0-6.2 4.6-11.4 10.5-12.3l7.7-30.7c1.4-5.6 6.4-9.5 12.1-9.5h64.4c5.7 0 10.7 3.9 12.1 9.5l7.7 30.7c5.9 0.9 10.5 6.1 10.5 12.3zm-109.3-12.5h93.6l-7.3-29.3c-0.9-3.4-3.9-5.7-7.3-5.7h-64.4c-3.4 0-6.4 2.3-7.3 5.7zm104.3 12.5c0-4.2-3.3-7.5-7.5-7.5h-100c-4.1 0-7.5 3.3-7.5 7.5h25c2.8 0 5 2.2 5 5v10c0 2.7-2.2 5-5 5h-25c0 4.1 3.4 7.5 7.5 7.5h100c4.2 0 7.5-3.4 7.5-7.5h-25c-2.7 0-5-2.3-5-5v-10c0-2.8 2.3-5 5-5zm-90 32.5h-15v12.5c0 1.4 1.2 2.5 2.5 2.5h10c1.4 0 2.5-1.1 2.5-2.5zm80 0h-15v12.5c0 1.4 1.2 2.5 2.5 2.5h10c1.4 0 2.5-1.1 2.5-2.5zm10-27.5h-25v10h25zm-115 10h25v-10h-25z" /><path class="s0" d="m526.5-296c0 1.4-1.1 2.5-2.5 2.5h-40c-1.4 0-2.5-1.1-2.5-2.5c0-1.4 1.1-2.5 2.5-2.5h40c1.4 0 2.5 1.1 2.5 2.5z" /><path class="s0" d="m526.5-306c0 1.4-1.1 2.5-2.5 2.5h-40c-1.4 0-2.5-1.1-2.5-2.5c0-1.4 1.1-2.5 2.5-2.5h40c1.4 0 2.5 1.1 2.5 2.5z" /><path class="s0" d="m526.5-316c0 1.4-1.1 2.5-2.5 2.5h-40c-1.4 0-2.5-1.1-2.5-2.5c0-1.4 1.1-2.5 2.5-2.5h40c1.4 0 2.5 1.1 2.5 2.5z" /><path fill-rule="evenodd" class="s0" d="m606.5-386v140c0 6.9-5.6 12.5-12.5 12.5h-58.8l-29.2 39c-0.5 0.6-1.2 1-2 1c-0.8 0-1.5-0.4-2-1l-29.3-39h-58.7c-6.9 0-12.5-5.6-12.5-12.5v-140c0-6.9 5.6-12.5 12.5-12.5h180c6.9 0 12.5 5.6 12.5 12.5zm-5 0c0-4.1-3.4-7.5-7.5-7.5h-180c-4.1 0-7.5 3.4-7.5 7.5v140c0 4.1 3.4 7.5 7.5 7.5h60c0.8 0 1.5 0.4 2 1l28 37.3l28-37.3c0.5-0.6 1.2-1 2-1h60c4.1 0 7.5-3.4 7.5-7.5z" /><path fill-rule="evenodd" class="s0" d="m199.8 968.1c9.5 9.5 8.3 23.4 0 31.7c-8.3 8.3-22.2 9.5-31.7 0l-61.3-61.3c-9.8 5.1-21 7.9-32.8 7.9c-40 0-72.5-32.5-72.5-72.4c0-40 32.5-72.5 72.5-72.5c40 0 72.5 32.5 72.5 72.5c0 11.8-2.9 23-8 32.9zm-58.3-94.2c0-37.2-30.2-67.4-67.5-67.4c-37.2 0-67.5 30.2-67.5 67.4c0 37.2 30.3 67.5 67.5 67.5c37.3 0 67.5-30.3 67.5-67.5zm-26.4 65.8c9.9-6.4 18.4-14.8 24.6-24.7l-3.6-3.6c-6.1 10-14.6 18.5-24.7 24.6zm81.3 32l-53.1-53.1c-6.3 9.8-14.7 18.2-24.6 24.7l53 53c6.6 6.7 18.1 6.7 24.7 0c6.6-6.6 6.7-18 0-24.6z" /><path fill-rule="evenodd" class="s0" d="m121.5 871.5v15c0 2.7-2.3 5-5 5h-5.3c-1.1 5.7-6.2 10-12.2 10c-6 0-11.1-4.3-12.3-10h-25.5c-1.1 5.7-6.2 10-12.2 10c-6 0-11.1-4.3-12.3-10h-5.2c-2.8 0-5-2.3-5-5v-15c0-2.8 2.2-5 5-5h6l7.9-15.9c1.3-2.5 3.8-4.1 6.7-4.1h33.8c2.9 0 5.4 1.6 6.7 4.1l7.9 15.9h16c2.7 0 5 2.2 5 5zm-78.5-5h51.9l-6.8-13.6c-0.4-0.9-1.3-1.4-2.2-1.4h-33.8c-1 0-1.8 0.5-2.3 1.4zm13.5 22.4c0-4.1-3.4-7.5-7.5-7.5c-4.1 0-7.5 3.4-7.5 7.5c0 4.2 3.4 7.5 7.5 7.5c4.1 0 7.5-3.3 7.5-7.5zm50 0c0-4.1-3.4-7.5-7.5-7.5c-4.1 0-7.5 3.4-7.5 7.5c0 4.2 3.4 7.5 7.5 7.5c4.1 0 7.5-3.3 7.5-7.5zm10-17.4h-85v14.9h5.3c1.1-5.7 6.2-9.9 12.2-9.9c6 0 11.1 4.2 12.3 9.9h25.5c1.1-5.7 6.2-9.9 12.2-9.9c6 0 11.1 4.2 12.2 9.9h5.3z" /><path fill-rule="evenodd" class="s0" d="m136.5 874c0 34.4-28 62.4-62.5 62.4c-34.5 0-62.5-28-62.5-62.4c0-34.5 28-62.5 62.5-62.5c34.5 0 62.5 28 62.5 62.5zm-5 0c0-31.7-25.8-57.5-57.5-57.5c-31.7 0-57.5 25.8-57.5 57.5c0 31.7 25.8 57.4 57.5 57.4c31.7 0 57.5-25.7 57.5-57.4z" /><path fill-rule="evenodd" class="s0" d="m903.8-388.5l100-10c1.3-0.1 2.6 0.9 2.7 2.3c0.1 1.3-0.9 2.5-2.3 2.7l-99.6 10l-69.2 29.6l-19.4 19.4l-9 18l27 27l6.5-6.5l-18.3-18.2c-0.9-1-0.9-2.6 0-3.6l20-20c0.6-0.5 1.5-0.8 2.2-0.7c5.4 1 32.1 6.5 32.1 18.4c0 0.8-0.3 1.5-0.9 1.9l-27.9 22.4l6.7 6.7l59.4-33.8l18.2-24.6c0.5-0.7 1.5-1.1 2.3-1l70 10c1.4 0.2 2.4 1.5 2.2 2.9c-0.2 1.3-1.5 2.2-2.9 2.1l-68.5-9.8l-17.6 23.8q-0.3 0.4-0.8 0.7l-61.5 35c-0.8 0.4-2 0.5-3-0.4l-5.7-5.8v11.5h12.5c4.1 0 7.5 3.4 7.5 7.5v20c0 4.1-3.4 7.5-7.5 7.5h-5v37.5c0 0.5-0.2 1.1-0.5 1.5l-7.5 10c-0.5 0.6-1.2 1-2 1c-0.8 0-1.5-0.4-2-1l-7.5-10c-0.3-0.4-0.5-1-0.5-1.5v-37.5h-5c-4.1 0-7.5-3.4-7.5-7.5v-20c0-4.1 3.4-7.5 7.5-7.5h12.5v-11.5l-5.7 5.8c-1 0.9-2.6 0.9-3.6 0l-30-30c-0.7-0.8-0.9-2-0.4-2.9l10-20q0.1-0.4 0.4-0.7l20-20q0.4-0.3 0.8-0.5l70-30q0.4-0.1 0.8-0.2zm-54.8 145h-10v36.7l5 6.6l5-6.6zm-2.5-30v5h7.5c1.4 0 2.5 1.1 2.5 2.5c0 1.3-1.1 2.5-2.5 2.5h-20c-1.4 0-2.5-1.2-2.5-2.5c0-1.4 1.1-2.5 2.5-2.5h7.5v-5h-12.5c-1.4 0-2.5 1.1-2.5 2.5v20c0 1.3 1.1 2.5 2.5 2.5h30c1.4 0 2.5-1.2 2.5-2.5v-20c0-1.4-1.1-2.5-2.5-2.5zm-5-28.6v-3.9c0-1.4 1.1-2.5 2.5-2.5c1.4 0 2.5 1.1 2.5 2.5v4.8l24.8-20c-1.7-5.1-15.7-10-26.5-12.1l-17.3 17.3z" /><path fill-rule="evenodd" class="s0" d="m966.5 534v20c0 6-4.3 11.1-10 12.2v12.8c0 4.1-3.4 7.5-7.5 7.5h-10c-4.1 0-7.5-3.4-7.5-7.5v-12.5h-55v12.5c0 4.1-3.4 7.5-7.5 7.5h-10c-4.1 0-7.5-3.4-7.5-7.5v-12.8c-5.7-1.1-10-6.2-10-12.2v-20c0-6.2 4.6-11.4 10.5-12.3l7.7-30.7c1.4-5.6 6.4-9.5 12.1-9.5h64.4c5.7 0 10.7 3.9 12.1 9.5l7.7 30.7c5.9 0.9 10.5 6.1 10.5 12.3zm-109.3-12.5h93.6l-7.3-29.3c-0.9-3.4-3.9-5.7-7.3-5.7h-64.4c-3.4 0-6.4 2.3-7.3 5.7zm104.3 12.5c0-4.2-3.3-7.5-7.5-7.5h-100c-4.1 0-7.5 3.3-7.5 7.5h25c2.8 0 5 2.2 5 5v10c0 2.7-2.2 5-5 5h-25c0 4.1 3.4 7.5 7.5 7.5h100c4.2 0 7.5-3.4 7.5-7.5h-25c-2.7 0-5-2.3-5-5v-10c0-2.8 2.3-5 5-5zm-90 32.5h-15v12.5c0 1.4 1.2 2.5 2.5 2.5h10c1.4 0 2.5-1.1 2.5-2.5zm80 0h-15v12.5c0 1.4 1.2 2.5 2.5 2.5h10c1.4 0 2.5-1.1 2.5-2.5zm10-27.5h-25v10h25zm-115 10h25v-10h-25z" /><path class="s0" d="m926.5 554c0 1.4-1.1 2.5-2.5 2.5h-40c-1.4 0-2.5-1.1-2.5-2.5c0-1.4 1.1-2.5 2.5-2.5h40c1.4 0 2.5 1.1 2.5 2.5z" /><path class="s0" d="m926.5 544c0 1.4-1.1 2.5-2.5 2.5h-40c-1.4 0-2.5-1.1-2.5-2.5c0-1.4 1.1-2.5 2.5-2.5h40c1.4 0 2.5 1.1 2.5 2.5z" /><path class="s0" d="m926.5 534c0 1.4-1.1 2.5-2.5 2.5h-40c-1.4 0-2.5-1.1-2.5-2.5c0-1.4 1.1-2.5 2.5-2.5h40c1.4 0 2.5 1.1 2.5 2.5z" /><path fill-rule="evenodd" class="s0" d="m861.5 454v-20c0-1.4 1.1-2.5 2.5-2.5h10c1.4 0 2.5 1.1 2.5 2.5v20c0 1.4-1.1 2.5-2.5 2.5h-10c-1.4 0-2.5-1.1-2.5-2.5zm5-2.5h5v-15h-5z" /><path fill-rule="evenodd" class="s0" d="m1006.5 434v140c0 17.9-14.6 32.5-32.5 32.5h-140c-17.9 0-32.5-14.6-32.5-32.5v-140c0-17.9 14.6-32.5 32.5-32.5h140c17.9 0 32.5 14.6 32.5 32.5zm-5 0c0-15.2-12.3-27.5-27.5-27.5h-140c-15.2 0-27.5 12.3-27.5 27.5v140c0 15.2 12.3 27.5 27.5 27.5h140c15.2 0 27.5-12.3 27.5-27.5z" /><path fill-rule="evenodd" class="s0" d="m851.5 459v-30c0-4.1 3.4-7.5 7.5-7.5h30c4.1 0 7.5 3.4 7.5 7.5v5h47.5c0.5 0 1.1 0.2 1.5 0.5l10 7.5c0.6 0.5 1 1.2 1 2c0 0.8-0.4 1.5-1 2l-10 7.5c-0.4 0.3-1 0.5-1.5 0.5h-47.5v5c0 4.1-3.4 7.5-7.5 7.5h-30c-4.1 0-7.5-3.4-7.5-7.5zm45-10h46.7l6.6-5l-6.6-5h-46.7zm-40 10c0 1.4 1.1 2.5 2.5 2.5h30c1.4 0 2.5-1.1 2.5-2.5v-30c0-1.4-1.1-2.5-2.5-2.5h-30c-1.4 0-2.5 1.1-2.5 2.5z" /><path fill-rule="evenodd" class="s0" d="m1406.5 34v140c0 17.9-14.6 32.5-32.5 32.5h-140c-17.9 0-32.5-14.6-32.5-32.5v-140c0-17.9 14.6-32.5 32.5-32.5h140c17.9 0 32.5 14.6 32.5 32.5zm-5 0c0-15.2-12.3-27.5-27.5-27.5h-140c-15.2 0-27.5 12.3-27.5 27.5v140c0 15.2 12.3 27.5 27.5 27.5h140c15.2 0 27.5-12.3 27.5-27.5z" /><path fill-rule="evenodd" class="s0" d="m1356.5 104c0 28.9-23.6 52.5-52.5 52.5c-28.9 0-52.5-23.6-52.5-52.5c0-29 23.6-52.5 52.5-52.5c28.9 0 52.5 23.5 52.5 52.5zm-5 0c0-26.2-21.3-47.5-47.5-47.5c-26.2 0-47.5 21.3-47.5 47.5c0 26.2 21.3 47.5 47.5 47.5c26.2 0 47.5-21.3 47.5-47.5z" /><path fill-rule="evenodd" class="s0" d="m1321.5 89v5c0 1.4-1.1 2.5-2.5 2.5c-1.4 0-2.5-1.1-2.5-2.5v-5c0-1.4-1.1-2.5-2.5-2.5h-7.5v15h7.5c4.1 0 7.5 3.4 7.5 7.5v10c0 4.1-3.4 7.5-7.5 7.5h-7.5v7.5c0 1.4-1.1 2.5-2.5 2.5c-1.4 0-2.5-1.1-2.5-2.5v-7.5h-7.5c-4.1 0-7.5-3.4-7.5-7.5v-5c0-1.4 1.1-2.5 2.5-2.5c1.4 0 2.5 1.1 2.5 2.5v5c0 1.4 1.1 2.5 2.5 2.5h7.5v-15h-7.5c-4.1 0-7.5-3.4-7.5-7.5v-10c0-4.1 3.4-7.5 7.5-7.5h7.5v-7.5c0-1.4 1.1-2.5 2.5-2.5c1.4 0 2.5 1.1 2.5 2.5v7.5h7.5c4.1 0 7.5 3.4 7.5 7.5zm-20-2.5h-7.5c-1.4 0-2.5 1.1-2.5 2.5v10c0 1.4 1.1 2.5 2.5 2.5h7.5zm5 20v15h7.5c1.4 0 2.5-1.1 2.5-2.5v-10c0-1.4-1.1-2.5-2.5-2.5z" /><path fill-rule="evenodd" class="s2" d="m1376.5 104c0 40-32.5 72.5-72.5 72.5c-40 0-72.5-32.5-72.5-72.5c0-40 32.5-72.5 72.5-72.5c40 0 72.5 32.5 72.5 72.5zm-5 0c0-37.2-30.3-67.5-67.5-67.5c-37.2 0-67.5 30.3-67.5 67.5c0 37.2 30.3 67.5 67.5 67.5c37.2 0 67.5-30.3 67.5-67.5z" /></svg>