<svg version="1.2" xmlns="http://www.w3.org/2000/svg" viewBox="0 0 564 637" width="564" height="637"><style>.s0{fill:#d1be9d}.s1{fill:#3b727c}</style><path fill-rule="evenodd" class="s0" d="m560.2 474h-184.3l-91.9 157.5l-91.9-157.5h-184.3l92.1-158l-92.1-158h184.3l91.9-157.5l91.9 157.5h184.3l-92.1 158zm-218.8-60l57.1-98l-57.1-98h-114.9l-57.2 98l57.2 98zm114.3-196h-44.8l22.4 38.5zm-171.8-98.5l-22.4 38.5h44.9zm-171.8 98.4l22.4 38.5l22.5-38.5zm0 196h44.8l-22.4-38.4zm171.8 98.4l22.4-38.4h-44.9zm171.8-98.5l-22.4-38.5l-22.5 38.5z" /><path class="s1" d="m284 20.3l80.3 137.7h-46.3l-34-58.3l-120.4 206.4l-23.1-39.7z" /><path class="s1" d="m542.8 464h-161.1l23.4-40h68.1l-120.2-206h46.3z" /><path class="s1" d="m335.6 424l-23.3 40h-287.1l80.5-138.1l23.2 39.7l-34.1 58.4z" /><path class="s1" d="m232.4 208l23.3-40h287.1l-80.5 138.1l-23.2-39.7l34.1-58.4z" /><path class="s1" d="m404.4 325.9l23.1 39.7l-143.5 246.1l-80.3-137.7h46.3l34 58.3z" /><path class="s1" d="m215 414h-46.3l-143.5-246h161.1l-23.4 40h-68.1z" /></svg>